<?xml version="1.0" encoding="UTF-8"?>
<svg id="_Шар_1" data-name="Шар_1" xmlns="http://www.w3.org/2000/svg" version="1.1" viewBox="0 0 500 500">
  <!-- Generator: Adobe Illustrator 30.2.1, SVG Export Plug-In . SVG Version: 2.1.1 Build 1)  -->
  <defs>
    <style>
      .st0 {
        fill: #34596e;
      }

      .st1 {
        fill: #b12f3d;
      }

      .st2 {
        fill: #b03340;
      }

      .st3 {
        fill: #57675c;
      }
    </style>
  </defs>
  <path class="st2" d="M153.5,131.83c-10.41-9.58-25.1,7.94-28.53,16.66-.94,2.4-1.36,4.93-1.1,7.52.08.79.02,1.67-.44,2.31-.2.29-.55.51-.89.45-.15-.03-.53-.21-.65-.29-.79-.56-.88-1.46-1.03-2.42-.78-5.04-3.39-14.89-9.76-15.42-1.96-.17-4.17.33-6.21,2.45-2.36,2.45-3.42,6.22-3.6,9.53-.22,3.95.81,7.6,3.07,10.78,1.97,2.77,4.83,5.35,7.47,7.49,1.22.99,2.51,1.9,3.86,2.71.75.45,1.52.88,2.31,1.28.7.35,1.63.98,2.4,1.1-16.96-2.64-28.57-21.32-19.33-34.47,2.51-3.57,6.64-4.76,10.89-4.21,4.6.6,7.6,4.76,10.37,10.46,1.28-3.06,3.14-6.38,4.84-9.26,5.39-9.12,20.23-18.04,29.95-10.03,5.54,4.56,6.34,13.14,4.56,20.09-4.29,16.76-18.15,30.06-27.82,37.25-4.59,3.42-18,11.2-28.77,12.74,10.65-4.88,20.95-10.38,29.43-18.58,5.81-5.62,11.45-11.91,15.54-18.96s8.45-16.13,6.2-24.47c-.48-1.79-1.39-3.44-2.76-4.71Z"/>
  <path class="st3" d="M83.55,230.41c-2.83,13.67,5.69,28.1,19.7,28.26h16.7v3.83h-15.16c-9.77.29-15.74-3.35-20.55-9.22-5.55-6.77-6.66-14.8-4.92-23.37l12.65-61.39c-.02.11,10.55.06,10.55.06.39.19,4.66,4.37,4.66,4.37,0,0-6.41-.02-8.31,0-3.32-.19-3.94,2.64-4.43,4.97l-10.88,52.47Z"/>
  <path class="st3" d="M168.48,199.16l-3.73-26.19h-12.31c.72-2.08,2.28-4.37,3.55-4.37,0,0,12.46,0,12.33,0l4.14,30.41c.15-.06-3.9.2-3.98.15Z"/>
  <path class="st3" d="M140.7,168.59c-1.3,2.18-3.37,3.94-4.84,4.37h-13.05c-3.1-.15-7.53-2.83-8.43-4.37h26.32Z"/>
  <g>
    <path class="st0" d="M122.78,203.95c-.64.25-1.08.71-1.32,1.38-.24.67-.36,1.74-.36,3.21v29.8c0,1.26.09,2.17.27,2.74.18.56.52.95,1.03,1.15.51.2,1.3.3,2.39.3h2.87c1.78,0,3.41-.54,4.89-1.63s2.72-2.62,3.73-4.6c1-1.98,1.69-4.26,2.08-6.86h1.35c-.11,1.34-.17,3.06-.17,5.16,0,3.76.13,6.86.4,9.29-2.66-.11-7.14-.17-13.44-.17-8.52,0-14.89.06-19.11.17v-1.17c1.3-.06,2.24-.21,2.84-.46.59-.25,1-.71,1.22-1.38.22-.67.33-1.74.33-3.21v-29.12c0-1.47-.11-2.54-.33-3.21-.22-.67-.63-1.13-1.22-1.38-.59-.25-1.54-.4-2.84-.46v-1.17c1.97.11,5.05.17,9.26.17,3.97,0,7.05-.06,9.23-.17v1.17c-1.41.06-2.44.21-3.08.46Z"/>
    <path class="st0" d="M152.25,228.48c0,2.6.36,4.75,1.09,6.46.73,1.71,1.67,2.96,2.82,3.75,1.16.79,2.39,1.19,3.71,1.19,3.23,0,5.82-1.57,7.77-4.7l1.03.34c-.5,1.6-1.27,3.1-2.31,4.48-1.04,1.39-2.36,2.51-3.95,3.38s-3.42,1.3-5.46,1.3c-2.69,0-5.06-.57-7.09-1.72-2.03-1.15-3.62-2.89-4.76-5.23-1.14-2.34-1.71-5.25-1.71-8.73s.61-6.55,1.83-8.98,2.91-4.26,5.07-5.49c2.16-1.22,4.65-1.83,7.48-1.83,7.35,0,11.03,4.34,11.03,13.01h-16.48c-.06.57-.09,1.49-.09,2.75ZM160.49,216.99c-.68-2.02-1.71-3.04-3.08-3.04s-2.56.86-3.48,2.59c-.93,1.73-1.5,4.42-1.71,8.07h9.2c.06-3.06-.25-5.6-.93-7.62Z"/>
    <path class="st0" d="M177.43,240.48c1.27,1.91,3.07,2.87,5.4,2.87,1.15,0,2.12-.35,2.94-1.05.81-.7,1.22-1.74,1.22-3.14,0-1.09-.24-2.06-.73-2.92-.49-.86-1.1-1.62-1.85-2.29s-1.86-1.59-3.35-2.75c-1.82-1.47-3.18-2.63-4.08-3.47-.91-.84-1.69-1.84-2.34-2.99s-.97-2.47-.97-3.94c0-1.68.46-3.13,1.38-4.36s2.15-2.15,3.7-2.78c1.55-.63,3.23-.95,5.04-.95,1.49,0,2.86.18,4.1.54,1.24.36,2.22.78,2.92,1.26.38.27.73.4,1.03.4.73,0,1.18-.72,1.38-2.15h1.29c-.15,1.97-.23,5.41-.23,10.32h-1.29c-.34-2.56-1.11-4.71-2.31-6.46-1.19-1.75-2.93-2.62-5.2-2.62-1.17,0-2.12.33-2.87,1-.75.67-1.12,1.59-1.12,2.75,0,1.32.44,2.46,1.32,3.41.88.96,1.94,1.87,3.18,2.75,1.24.88,2.15,1.54,2.72,1.98,1.6,1.2,2.88,2.25,3.83,3.15.95.9,1.71,1.92,2.31,3.05.59,1.14.89,2.44.89,3.91,0,1.72-.5,3.24-1.5,4.56-1,1.32-2.35,2.34-4.06,3.05-1.7.72-3.56,1.07-5.59,1.07s-3.9-.41-5.44-1.23c-1.17-.59-2.08-1-2.75-1.23-.11-.04-.21-.06-.29-.06-.63,0-1.09.7-1.38,2.09h-1.29c.15-2.24.23-6.14.23-11.72h1.29c.38,3.38,1.21,6.03,2.48,7.94Z"/>
    <path class="st0" d="M244.61,202.49c1.8,0,3.29-.06,4.47-.17v1.17c-.97.38-1.94,1.13-2.89,2.25-.96,1.12-1.8,2.7-2.52,4.74l-12.38,33.5c-.44-.04-1.13-.06-2.06-.06s-1.56.02-1.98.06l-14.99-36.74c-.5-1.3-1.07-2.24-1.73-2.82s-1.31-.89-1.96-.93v-1.17c2.35.11,5.33.17,8.94.17,3.99,0,6.96-.06,8.91-.17v1.17c-1.47.06-2.53.23-3.17.53-.64.3-.96.84-.96,1.65,0,.61.24,1.53.72,2.75l10.34,26.28,7.22-19.46c1.09-3.08,1.63-5.46,1.63-7.16,0-1.57-.42-2.71-1.25-3.42-.83-.72-2.06-1.1-3.68-1.16v-1.17c2.64.11,5.08.17,7.34.17Z"/>
    <path class="st0" d="M260.78,240.97c.25.61.64,1.04,1.17,1.29s1.27.37,2.21.37v1.23c-3.9-.15-6.5-.23-7.79-.23s-3.96.08-8.17.23v-1.23c.94,0,1.68-.12,2.22-.37s.94-.68,1.17-1.29c.24-.61.36-1.46.36-2.55v-18.51c0-1.81-.28-3.13-.83-3.94-.55-.81-1.53-1.22-2.92-1.22v-1.23c1.24.12,2.45.17,3.64.17,3.46,0,6.31-.27,8.57-.8v25.53c0,1.09.12,1.94.37,2.55ZM259.7,199.59c.96.8,1.45,1.9,1.45,3.3s-.48,2.52-1.45,3.32c-.96.8-2.26,1.2-3.88,1.2s-2.97-.4-3.93-1.2c-.96-.8-1.43-1.91-1.43-3.32s.48-2.49,1.43-3.3c.96-.8,2.26-1.2,3.93-1.2s2.92.4,3.88,1.2Z"/>
    <path class="st0" d="M285.54,213.58v1.17h-6.94v23.67c0,1.17.21,1.99.63,2.48.42.49,1.07.73,1.95.73,1.66,0,2.99-1.17,3.98-3.52l1,.54c-1.47,4.03-4.15,6.05-8.02,6.05-2.58,0-4.54-.67-5.88-2.01-.82-.8-1.38-1.82-1.68-3.05-.3-1.23-.44-2.94-.44-5.12v-19.77h-4.93v-1.17h4.93v-7.79c3.23,0,6.05-.63,8.45-1.89v9.69h6.94Z"/>
    <path class="st0" d="M302.77,214.28c1.4-1.04,2.99-1.56,4.77-1.56,1.18,0,2.18.26,2.98.77.8.52,1.39,1.18,1.78,1.99.38.81.57,1.69.57,2.62,0,1.45-.42,2.64-1.26,3.55s-1.95,1.38-3.32,1.38-2.39-.34-3.17-1.02c-.77-.68-1.16-1.59-1.16-2.74,0-1.87.86-3.4,2.58-4.58-.25-.06-.49-.09-.72-.09-.27,0-.57.05-.92.14-.99.15-1.9.63-2.72,1.42s-1.47,1.74-1.93,2.85c-.47,1.11-.7,2.19-.7,3.24v15.56c0,1.82.44,3.07,1.32,3.77s2.28,1.05,4.21,1.05v1.23c-4.89-.15-8-.23-9.34-.23-1.24,0-4.04.08-8.4.23v-1.23c.94,0,1.68-.12,2.22-.37.54-.25.94-.68,1.17-1.29.24-.61.36-1.46.36-2.55v-18.51c0-1.81-.28-3.13-.83-3.94-.55-.81-1.53-1.22-2.92-1.22v-1.23c1.24.12,2.45.17,3.64.17,3.46,0,6.31-.27,8.57-.8v5.44c.74-1.66,1.82-3.01,3.22-4.05Z"/>
    <path class="st0" d="M327.32,240.97c.25.61.64,1.04,1.17,1.29s1.27.37,2.21.37v1.23c-3.9-.15-6.5-.23-7.79-.23s-3.96.08-8.17.23v-1.23c.94,0,1.68-.12,2.22-.37.54-.25.94-.68,1.17-1.29.24-.61.36-1.46.36-2.55v-18.51c0-1.81-.28-3.13-.83-3.94-.55-.81-1.53-1.22-2.92-1.22v-1.23c1.24.12,2.45.17,3.64.17,3.46,0,6.31-.27,8.57-.8v25.53c0,1.09.12,1.94.37,2.55ZM326.24,199.59c.96.8,1.45,1.9,1.45,3.3s-.48,2.52-1.45,3.32c-.96.8-2.26,1.2-3.88,1.2s-2.97-.4-3.93-1.2c-.96-.8-1.43-1.91-1.43-3.32s.48-2.49,1.43-3.3,2.26-1.2,3.93-1.2,2.92.4,3.88,1.2Z"/>
    <path class="st0" d="M355.06,212.72c1.6,0,2.92.19,3.94.57,1.02.38,1.86.95,2.51,1.69.65.75,1.12,1.71,1.4,2.89.29,1.18.43,2.77.43,4.76v15.79c0,1.09.12,1.94.37,2.55.25.61.64,1.04,1.17,1.29s1.27.37,2.21.37v1.23c-3.9-.15-6.48-.23-7.74-.23s-3.75.08-7.65.23v-1.23c.8,0,1.43-.12,1.89-.37.46-.25.79-.68.99-1.29.2-.61.3-1.46.3-2.55v-18.25c0-1.6-.26-2.82-.79-3.64s-1.48-1.23-2.85-1.23c-1.07,0-2.05.3-2.94.89-.89.59-1.59,1.41-2.11,2.45-.52,1.04-.77,2.19-.77,3.45v16.33c0,1.09.1,1.94.31,2.55.21.61.54,1.04,1,1.29.46.25,1.08.37,1.86.37v1.23c-3.59-.15-6.02-.23-7.28-.23s-3.91.08-8.11.23v-1.23c.94,0,1.68-.12,2.22-.37.54-.25.94-.68,1.17-1.29.24-.61.36-1.46.36-2.55v-18.51c0-1.81-.28-3.13-.83-3.94-.55-.81-1.53-1.22-2.92-1.22v-1.23c1.24.12,2.45.17,3.64.17,3.46,0,6.31-.27,8.57-.8v5.27c1.78-3.63,4.99-5.44,9.63-5.44Z"/>
    <path class="st0" d="M378.87,228.48c0,2.6.36,4.75,1.09,6.46.73,1.71,1.67,2.96,2.82,3.75,1.16.79,2.39,1.19,3.71,1.19,3.23,0,5.82-1.57,7.77-4.7l1.03.34c-.5,1.6-1.27,3.1-2.31,4.48-1.04,1.39-2.36,2.51-3.96,3.38-1.6.87-3.42,1.3-5.46,1.3-2.69,0-5.06-.57-7.09-1.72-2.03-1.15-3.62-2.89-4.76-5.23-1.14-2.34-1.71-5.25-1.71-8.73s.61-6.55,1.83-8.98,2.91-4.26,5.07-5.49,4.65-1.83,7.48-1.83c7.35,0,11.03,4.34,11.03,13.01h-16.48c-.06.57-.09,1.49-.09,2.75ZM387.11,216.99c-.68-2.02-1.71-3.04-3.08-3.04s-2.56.86-3.48,2.59c-.93,1.73-1.5,4.42-1.71,8.07h9.2c.06-3.06-.25-5.6-.93-7.62Z"/>
    <path class="st0" d="M404.04,240.48c1.27,1.91,3.07,2.87,5.4,2.87,1.15,0,2.12-.35,2.94-1.05.81-.7,1.22-1.74,1.22-3.14,0-1.09-.24-2.06-.73-2.92-.49-.86-1.1-1.62-1.85-2.29-.75-.67-1.86-1.59-3.35-2.75-1.82-1.47-3.18-2.63-4.08-3.47-.91-.84-1.69-1.84-2.34-2.99s-.97-2.47-.97-3.94c0-1.68.46-3.13,1.38-4.36s2.15-2.15,3.7-2.78c1.55-.63,3.23-.95,5.04-.95,1.49,0,2.86.18,4.1.54,1.24.36,2.22.78,2.92,1.26.38.27.73.4,1.03.4.73,0,1.18-.72,1.38-2.15h1.29c-.15,1.97-.23,5.41-.23,10.32h-1.29c-.34-2.56-1.11-4.71-2.31-6.46s-2.93-2.62-5.2-2.62c-1.17,0-2.12.33-2.87,1-.75.67-1.12,1.59-1.12,2.75,0,1.32.44,2.46,1.32,3.41.88.96,1.94,1.87,3.18,2.75,1.24.88,2.15,1.54,2.72,1.98,1.6,1.2,2.88,2.25,3.83,3.15.95.9,1.71,1.92,2.31,3.05.59,1.14.89,2.44.89,3.91,0,1.72-.5,3.24-1.5,4.56-1,1.32-2.35,2.34-4.05,3.05-1.7.72-3.56,1.07-5.59,1.07s-3.9-.41-5.45-1.23c-1.17-.59-2.08-1-2.75-1.23-.11-.04-.21-.06-.29-.06-.63,0-1.09.7-1.38,2.09h-1.29c.15-2.24.23-6.14.23-11.72h1.29c.38,3.38,1.21,6.03,2.48,7.94Z"/>
  </g>
  <g>
    <path class="st0" d="M150.89,279.77c.29.43.8.64,1.54.64v.65c-.65-.06-1.29-.09-1.91-.09-1.81,0-3.31.14-4.49.42v-2.64c-.69,1.85-2.02,2.78-3.99,2.78-1.25,0-2.35-.3-3.3-.91s-1.68-1.54-2.21-2.81c-.53-1.27-.78-2.85-.77-4.75,0-1.8.28-3.32.86-4.56.59-1.24,1.4-2.17,2.43-2.79,1.04-.62,2.22-.93,3.57-.93,1.51,0,2.65.39,3.41,1.16v-5.22c0-.95-.15-1.64-.44-2.06s-.8-.64-1.52-.64v-.65c.65.06,1.29.09,1.91.09,1.8,0,3.3-.14,4.49-.43v20.7c0,.95.14,1.64.43,2.06ZM143.78,265.64c-1.08,0-1.92.63-2.51,1.88-.59,1.25-.88,3.12-.87,5.6-.03,4.71.94,7.07,2.9,7.07.44,0,.86-.11,1.25-.33.39-.22.72-.54.98-.95.27-.42.43-.9.5-1.45v-10.77c-.52-.7-1.27-1.05-2.25-1.05Z"/>
    <path class="st0" d="M157.53,265.75c.44-.51.71-1.03.8-1.56.05-.28.08-.52.08-.72,0-.23-.02-.42-.08-.57-.47.49-1.07.74-1.79.74s-1.31-.21-1.76-.63c-.45-.42-.68-1-.68-1.74,0-.7.24-1.27.71-1.71.48-.44,1.08-.66,1.81-.66,1,0,1.73.36,2.19,1.08.21.31.38.69.5,1.15s.18.92.18,1.4c0,1.05-.27,2.01-.81,2.88-.54.87-1.35,1.55-2.42,2.04l-.29-.56c.59-.25,1.11-.63,1.55-1.14Z"/>
  </g>
  <g>
    <path class="st1" d="M196.08,306.07h-10.9c-.87,0-1.37-.43-1.44-1.3l-.72-8.81-10.9,2.17-1.59,6.64c-.22.72-.72,1.08-1.44,1.08l-10.69-.22c-.94,0-1.52-.87-1.37-1.88,1.52-5.63,3.25-11.41,4.98-17.04,1.3-4.19,2.82-8.3,4.4-12.35,2.17-5.49,4.48-10.97,6.79-16.39.22-.43.58-.72,1.08-.87,1.59-.29,3.18-.65,4.84-.87,1.23-.22,2.67-.22,4.19-.07,2.82.22,4.48,2.53,5.56,4.98.58,1.59,1.08,3.39,1.52,4.98.14.58,1.08,4.48,1.73,7.94l5.42,30.25c.14.94-.51,1.73-1.44,1.73ZM165.18,294.52v.14l.22.14c.14-.14.07-.22-.22-.29ZM166.33,300.29c-.07,0-.36-.29-.51-.29-.22,0-.36.14-.36.29.07.07.22.07.43,0h.43ZM166.77,298.13l.51-.14v-.29c-.07-.07-.14-.14-.22-.14-.14-.07-.22-.14-.29-.22-.22.43-.58.65-1.16.65,0,.07.29.58.65.58.07,0,.14-.07.22-.14,0-.14.14-.14.29-.29ZM166.26,297.04l.51.22.14-.07v-.36c0-.14-.14-.22-.43-.22q-.07.07-.14.07s-.07,0-.07.07v.29ZM167.49,300.37c0-.14-.07-.29-.29-.36-.29.14-.43.22-.43.29l.43.29c.14-.14.22-.22.29-.22ZM168.43,295.6c-.07.07-.14.22-.14.36,0,.07.07.07.14.07s.07,0,.07-.07c.14-.14.07-.22-.07-.36ZM169.51,299.57l-.14-.14c-.07,0-.14,0-.14.07h-.14c-.14.07-.22.07-.29.07.14.14.22.14.29.22,0,0,.14,0,.29.07.14-.07.14-.14.14-.29ZM171.24,294.44c-.14-.29-.14-.43-.14-.43-.07-.14-.14-.29-.14-.43-.14-.07-.72-.36-.87-.36-.58,0-.72.43-.72.58,0,.22.36.72.94.72.07,0,.14,0,.22-.07h.72ZM169.73,270.4c0,.14.29.79.43.79.07-.36.07-.79,0-1.16.07-.14-.43.22-.43.36ZM170.09,272.21v.79h.29v-.87l-.29.07ZM171.46,283.04h-.29c-.07.22-.14.51-.14.65,0,.22.07.36.22.43.14-.22.22-.43.22-.58v-.51ZM172.83,292.64h-.79v.36h.79v-.36ZM175.72,278.99c.36-.22.72-.79.79-1.01s.14-.43.14-.58c.07-.22.29-.65.72-1.52l-.36-.14c-.14.07-.22.14-.36.29s-.29.29-.36.29c-.14.5-.22.94-.36,1.3-.14.29-.22.5-.29.5,0,.07-.07.22-.22.29-.07.07-.14.22-.22.51.07-.14-.22.65-.51,1.59-.22.65-.29,1.01-.29,1.01-.14.43-.22.65-.65,1.16-.51.58-.51.79-.65,1.3-.07.14-.14.36-.14.65-.07.36-.22.65-.43,1.01-.14.29-.29.58-.36.87,0,.29.07.5.14.5.14.07.22.07.36,0,0-.07.14-.14.22-.22.22-.43.36-.87.43-1.23.07-.43.29-.87.51-1.16,0-.14.14-.36.43-.65l.29-.79c0,.14.72-2.09,1.16-3.1v-.87ZM174.64,259.28h.29v-.43h-.29v.43ZM174.85,262.17c-.07,0-.14-.07-.14-.07v.94c0-.22.14-.5.36-.87h-.22ZM175.14,271.12s0-.07.14-.07c.14.07.22.07.29-.07l-.36-.14c-.07,0-.07.07-.07.14v.14ZM181.28,285.27l-.43-3.47c-.14-1.16-.29-2.31-.51-3.47-.29-1.52-.58-3.03-.94-4.55l-3.54,11.62,5.42-.14ZM177.67,273c.22.65.43.72,1.01.43l.22-.58c0-.07-.07-.14-.07-.14,0-.07-.07-.14-.14-.22-.36-.07-.72.07-1.01.51ZM177.96,274.23l-.22.58.14.07.22-.58-.14-.07ZM178.83,265.49l.14.07.07-.22h-.07l-.14.14ZM179.69,265.92l.07.36h.36c.07.07.14,0,.29,0,0-.22-.07-.36-.14-.43-.22,0-.29.07-.29.07h-.29ZM180.63,293.72l-.07-.14-.22.07.07.14.22-.07ZM180.92,288.74h-.36v.14h.36v-.14ZM182.51,289.53c-.14,0-.29.07-.51.22h.29l.14.14c.07-.07.07-.22.07-.36ZM182.36,281.09h.43c0-.07-.07-.14-.14-.22-.14,0-.29-.07-.29-.07v.29ZM183.01,282.82h-.58v.14h.58v-.14ZM182.87,262.17l.22.22c.07-.14.14-.29.14-.58-.22,0-.36,0-.36-.07v.43ZM183.09,288.52h.22v-.14h-.22v.14ZM183.52,287.01h-.22v.29h.22v-.29ZM183.52,293.22h-.22v.29h.22v-.29ZM183.45,261.16h.22v-.58h-.22v.58ZM183.52,262.39l.14.22v-.14l-.14-.29v.22ZM184.46,262.17l-.79-.07v.29q.07.07.07.22h.29c0-.07.07-.14.22-.29.07-.07.14-.14.22-.14ZM184.02,278.34h-.36c.07.22.36.14.36,0ZM183.88,285.78l-.14.14c.14,0,.22-.07.14-.14ZM184.02,284.91h-.14l-.07.22.14.07.07-.29ZM184.02,284.12l.22.36c.14-.07.29-.07.43-.07.07,0,.29.07.51.07s.51-.22.51-.36h-1.08c-.22-.07-.43,0-.58,0ZM184.39,293.72h.72v-.22h-1.01c.22.07.29.14.29.22ZM184.53,281.09c-.14.07-.22.22-.22.43h.43c-.22.14-.29.29-.07.51h.65v-.22h.07c-.07-.43-.36-.65-.87-.72ZM184.96,285.71c-.07,0-.22-.07-.43-.07l-.14.14q0,.07-.07.14l.51.14c0-.07,0-.14.07-.14q.07-.07.07-.22ZM184.82,296.68h-.51v.29h.51v-.29ZM184.46,290.4c.14.07.51.22.72.22.29-.22.51-.43.51-.58,0-.07-.07-.14-.22-.29-.14,0-.22-.07-.22-.14l-.43.43c-.07.07-.14.22-.36.36ZM184.53,263.47l.14.14h.94c.07,0,.14-.07.29-.14-.22-.14-.36-.22-.36-.43l.14-.22c-.22.07-.43.14-.65.14s-.36.14-.51.51ZM184.53,265.2c.07.07.22.14.36.14s.22.07.36.14c.07-.07.14-.14.14-.22s0-.07.07-.14c-.22-.14-.43-.22-.65-.22-.14,0-.29.07-.29.29ZM184.53,274.66l.22.14.14-.07-.14-.14-.22.07ZM185.47,283.4l-.07-.14h-.51v.29l.36.29v-.07q.07,0,.14-.07h.14c0-.14-.07-.22-.07-.29ZM184.89,287.87v.36h.29v-.36h-.29ZM185.68,298.27l-.43-.22c-.22-.07-.29-.07-.36-.14l.07.51.72-.14ZM185.68,277.48v-.14s0-.07.07-.07l-.51-.07v.29h.43ZM185.68,283.11h.43v-.36c-.07,0-.14-.07-.22-.07-.07-.07-.14-.07-.22-.07-.22.07-.36.22-.36.43.14,0,.29,0,.36.07ZM185.4,292.06c0,.29.14.43.43.58v-.58h-.43ZM185.68,267.44c-.07,0-.14.07-.14.22,0,.07.07.14.14.22h.43c.14-.07.29-.22.29-.29,0-.22-.14-.36-.36-.36-.07.14-.22.14-.36.22ZM187.13,287.73c-.07-.07-.14-.22-.14-.43-.07-.14-.14-.29-.14-.43-.43-.29-.79-.43-1.16-.36,0,.07.14.14.22.14.22.07.36.29.51.65v.43h.72ZM185.68,297.55h.43c0-.22-.14-.22-.43-.29v.29ZM185.76,300.58h.79c0-.14-.14-.29-.29-.43-.07.07-.22.14-.36.22l-.14.22ZM186.26,283.69h-.14l.14.87c.22-.29.29-.72.29-.72-.07,0-.14-.07-.22-.07,0,0-.07,0-.07-.07ZM186.33,281.38c.07.07.07.14.22.14l.14-.22c0-.07-.14-.07-.43-.07q0,.07.07.14ZM186.33,272.57v.14h.51v-.14h-.51ZM186.33,291.92v.14h.36v-.14h-.36ZM187.35,303.9c-.14-.29-.22-.51-.22-.72h-.72c.14.29.58.79.79.94q.07-.07.07-.14s0-.07.07-.07ZM186.7,273.5c-.07.14-.07.22-.07.22l.07.14h.43c0-.22-.14-.36-.43-.36ZM187.13,278.13v-.14l-.43-.14v.14l.43.14ZM188.57,282.82h-.72c-.87.58-.79.43-.79.65s.22.5.65,1.23h1.01c.07,0,.14-.07.29-.07-.14-.22-.29-.36-.51-.36s-.43-.14-.72-.43c.29-.07.51-.14.58-.29.07-.14.22-.29.43-.43-.07-.22-.14-.29-.22-.29ZM187.27,281.38c.22,0,.43,0,.43-.14-.07,0-.14-.14-.14-.14h-.14c-.07,0-.14.07-.14.14v.14ZM187.27,282.17c.36.22.72.14,1.16-.07-.14-.14-.36-.29-.58-.29h-.58v.36ZM187.78,286.72c0-.07-.07-.14-.22-.29,0,0-.07.07-.22.07q-.07,0-.07.07c.07,0,.36.14.43.14h.07ZM187.78,296.47h-.51c0,.07,0,.22.07.22.07.14.14.14.22.22,0-.07.07-.07.14-.22.07,0,.07-.14.07-.22ZM187.42,280.87c.29,0,.36-.07.36-.29l-.36.29ZM188.21,292.57c0,.14.22.65.65.65.22,0,.36,0,.43-.07,0,.07.14,0,.43-.07-.07-.14-.14-.14-.22-.14l-.29-.22c-.07-.07-.07-.29-.07-.65-.07.22-.14.29-.36.29l-.58.22ZM192.98,303.33c-.14-.72-.22-1.3-.29-1.73s-.14-1.01-.29-1.73c-.07-.07-.14-.14-.29-.36-.07-.22-.14-.29-.14-.36,0-.14.07-.29.36-.51-.43-.22-.65-.43-.58-.65.22-.43.22-.94-.14-1.52-.14-.22-.22-.36-.22-.5s.07-.29.22-.29c.14-.07.14-.43-.14-.94l-.51.43c-.22.14-.36.29-.51.36l-.22-.14v-.72c0-.29.22-.36.65-.36l.29.22v-.58c-.22-.14-1.01-.36-1.08-.36-.43,0-1.37.36-1.37.79,0,.07.07.14.14.22-.14-.07,0,0,.29.22-.14.14-.14.29,0,.5.14.07.22.14.29.22.14.07.14.14.14.14-.22.14-.36.14-.51.14-.43,0-.65.14-.65.36-.07.29-.07.43-.14.5.22-.07.51.07.43.22,0,.07-.07.14-.14.14s-.07,0-.07.07,0,.14-.07.22-.14.22-.14.29v.65c.29.14,1.59.58.79.94.22.07.51.07.87.07.14,0,.22,0,.36-.07h.43v1.01h-.07v.07h-.07l.22.22c.07.07.07.14.22.22,0,.07.07.14.14.14.07.14.14.14.22.22,0,.14.07.36.07.65.07.22.22.43.51.58,0,.07,0,.14-.07.22v.14c0,.22.51.79.72.79.14,0,.22,0,.36-.14ZM189.66,287.87h.43v-.07l-.43-.07v.14ZM191.17,293.43h.29v-.14h-.29v.14Z"/>
    <path class="st1" d="M214.85,257.48l-1.73,34.08,16.54-.22c.87,0,1.52.65,1.52,1.52l-.22,10.4c0,.94-.51,1.44-1.44,1.44l-27.65,1.37c-.51,0-.79-.14-1.08-.43-.29-.29-.43-.58-.43-1.08l2.24-47.44c.07-.94.58-1.37,1.52-1.37l9.31.22c.79,0,1.44.72,1.44,1.52ZM204.31,300.73l.07.14.14-.07-.07-.07h-.14ZM204.82,300.73l.87.14.29-.29-.14-.07c-.07,0-.14-.07-.29-.07-.29,0-.65.22-.72.29ZM204.82,301.67v.14l.36-.14-.07-.07-.29.07ZM206.98,288.88c0-.29-.79-.51-.87-.51-.14,0-.36.07-.58.29-.14.22-.22.36-.22.51,0,.07,0,.14.07.29.07.14.29.14.58.14.43,0,1.01-.43,1.01-.72ZM206.55,295.74v-.36l-.58-.07v.36h.36q.07.07.22.07ZM208.14,297.98v-.29c-.07,0-.14,0-.14-.07-.07,0-.14-.07-.14-.07-.22,0-.29.14-.29.29s0,.14.07.14l.22.14c0-.07.14-.14.29-.14ZM209.08,278.78v-.29h-.22l-.29.14c.14.07.14.14.14.14,0,.07.14.14.29.07.07,0,.07-.07.07-.07ZM209.37,299.64l.29-.22c-.07,0-.14,0-.14-.14s-.14-.22-.29-.14c-.07.07-.14.07-.22.07,0,.07.14.07.22.22.07,0,.07.07.07.14,0,0,.07,0,.07.07ZM209.73,298.85v-.5h-.14c-.07-.07-.14-.07-.22-.07-.07.22-.07.43,0,.72.22-.14.29-.14.36-.14ZM210.67,301.45v-.29q-.07,0-.14-.07h-.36s0,.07-.07.07-.07.07-.07.14c0,.14,0,.22.07.22s.14.07.22.14c0-.07.07-.14.14-.14s.14,0,.22-.07ZM210.59,302.17l.07-.07s-.14-.07-.29-.07v.22c.07,0,.14,0,.22-.07ZM211.32,296.03l-.58-.07v.14l.58.14v-.22ZM211.82,275.02l-.65-.07v.36h.43c.07,0,.14-.07.22-.14q.07-.14,0-.14ZM211.39,259.57l.14.07.14-.29h-.14l-.14.22ZM212.47,301.81h-.29s-.14-.07-.29-.07c0,.14-.07.14,0,.14v.14c.14-.07.29-.07.36-.07.14,0,.22-.07.22-.14ZM213.63,297.41c-.14-.07-.22-.14-.29-.14v.22c0,.07.07.14.14.22.22,0,.29-.22.14-.29ZM214.06,272.42v-.29h-.14c0-.07-.07-.07-.14-.07-.22,0-.29.07-.29.29q0,.07.07.07c0,.07.07.14.22.14.07-.07.14-.07.14-.07,0,0,.07-.07.14-.07ZM214.78,297.12c-.14.07-.22.14-.29.29.07.07.14.07.22.07h.22v-.14q.07,0,.14-.07v-.07c.07,0,.07-.07.14-.07h-.43ZM216.66,298.34l-.43.14c-.29.07-.36.14-.36.29s.07.51.58.51c.14,0,.87-.14.87-.51,0,0-.29-.43-.65-.43ZM216.3,297.26l-.07.22.43.14.14-.22-.51-.14ZM216.73,300.58l.14-.14q-.07-.07-.14-.07v-.07h-.29c-.14.07-.22.14-.22.22l.51.07ZM218.32,301.95v-.22s-.07-.07-.29-.14c-.07-.07-.14-.14-.22-.14-.29,0-.58.22-.65.36v.22h.29c.14,0,.29-.07.36,0,.14,0,.29,0,.51-.07ZM218.18,296.11h-.51c-.14.14-.22.29-.22.29.07.14.22.22.58.22.22,0,.36-.22.36-.29l-.22-.22ZM228.43,301.23c.22-.07.07-.29,0-.29s-.14.07-.14.22.07.14.14.07Z"/>
    <path class="st1" d="M268.14,257.26l-.22,8.59c-.07.87-.51,1.37-1.37,1.44l-19.86,2.09-.51,5.99,14.88-.79v7.08h.29v-7.08c.79,0,1.52.65,1.52,1.44v7.51c0,.79-.43,1.3-1.23,1.44l-15.81,2.09-.36,5.99,19.28-.58c.87,0,1.52.65,1.52,1.44v9.1c0,.87-.43,1.37-1.37,1.44l-30.4,1.59c-.87,0-1.52-.58-1.52-1.52.07-7.08.29-14.51.65-22.24.36-8.01,1.01-15.96,1.81-23.9.14-.87.58-1.3,1.44-1.3l29.68-1.37c.94,0,1.59.65,1.59,1.52ZM235,301.88h-.87c.14.36.72.14.87,0ZM236.08,300.29h-.94v.43h.72c0-.22.07-.36.22-.43ZM237.17,302.17h-.14v-.29h-.65v.29h.65v.29h.14v-.29ZM237.82,263.54h-.07l-.14.07.14.07.07-.14ZM238.18,301.38h.79v-.29h-.79v.29ZM238.9,303.98h-.58v.29h.58v-.29ZM239.91,302.53h-1.23v.65c.43,0,.79.07,1.01.14,0,0,.07-.14.07-.36.14-.22.14-.36.14-.43ZM240.56,300.44h-.79v.29h.79v-.29ZM240.92,291.48c0-.07.07-.07.14-.22l-.22-.14c-.07,0-.22.07-.36.14l.07.29c.22,0,.29,0,.36-.07ZM240.63,290.33c.22-.07.36-.22.36-.43h-.43c-.07.14-.07.29.07.43ZM240.92,288.38l.43.14q0-.14.07-.22l.07-.07c-.22-.07-.36-.07-.36-.07-.14.07-.22.14-.22.22ZM241.64,301.16c-.14,0-.43.14-.58.22.22.51.29,1.08.29,1.52.51-.29.65-1.37.29-1.73ZM241.35,281.95l.22.14c.07,0,.14-.07.29-.07,0-.14.07-.14.22-.22-.14,0-.22-.07-.22-.07-.07,0-.14-.07-.29-.07-.14.07-.22.22-.22.29ZM241.35,285.35h.36c.07-.07.07-.14,0-.29-.29.07-.36.22-.36.29ZM241.86,292.42v-.22c.07,0,0-.07,0-.22-.22,0-.36.29-.36.29.07.07.22.14.36.14ZM241.5,297.33v.43c0-.07.07-.07.14-.14l.29-.29h-.43ZM241.71,260.72c0,.07,0,.14.07.29v.14h.29c0-.07.07-.14.14-.22s.14-.07.14-.14l-.65-.07ZM242.29,284.34c-.07,0-.36.22-.36.29.22.07.36.07.51,0l-.14-.29ZM242.73,288.09c-.14-.29-.29-.51-.29-.58l-.51.07.36.29c.07.14.22.22.43.22ZM242.51,299.14h-.58v.36h.58v-.36ZM242.08,290.4q.07.07.14.07c.07,0,.14,0,.22-.07l-.07-.36h-.14c0,.07-.07.07-.07.07h-.14v.29h.07ZM242.65,291.41h-.36v.07l.29.07.07-.14ZM242.36,258.92h1.52v-.22h-1.52v.22ZM242.58,283.33c0,.14.07.29.07.29.22,0,.36-.07.43-.14,0-.14-.07-.36-.29-.51-.29.14-.36.29-.22.36ZM243.01,282.82l-.07-.07q-.07,0-.14-.07t-.14.07v.07c.14.14.22.14.36,0ZM242.65,285.92l.65.07.14-.29c-.07-.07-.14-.14-.14-.22h-.36c-.22.22-.29.36-.29.43ZM242.87,287.58l.79.07c.07,0,.14-.14.14-.22l-.79-.07c0,.07-.07.14-.14.22ZM242.94,284.7v.36c.29.22.51.29.65.29h.22l.22-.14v-.94c-.14-.07-.22-.14-.29-.22-.07,0-.14-.07-.29-.07-.36,0-.51.51-.51.72ZM243.3,297.55v-.14q0-.07.07-.07h-.43c0,.14.14.22.36.22ZM244.68,302.31c-.29,0-.58,0-.79.07-.14.07-.29.07-.43.14-.14,0-.22.07-.36.07.14.07.51.43.51.58.36-.22.65-.5.72-.58.14-.14.29-.22.36-.29ZM243.52,288.52c-.07-.14-.14-.29-.07-.36.07-.14.07-.22,0-.29l-.22.22c-.07,0-.07.07-.07.14v.29h.36ZM243.16,288.67v.29h.22v-.29h-.22ZM244.17,281.16c-.14,0-.22-.07-.29-.14l-.07-.07h-.36c-.14.14-.22.36-.22.43.22-.07.36-.07.43-.07.22,0,.36,0,.51-.14ZM243.3,286.79l.14.29c.14,0,.29,0,.43-.14-.14-.07-.29-.14-.58-.14ZM243.66,281.52l-.22.14c.07.14.14.22.22.29.07-.22.22-.29.36-.22.22,0,.43,0,.65-.07-.36,0-1.01-.14-1.01-.14ZM245.04,282.24q-.14,0-.29-.07h-.29c-.07,0-.22,0-.43.14-.29.07-.43.14-.58.22.29.14.58.22.65.29-.07.22-.14.36-.07.51l.65-.14c-.14-.29.07-.58.36-.94ZM243.52,288.81c0,.07,0,.14.07.14q0,.07.07.14l.51-.14c-.07,0-.07-.07-.07-.14v-.07c-.22,0-.29.07-.36.07h-.22ZM244.17,286.07l-.07-.43c-.22,0-.36.07-.36.29v.29l.43-.14ZM244.39,286.94l.22-.14-.58-.14v.29h.36ZM246.05,283.69h-.36c-.14,0-.22.07-.22.14s-.07.14-.14.14c0-.22-.07-.36-.22-.43h-.43c0,.07.07.14.14.14l.22.22-.51.22c-.14.07-.29.22-.36.29.14.07.29.07.36.14h.43c.14,0,.14.07,1.08-.29v-.58ZM245.54,286.21c0-.07-.07-.14-.14-.14l-.14-.14c-.14.07-.36.07-.65.07-.14,0-.29.07-.29.07,0,0-.07.07-.14.07l.36.29c.22-.07.36-.14.51-.14l.51-.07ZM244.68,289.46h-.43v.29h.43v-.29ZM244.39,278.42c0,.14.07.22.22.29.14.14.36.14.65.14h.22v-.22h-.43c-.07-.07-.51-.22-.65-.22ZM244.68,280s.07,0,.22-.07l-.14-.07h-.07c-.07,0-.14,0-.14.07,0,.14.07.22.14.07ZM244.68,271.12l.36.07c.07-.07.07-.14,0-.36-.07,0-.14.07-.22.14s-.14.07-.14.14ZM245.18,272.42l.07-.07-.36-.07v.07l.29.07ZM245.54,276.18c-.07,0-.14-.07-.29-.07l-.07.07c-.14.07-.22.14-.22.29,0,.22.22.36.58.36.07,0,.22,0,.29-.07v-.5c-.07,0-.22,0-.29-.07ZM244.96,278.63h.07-.07ZM244.96,282.75c.07.36.22.36.51.36.14,0,.29-.07.51-.14l-.22-.22h-.79ZM245.33,288.09h-.36v.29c.22,0,.36-.14.36-.29ZM245.47,285.56c0-.14-.14-.29-.29-.36l-.14.29c.14.07.29.07.43.07ZM245.11,267.66h.14l.07-.07c-.07,0-.07-.07-.07-.14-.07,0-.14.07-.14.22ZM245.18,258.99h.22v-.14h-.22v.14ZM245.83,284.77h-.43l-.14.22h.43c.07,0,.14-.07.14-.22ZM245.33,300.73v.36h.58v-.36h-.58ZM245.61,275.31h.36v-.36h-.36v.36ZM245.98,257.33h.14v-.22h-.14v.22ZM247.56,258.7h-1.01v.07h-.14c-.22.07-.36.14-.36.22h.51l.07-.07h.94v-.22ZM246.34,278.49l.29.29c.07,0,.22.07.36.07l.07-.07h.14v-.36c-.22,0-.36-.07-.43-.14l-.14.07s-.07,0-.07.07c0,0-.07,0-.22.07ZM246.7,297.55l.14.29h.14l-.22-.29h-.07ZM247.42,278.05c.29-.07.29-.22,0-.43v.43ZM247.85,295.02h.58v-.14h-.58v.14ZM247.85,295.96l.14.14c.22-.07.29-.14.14-.29-.07,0-.14,0-.14.07h-.14v.07ZM248.86,262.46l-.14-.43c-.36.14-.58.29-.58.43.14.07.22.07.29,0h.43ZM248.72,295.24h-.43v.14h.43v-.14ZM248.43,259.64c0-.07.14-.14.29-.29.14-.14.07-.14-.14-.07-.07,0-.14.07-.14.36ZM248.86,298.27l-.14-.14h-.14l.14.29s0-.07.07-.07.07-.07.07-.07ZM250.16,261.45v-.07l.36-.36c-.07.07-.22.14-.29.14h-.14c-.07,0-.07.07-.22.07h-.14c-.22.07-.43.29-.58.58l.14.14h.87c.14,0,.14-.07.14-.07h.07l.14-.14c-.22-.07-.36-.14-.36-.29ZM250.16,263.18c-.29-.14-.51-.22-.65-.22-.22,0-.36.07-.36.36l.36.22.22.07h.07c.07,0,.14-.14.14-.22l.22-.22ZM249.22,301.59c0,.22.07.36.07.36h1.01c0-.07.07-.14.14-.29.07-.07.07-.22.07-.29l-.36-.36h-.87c-.07.14-.07.36-.07.58ZM249.66,279.5h.58c.14-.07.14-.14.14-.22v-.29h-.58q0,.14-.07.29c0,.14-.07.22-.07.22ZM249.8,277.48l.36.29c.22-.07.29-.36.07-.5l-.43.22ZM249.8,278.42c0,.07.07.14.14.29h.51l-.22-.14c-.14-.07-.14-.14-.29-.22-.07.07-.14.07-.14.07ZM250.02,295.96l.14.5c.07,0,.07-.07.07-.07.07,0,.07-.07.07-.14.07,0,.07-.07.07-.14-.07-.07-.22-.14-.36-.14ZM250.38,295.31c.14.07.22.22.22.29h.36c.07-.07.14-.14.14-.22s.07-.14.07-.14l-.14-.36c0,.07-.14.22-.29.22-.22.14-.29.22-.36.22ZM250.81,257.91c-.07,0-.14-.07-.14-.14-.14.07-.07.14.14.14ZM251.46,263.9c0-.14-.07-.29-.36-.29-.07,0-.07.07-.14.07h-.07l-.07.07c-.07.07-.14.14-.14.29,0,.07.07.14.07.14h.51c.14,0,.22-.07.22-.29ZM252.18,258.7c0-.14-.14-.29-.43-.29s-.51.07-.65.29c-.07.14-.14.22-.22.29.14-.07.22-.22.22-.29.07,0,.22-.07.36-.07.29.07.43.22.43.36v.29c0-.14.07-.22.14-.29.14-.14.14-.22.14-.29ZM251.1,297.91h-.14l-.07.22h.22v-.22ZM251.1,267.22h-.14v.22h.14v-.22ZM251.32,276.68h.07v-.07l-.07.07ZM251.39,296.61h.36c0-.07,0-.14.07-.22,0,0,0-.07-.07-.14-.22.07-.36.22-.36.36ZM252.04,263.04c0-.07-.07-.22-.36-.43l-.22.43h.58ZM251.68,276.68v.07l.14-.07h-.14ZM252.11,277.26h-.29l-.14.29.29.14.14-.43ZM252.04,295.82l.29-.07q0-.07-.07-.07c-.07,0-.07-.07-.14-.14l-.07.29ZM253.34,263.76c0-.22-.07-.43-.29-.51-.14.07-.22.07-.29.07s-.14,0-.29.07l.14.36h.36c.07.07.22.07.36,0ZM252.98,261.95h.07l.07.07.07-.22h-.22v.14ZM252.98,302.89h.5v-.14h-.5v.14ZM253.34,259.5h-.29v.14h.29v-.14ZM253.63,297.77c0,.22.14.36.36.36l.14-.22c.07-.07.07-.14.07-.14h-.58ZM255,263.11c0-.07-.07-.14-.14-.22l-.14-.14c-.36.14-.58.29-.58.43l.87-.07ZM254.86,295.38h.14l.07-.14-.07-.07-.14.22ZM257.17,258.99h-.58v.29h.58v-.29ZM258.32,284.77h.87v-.22h-.87v.22ZM261.21,283.61c.14-.22.22-.29.29-.36.07-.14.14-.22.14-.29l-.14-.51c-.07-.07-.14-.29-.29-.65v1.8ZM261.64,277.62c.14,0,.22,0,.36.07.14,0,.29.07.36.07l.29-.36v-.58c-.07-.07-.43-.22-.58-.22l-.43.29v.72ZM262,263.69h-.14v.36h.14v-.36ZM262,304.05c.14,0,.29-.07.43-.22h-.29c0,.14-.07.22-.14.22ZM262.15,300.58l.87.14v-.22l-.72-.22-.14.29ZM262.87,258.49h-.14v.22h.14v-.22Z"/>
    <path class="st1" d="M307.28,257.98c-.72,7.44-1.23,14.87-1.37,22.38-.07,1.08-.07,2.17-.07,3.25s-.07,2.17-.07,3.25h-.36c-.22,0-.43,0-.51.07-.07.07-.43.07-.94.07l.14.14-.14.14h.14c.07,0,.14,0,.29-.07.14.07.36.07.72.07h.51c.07,0,.14,0,.14.07v.14h-.36l.14.07-.14.14h.36c-.07,5.49-.07,10.97-.07,16.39,0,1.01-.5,1.52-1.44,1.52l-9.53.22c-.72,0-1.16-.29-1.44-.94l-1.08-3.03h.07v-.07h-.14l-5.7-15.16c.29-.14.58-.29.87-.51l-.36.07-.14-.07c-.07,0-.22.07-.36.07-.07,0-.14.07-.14.07l-2.74-7.22-.51,25.56c-.07.94-.58,1.44-1.52,1.44h-9.75c-.87,0-1.44-.65-1.44-1.52.14-3.54.36-7.15.58-10.69.36-7.15.65-13.36,1.3-21.01l1.3-15.09c.07-.87.5-1.3,1.44-1.37l6.93-.22c3.25-.22,5.42,1.95,6.64,4.77l.07.07,5.99,15.67,1.16-19.13c0-.94.51-1.37,1.52-1.37l8.59.22c.87,0,1.44.79,1.44,1.59ZM277.96,286.21l-.14-.43c-.43.22-.58.36-.58.58.29,0,.58-.07.72-.14ZM278.11,270.26h.43v-.22h-.43v.22ZM278.25,287.3h1.44c-.65-.36-.87-.43-.65-.36l-.22-.14c-.29-.07-.51-.07-.72-.14l.14.65ZM278.83,283.25h-.58v.5h.58v-.5ZM279.26,286.07l-.43.22v.29l.58-.22-.14-.29ZM279.41,290.91c-.29,0-.43,0-.43.07-.14.07-.14.14-.14.22l.43.29c.07-.14.14-.29.14-.36v-.22ZM279.41,295.67h-.43v.51h.43v-.51ZM279.12,266.72l.43.22c0-.22-.07-.36-.14-.43-.14,0-.22.07-.29.22ZM280.13,280.22c0-.14-.07-.29-.14-.43v-.14c-.29,0-.58.07-.72.22v.36h.87ZM279.69,281.45c.36-.22.22-.43-.43-.58v.43l.43.14ZM279.41,283.04h.72l-.36-.51c-.22.14-.36.29-.36.51ZM279.41,288.6h.72v-.36h-.72v.36ZM279.98,270.11h-.43v.29c.07.07.14.14.14.22.22-.14.29-.29.29-.51ZM280.13,275.09h-.58v.29h.58v-.29ZM280.27,296.61c-.14-.07-.36-.14-.72-.14v.51c.43-.14.65-.29.72-.36ZM280.27,289.25h-.43v.5h.43v-.5ZM280.13,281.52h.5v-.29h-.5v.29ZM282,270.83l.07-.14h-1.3v-.22h-.58v.29h.58v-.07l.14.14c.14.07.22.14.29.14,0,.07.07.07.22.07s.36-.07.58-.22ZM281.14,297.98h-.72v.43h.72v-.43ZM281.28,271.41c-.22-.14-.43-.14-.65-.14.14.22.36.29.65.14ZM281.64,278.7h-.72c.36.5.65.36.72,0ZM282,283.18h-.43v.58h.43v-.58ZM282.08,270.98l.43.14.14-.22-.58-.14v.22ZM282.22,278.34h.51v-.43h-.51v.43ZM283.09,279.5h-.72v.29h.72v-.29ZM282.94,292.06h-.5v.43h.5v-.43ZM282.58,270.11c0,.22.07.43.14.58.14-.07.22-.07.22-.07,0,0,.07-.07.14-.07-.07-.07-.22-.29-.5-.43ZM282.66,275.74v.29h.72v-.29h-.72ZM283.59,270.98c-.22-.14-.36-.22-.51-.22-.07.07-.14.14-.07.22v.22c.22,0,.43-.07.58-.22ZM283.16,277.62c.07.29.14.58.36.72.29-.29.22-.51-.36-.72ZM284.97,278.92h-1.01c.43.14.79.14,1.01,0ZM286.34,282.46c-.07,0-.07-.07-.07-.07-.14,0-.22-.07-.29-.14-.07,0-.14.14-.14.29v.14h.5v-.22ZM287.35,278.92h.36v-.43h-.36v.43ZM288.5,286.14c-.14-.14-.29-.29-.51-.36-.07.14-.22.22-.51.29.07.07.14.07.22.07s.07.07.14.07c.22.07.29.14.29.14,0,0,.07,0,.22-.07l.14-.14ZM288,280.87h.51v-.22h-.51v.22ZM288.07,278.34l.14.22.94-.65-.36-.14c0,.43,0,.58-.72.58ZM288.65,282.17l.51-.07c-.07-.22-.14-.51-.14-.87-.07.14-.14.14-.14.22l-.22.22c-.14.07-.22.07-.22.07,0,0,0,.07-.07.14.07.07.14.14.14.22l.14.07ZM288.65,278.92l-.14-.14c0,.07-.07.14-.07.22s.07.14.14.29h.07v-.22c.07,0,0-.07,0-.14ZM288.72,285.71l.36.14.29-.43-.43-.07-.22.36ZM289.01,290.04c.07,0,.22,0,.43-.07l-.29-.22c-.22,0-.36.22-.14.29ZM288.94,279.93v.29h.29v-.29h-.29ZM289.44,288.02c-.07-.29-.22-.43-.43-.43-.07.07-.07.14,0,.22,0,0,0,.07.07.07s.22.07.36.14ZM289.88,291.84c-.14-.22-.36-.29-.65-.29v.29c.14.07.36.07.65,0ZM289.3,284.41c0,.22.22.43.65.43v-.43h-.65ZM290.09,285.35l-.79.22.07.22.87-.22-.14-.22ZM289.37,288.52s.07,0,.14-.07h.07c.07,0,.14-.07.22-.14h.07l.07-.07c-.29-.07-.43-.14-.58-.14v.43ZM289.88,290.83l.51-.14-.14-.22-.5.07.14.29ZM290.16,289.1l-.14.22.36.14.14-.29-.36-.07ZM291.1,294.3l-.72.22c0,.14.14.14.29.14,0,.07.07.07.14.07,0,0,.07,0,.22.07-.07-.07-.07-.29.07-.51ZM290.6,292.64h.29v-.36h-.29v.36ZM291.1,293.79h-.5v.36h.5v-.36ZM290.67,284.99c0,.29.22.43.58.51.07-.07.14-.07.22-.07l.22-.07c-.43-.22-.79-.36-1.01-.36ZM291.25,286l.58-.07-.07-.29-.58.14.07.22ZM292.4,292.78c-.14-.22-.14-.14-.58-.29l-.29-.07.29.5.58-.14ZM291.97,290.47h-.14c0,.14.14.29.29.5.07.14.22.29.29.36.14-.07.29-.14.43-.29s.36-.22.58-.43c-.22.07-.36.07-.43.07h-.14c-.07.07-.14.07-.14.07l-.14.07c-.07-.07-.14-.14-.14-.22s0-.14-.14-.22h-.07q-.07.07-.22.07ZM292.19,288.67h.36l-.14-.5-.22.07v.43ZM292.4,297.04v.07c.22.07.29.14.29.14l1.59-.87c-.36.14-.65.14-.79.14-.07.07-.22.14-.5.14-.29.07-.58.14-.79.29.07.07.14.07.14.07h.07ZM293.56,291.41h-.14s-.14,0-.22.07c0,0,.07-.07.07-.14h-.58c-.07.07-.14.07-.29.07.07.22.14.29.29.29l.14.14c.07-.07.14-.07.22-.22h.65l.58-.14-.14-.22-.58.14ZM293.85,300.22l-.72.14h-.14s-.14.07-.29.07c.14.14.14.36,0,.5.29,0,.51-.07.58-.22.36-.22.43-.29.29-.22,0,0,.14-.07.29-.29ZM293.85,292.71v-.22c0-.14-.14-.29-.43-.36l-.58.14v.29c.36.22.72.22,1.01.14ZM292.84,295.02l.29.65c.29-.29.14-.43-.29-.65ZM293.41,293.79l.43,1.01.29-.07-.43-1.01-.29.07ZM294.93,296.54s.07,0,.22-.14l.14-.14.14-.07-.22-.51h-.29c-.07,0-.22-.07-.36-.14,0,.14.07.29.14.43,0,0,0,.07.07.07v.14c.07.07.07.14,0,.22,0,.07-.22.14-.5.36.36-.07.58-.14.65-.22ZM294.42,291.63l.29.43.29-.14-.22-.43-.36.14ZM296.66,295.96c-.58-.29-.87-.51-.94-.72v-.36s0-.07.07-.07l-.07-.07c-.22.07-.36.14-.43.14-.07.07-.14.07-.36.14l-.14.14-.22.14c.14,0,.29.07.51.07.07,0,.22,0,.43.07.07.22.14.36.29.51.14.22.43.14.87,0ZM294.79,280.8l.07.07.14-.22h-.14l-.07.14ZM295.87,298.63l-.5-.5-.43.43c.07.07.14.07.14.07.07,0,.14.14.14.14l.65-.14ZM296.3,298.85c.14,0,.22,0,.29-.07l-.07-.07c-.07,0-.14,0-.29-.14-.14.22-.07.29.07.29ZM297.46,299.21c-.14,0-.29-.07-.43-.07,0,.07-.14.07-.22.07h-.07l-.29.43v.07h.07l.29-.43c.22-.07.36-.07.58,0l.07-.07ZM296.59,285.56l.29.14.22-.29-.29-.07-.22.22ZM296.59,287.95c.07.22.14.36.29.43.14-.07.14-.14.07-.36h-.29l-.07-.07ZM296.59,293.79c.22.07.36.14.5.14.14-.07.14-.29-.07-.43l-.43.29ZM296.81,297.84l-.07.36.36.07.07-.43h-.36ZM297.24,296.9l.14.29.94-.72-.36-.07c0,.43,0,.51-.72.51ZM298.4,299.28l-.07-.07c-.14.07-.29.22-.36.36h-.07l.07.07c.07-.14.14-.29.36-.36h.07ZM298.68,282.53h-.14v.22h.14v-.22Z"/>
    <path class="st1" d="M345.91,270.18c0,1.88-.43,3.97-.94,5.78-.14.72-.65,1.08-1.37,1.08h-10.04c-.87,0-1.44-.65-1.44-1.44,0-.14,0-.36.07-.5.22-.72.72-2.67,1.08-4.12.22-1.16.43-2.24.43-3.18,0-.5-.07-.87-.22-1.23-.36-.58-.79-.87-1.37-.87-5.2,0-8.66,12.06-8.66,19.64,0,3.32.43,9.24,4.04,9.89,1.73.22,3.47-.5,5.05-2.09.36-.29.65-.72,1.01-1.16.29-.43.58-.87.87-1.23.94-1.37,1.88-2.89,2.89-4.62.29-.43.79-.65,1.23-.65.36,0,.79.14,1.08.43l4.33,4.55c.29.29.36.65.36.94s0,.5-.14.72c-1.52,2.82-3.39,6.07-5.7,8.3-3.25,3.25-6.86,5.13-10.76,5.56l-.94,1.8h.36c3.32,0,6.35,1.73,6.35,5.42,0,4.55-4.84,6.93-9.75,6.93-3.47,0-6.93-1.16-8.81-3.61.36-1.16,1.08-2.74,2.46-4.19,1.8,1.59,4.33,3.18,7.22,2.74,1.73-.29,1.88-2.89,0-2.89-.94,0-1.59.29-1.95.65-1.08-.29-2.38-.65-3.47-1.59.79-2.02,1.81-4.12,2.6-5.71l-.79-.22c-6.86-1.88-11.34-9.89-11.34-20,0-11.19,4.19-18.85,9.24-24.33,3.39-3.83,7.8-5.42,12.71-5.42.79,0,1.59.07,2.38.14,4.26.43,7.94,2.38,10.18,6.21,1.37,2.38,1.95,5.13,1.73,8.23ZM310.74,283.47h-.51v.22c-.07.14-.07.22-.07.22,0,.14,0,.22.07.29l.14.22c.22-.14.36-.29.36-.36v-.58ZM312.55,292.64l-.22-.14h-.5l-.36.14v.29c.07,0,.14.07.14.07,0,0,.14,0,.22.07q.07-.07.22-.07c.14-.14.43-.29.5-.36ZM314.57,275.82h-.14l-.07-.07c-.29.07-.51.22-.51.36l.29.14c.29-.14.43-.29.43-.43ZM314.57,274.01h-.36v.14h.36v-.14ZM316.23,278.63c-.07,0-.14-.07-.29-.14s-.29-.07-.43-.07h-.43l.07.14c0,.14.07.22.07.22.29,0,.65.07,1.01.22v-.36ZM315.22,273.94c0,.14.29.36.36.36,0-.14-.07-.22-.36-.36ZM315.22,277.19h.36l.07-.07c.07,0,.07-.07.07-.14q-.07-.07-.07-.14h-.43v.36ZM315.51,271.48c.14.14.29.14.36.14h.36l-.72-.14ZM316.23,272.86h-.51c-.07.36.07.58.43.72.22-.14.29-.22.29-.36s0-.22-.07-.22q-.14-.07-.14-.14ZM316.16,279.14c-.14,0-.22.14-.22.29,0,.07.07.14.07.14q.07,0,.14.14v-.58ZM316.52,275.96h.22v-.43c-.22,0-.29-.07-.29-.14-.07.14-.14.29-.14.36-.07.14-.14.22-.14.29.07,0,.22,0,.36-.07ZM318.61,274.08c-.36-.29-1.01-.79-1.23-.79h-.36c.14.07.22.22.22.36s0,.22-.07.22h-.14l-.07-.07h-.14c-.07,0-.14.07-.14.07-.14.07-.14.14-.14.14,0,0,.07.07.14.07,0,.14.07.14.07.14.07,0,.29,0,.58-.14.22-.14.36-.22.51-.22.07,0,.14.07.29.14,0,.07.14.07.22.07h.29ZM316.66,270.91c.14.14.29.22.43.22l.14-.22c-.14-.14-.36-.29-.58-.29v.29ZM317.1,276.25h-.36l-.07.29h.36l.07-.29ZM316.74,271.48v.29c.36,0,.79.07.94.14.14-.07.22-.22.22-.43h-1.15ZM317.67,293.43h-.14v.58h.14v-.58ZM318.32,316.76l-.22-.43-.43.22.29.43.36-.22ZM318.54,274.66l-.58-.07v.14l.58.07v-.14ZM319.55,270.91c-.07-.14-.14-.29-.14-.43,0-.29-.14-.65-.58-.87-.14-.07-.29-.22-.22-.43-.29.22-.43.36-.43.51,0,.07.14.14.36.22.14.07.36.07.51.07-.07.22-.22.36-.36.51-.14.22-.22.36-.22.43,0,.14.07.29.14.29h.07c0-.07.07-.07.14-.07.14,0,.22,0,.29.07,0-.07,0,0,.14.14q0-.14.14-.22s0-.07.14-.22ZM318.9,274.23c-.07.14-.22.43-.22.58s.07.29.14.43h.22c.07-.22.07-.58-.14-1.01ZM318.97,280.08c0-.22,0-.36-.07-.5-.14.14-.22.36-.22.58,0,.14,0,.29.14.43.07.22.07.36.07.43.07-.29.07-.58.07-.94ZM319.26,271.92h-.36v.14h.36v-.14ZM319.7,316.83c-.14,0-.36,0-.72.22l.29.43c.29-.36.43-.58.43-.65ZM320.49,269.89c0-.07-.07-.14-.14-.22l-.22-.14c-.07,0-.07.07-.14.07,0,.14-.07.14-.14.14l.65.14ZM321.36,317.91l-.22-.36-.65.36.22.36.65-.36ZM320.92,269.82l-.07-.07c0,.07.07.07.07.07ZM321.14,269.1h-.22v.22h.22v-.22ZM321.43,309.9c-.14-.07-.22-.14-.22-.22-.07-.07-.22.07-.29.22v.14l.43.14.07-.22c-.07,0,0-.07,0-.07ZM323.67,267.44l-.07-.07s-.07,0-.14-.07c-.07,0-.14.07-.14.14h.36ZM325.33,272.13h-.14v.22h.14v-.22ZM326.99,257.62s-.07,0-.07-.14v-.14h-1.08c.22,0,.43.07.5.14.07,0,.14.07.14.14v.07s.07.07.22.07.22,0,.22-.07l.07-.07ZM326.99,316.54l.29.43.29-.29v-.14l.07-.07c-.29-.07-.43-.14-.43-.07-.22,0-.22.07-.22.14ZM327.64,312.71l.79.22.58.22c-.22-.43-.51-.51-.65-.79-.29-.14-.5-.22-.65-.36l-.07.72ZM328.5,260.72l-.22-.14-.07.14.14.07.14-.07ZM328.29,257.62h.36l.29-.29h-.65v.29ZM329.08,258.92c-.07-.07-.14-.14-.14-.22h-.29c-.14.14-.22.22-.29.22.07,0,.14.07.36.07.14.07.29.07.36.07v-.14ZM329.16,314.16l-.72-.22-.07.36.65.22.14-.36ZM328.94,315.17l-.36-.14-.22.51.43.14.14-.51ZM328.43,312.21l.58-.07v-.29l-.51.07-.07.29ZM329.23,258.49l.29-.22c-.22-.07-.29-.22-.29-.36h-.43c-.07,0-.14.07-.14.14,0,.14.14.22.29.29s.22.14.29.14ZM330.31,264.05h-.43c-.14.22-.22.36-.22.43-.07.14-.14.29-.22.36h.43c.07-.14.22-.29.22-.36l.22-.43ZM332.12,303.76l.22.07.43-.87-.22-.14-.43.94ZM334.14,263.04h-.58v.94l.58-.07v-.87ZM333.99,258.78c0-.14.07-.22.07-.22.07-.07.07-.22,0-.29-.07,0-.22.07-.43.29.29.07.36.14.36.22ZM335.36,257.91c.22-.07.43-.07.72-.07.22-.14.14-.14.29-.36.07,0,.29-.07.43-.14s.29-.14.43-.29c-.07-.07-.22-.14-.43-.14s-.29,0-.36-.07c-.07.07-.14.14-.07.22.07.14.07.22,0,.29-.22.07-.36.14-.43.29-.14.14-.29.14-.36.14-.14,0-.29,0-.36.07-.22,0-.29-.07-.36-.07-.07-.07-.07-.14,0-.22,0-.07-.07-.14-.14-.22-.36.07-.58.22-.72.36.22.07.29.22.22.36l.94.43v-.14q0-.07.07-.07c-.14-.22-.07-.29.14-.36ZM334.35,256.9c.22.14.43.29.58.29s.29-.07.5-.14c.29-.07.51-.07.65-.07l-.29-.22c-.22-.07-.43-.07-.58-.07-.14-.07-.36-.07-.58-.14-.22.14-.29.29-.29.36ZM334.57,262.1q-.14,0-.14.07v.22c.07-.07.14-.14.14-.29ZM337.1,267.58l.07.07c-.22.36-.29.29-.58.36-.07.07-.14.07-.29.07-.07,0-.14,0-.29.07v.29c.22.14.36.14.43.14.14.07.29.07.36.07l.51-.14.43-.29c.07-.22-.65-.65-.65-.65ZM336.88,265.56l-.07.79.29.22c.07-.14.14-.29.22-.36.14-.14.14-.29.14-.36,0-.14-.14-.29-.58-.29ZM338.18,257.76h-.36v.14h.36v-.14ZM338.69,287.51c0-.07.07-.14.14-.22s.07-.14.07-.22l-.36-.22q-.07.07-.07,0v.14c-.07.14,0,.29.22.51ZM339.12,268.31c.07,0,.22-.07.36-.14.29-.07.43-.14.36-.14l.29-.07v-.36c-.14-.14-.22-.14-.22-.22-.07,0-.14-.07-.29-.14s-.29-.14-.43-.14c-.29,0-.65.58-.65.65,0,.29.07.58.58.58ZM338.69,266.5l.79.14v-.14l.07-.07q0-.07.07-.07v-.14h-.79l-.14.29ZM340.35,268.74h-.22c-.22.07-.36.14-.43.14-.14,0-.29-.07-.43-.22l-.07-.07h-.22c-.22.29-.29.51-.29.72.07.07.22.14.43.22s.43.14.51.22l.29-.22c0-.22-.07-.29-.22-.36.07,0,.07-.07.14-.07v-.07h.22c.07-.14.14-.14.14-.14l.14-.14ZM340.71,272.57l-.14-.07h-.07l.07.14.14-.07Z"/>
    <path class="st1" d="M383.16,280.29v.22h.07c-.14,2.6-.65,5.78-1.01,7.65l-.22-.22c-.14-.14-.22-.22-.22-.29h-.65c-.07.07-.07.22-.07.22v.07c.14,0,.29,0,.36.07h.43c0,.14.14.22.36.29l-.51,2.09h-.43v.07h.43c-.07.43-.14.65-.36,1.15-.07.22-.29,0-.29.14l.22.14c-.72,2.02-1.52,3.9-2.45,5.49h-.07l-.43.36.14.22-1.01,1.37c-3.32,4.48-7.73,6.71-13.14,6.71-4.98,0-8.81-1.95-11.62-5.85v-.14h-.14c-.14-.22-.29-.36-.36-.58-1.37-2.09-2.38-4.55-2.96-7.37l.07-.14c0-.07,0-.14.07-.22,0-.07-.07-.14-.22-.22v.14c-.29-1.52-.43-3.1-.5-4.69.29-.5.36-.94.5-2.17l.14-.29v-.43c-.07-.22-.07-.36-.07-.51v-.5c-.07-.07-.07-.22-.07-.29v-1.44c0-.14,0-.36.07-.5,0-.22-.07-.51-.14-.65,0-.07-.07-.14-.14-.22.07-.65.14-1.44.29-2.17,1.16-7.44,3.68-15.74,10.11-20.29,2.46-1.66,5.13-2.53,8.09-2.53,6.35,0,11.05,3.32,13.29,7.87,2.17,4.62,3.1,9.89,2.53,17.4h-.07ZM349.52,287.58h-.29c-.07,0-.14.07-.14.14s.07.14.14.22.14.07.29.14c0-.07,0-.14.07-.22.07-.14,0-.22-.07-.29ZM349.81,285.35h-.14v1.8h.14v-1.8ZM350.24,277.33c0-.14,0-.22-.07-.36-.22.22-.36.36-.36.51,0,.07.07.07.14.14.14,0,.22.07.22.07,0-.07,0-.22.07-.36ZM350.02,278.2h-.14v.29h.14v-.29ZM351.68,287.44h-.36v.07l.36.07v-.14ZM351.9,290.47c.07,0,.14,0,.22.14,0,.14.07.22,0,.29,0,.14,0,.29.07.29.07-.07.22-.07.29-.07v-.22c-.22-.14-.36-.29-.29-.43.07-.14,0-.29-.22-.36q-.07,0-.07.07c-.07.07-.07.14-.07.14,0,.07,0,.14.07.14ZM351.9,289.46s.07.14.29.29v-.58l-.22.14c-.07,0-.07.07-.07.14ZM351.9,291.92c0,.14.14.72.43,1.01l-.22.14c-.07,0-.07.07-.07.07l.14.07c.07-.07.22-.07.29-.07v-.87c.07-.22,0-.51,0-.79h-.29q-.07.07-.07.14c-.07,0-.07.07-.14.07-.07.07-.07.14-.07.22ZM352.84,298.13c0-.07,0-.14-.07-.29-.07,0-.07-.14-.07-.22h-.22c-.07.07-.14,0-.22-.07.07-.07.22-.14.36-.14.07-.36.14-.87.14-1.52-.36-.14-.51-.22-.51-.29v-.36c0-.14,0-.22-.07-.29l-.07,1.3c.14,0,.29.07.36.14-.58.36-.5.29-.5.72,0,.07,0,.14.07.36.07.14.14.36.14.58.07,0,.22.07.36.14-.14.07-.22.14-.29.14q-.07.07-.07.14l.07.07s0,.07.07.07c-.07,0,.51-.36.51-.5ZM352.98,287.95h-.14c0-.07-.14-.07-.29-.07-.43,0-.58.58-.58.72s.07.29.14.43h.65l.22-.22v-.87ZM352.19,294.16v.29c.07-.07.07-.14.14-.14.07-.07.14-.07.14-.14h-.29ZM352.77,298.78l-.14-.07h-.29c0,.07-.07.07-.14.07v.43h.22c0-.07.07-.07.14-.07s.14-.07.22-.07v-.29ZM357.31,283.97l-.14-.22c-.07.14,0,.22.14.36.07-.07.07-.14,0-.14ZM358.18,286.65c-.07,0-.14.22,0,.22v-.22ZM360.78,297.41c0-.29-.43-.51-.5-.51.07-.07.07-.22.07-.51h-.36c-.79.29-1.59.58-1.52,1.3.22,0,.43.14.58.29.07,0,.14.07.22.14.14.14.36.22.43.22.58,0,1.08-.51,1.08-.94ZM370.96,282.75c.07,0,.22,0,.22-.07s.07-.22.14-.29c.14.07-.22-.14-.43-.14.29-3.32.43-6.28.36-9.46-.07-1.59-.22-3.03-.51-4.4h.07l.07.07h.43c0-.07,0-.22-.14-.36-.22.07-.36.14-.43.29-.14-.72-.36-1.3-.58-1.73-.58-1.37-1.52-1.95-2.82-1.66-2.31.65-3.61,4.48-4.12,6.43-1.44,5.05-1.8,10.76-1.8,15.96,0,1.95.22,5.7,2.09,6.86.29.14.58.29,1.01.29,2.53.43,3.75-1.59,4.48-3.75.87-2.53,1.44-5.2,1.73-8.01q.07.07.14.07c.07,0,.07-.07.07-.07ZM362.15,300.87c-.07,0-.07-.07-.07-.14l-.29.14c.07.07.14.14.36.14v-.14ZM361.86,258.41c.29,0,.43,0,.51.07.07,0,.07.07.07.07,0,.07,0,.14.07.14,0,0,.07.07.22.07.07,0,.22-.07.29-.14,0,0,0-.07-.07-.07,0-.07-.07-.14-.07-.14h-1.01ZM363.31,268.09h-.51l.14.36c.14,0,.29-.07.43-.14,0-.07-.07-.22-.07-.22ZM364.25,258.7h.36l.36-.29h-.72v.29ZM365.26,258.92h-.43v.07h-.07v.07c.07.22.29.36.5.36.14,0,.22-.07.29-.14-.22,0-.29-.14-.29-.36ZM368.72,299.57l-.14-.14h-.5c-.36,0-.79.22-1.3.58l1.3.14c.07-.07.22-.14.29-.14s.22,0,.36-.14v-.29ZM368,302.17l-.22-.14h-.22c-.22,0-.43.14-.5.29.22.14.43.29.65.29.07,0,.14-.07.29-.14v-.29ZM368.07,300.65c-.07,0-.14,0-.14-.07h-.22c-.29.07-.36.22-.36.29,0,.14,0,.22.07.22q0,.07.07,0c.07,0,.14,0,.29-.07h.29v-.36ZM369.08,258.7h.51v-.14h-.51v.14ZM370.02,258.78c.22.07.36.14.36.36.07.22.22.29.65.29.14,0,.22-.07.14-.14-.14-.07-.07-.22.14-.36.43,0,.65-.07.72-.07.14,0,.22-.07.22-.14,0,0,.07-.07.07-.22.14-.07.29-.14.43-.14s.29-.07.43-.29c0-.07-.14-.07-.29-.07-.22,0-.36-.07-.43-.14-.07.07-.07.14-.07.29,0,.07,0,.14-.07.22-.07,0-.14.07-.29.22-.14.14-.29.22-.43.22h-.22q-.07.07-.14.07c-.36.07-.51-.14-.43-.29v-.22c-.36.07-.72.29-.79.43ZM370.46,257.91c.14.22.29.29.43.29s.43-.07.65-.07l.5-.14-.14-.14v-.07c-.14,0-.22,0-.29-.07h-.29c-.22,0-.43-.07-.65-.14-.14.14-.22.22-.22.36ZM371.18,287.8c.14-.14.79-.29,1.3-.29.14,0,.22,0,.29.07h.29c.22,0,.72-.14,1.01-.29v-.22l-.07-.07h-.79c-.07,0-.29,0-.58-.07l-.29-.07c-.14,0-.29,0-.43.14-.14.07-.29.14-.43.29-.14-.14-.22-.14-.29-.14v-.29c-.14.29-.14.58,0,.94ZM371.25,286.14h-.07c-.07,0-.07.07-.07.14.07,0,.07.07.07.14,0-.07.14-.14.29-.22-.14,0-.22-.07-.22-.07ZM371.47,289.82s-.07-.07-.14-.07-.14-.07-.14-.14q-.07.14-.07.22c.07,0,.22.07.36,0ZM371.47,285.13c.07.14.14.29.29.43s.36.22.58.22c.29,0,.43-.07.58-.22v-.29c-.36,0-.72-.07-.94-.14-.36,0-.65-.07-.79-.14v.36s.14-.07.29-.22ZM371.47,279.21c-.14.29-.14.43,0,.51.07-.07.14-.07.14-.07.07,0,.14-.07.14-.07,0-.14-.22-.36-.29-.36ZM371.47,276.9v.14c.14,0,.29.07.43.07.14.07.29.07.43.07,0,0,.07,0,.14-.07v-.14c-.14-.14-.36-.22-.58-.22s-.43.07-.43.14ZM371.47,278.2v.22c0,.07.07.07.14.07,0,0,.07,0,.14.14,0-.07.14-.14.36-.22l.36-.22-.14-.43c-.29.14-.65.29-.87.43ZM374.28,297.33c-.22-.22-.58-.43-.94-.58-.29-.07-.58-.14-.72-.22s-.14-.14-.14-.29l-.14-.14-.14-.07h-.14c-.29,0-.43.07-.43.29s-.07.36-.14.51c.07.07.14.14.22.14.07.14.14.14.22.14.07.14.14.14.14.29v.14c.36.22,1.01.43,1.08.43.14,0,1.08-.51,1.16-.65ZM371.9,281.88c.07,0,.14.07.29.07s.79-.22,1.44-.43l-.87-.43c-.14-.07-.29-.14-.36-.22l-.36-.22c-.22.14-.29.14-.29.14,0,.14-.07.29-.14.43v.58s.14,0,.29.07ZM371.9,283.76l-.22.22c.36-.07.79-.14,1.08-.29h-.14c0-.07-.14-.07-.29-.07s-.29.07-.43.14ZM372.91,272.57l.29-.14v-.65c-.22-.14-.43-.22-.72-.22-.07,0-.07.07-.07.14q0,.14-.07.22l-.29.22c-.14.07-.29.14-.29.22s.14.22.29.29h.58s.14-.07.29-.07ZM372.33,301.3h-.29c-.14,0-.29.07-.29.29,0,.07.07.14.14.14l.14.14c.07-.07.22-.07.43-.07.14-.22.07-.43-.14-.51ZM373.49,282.39c0-.14,0-.22-.07-.22,0,0-.07-.07-.14-.07-.36,0-.79-.07-1.08.36.14.22.29.29.58.29.14,0,.72-.14.72-.36ZM372.91,300.15l.29-.22c0-.07-.14-.36-.14-.43-.07.07-.14.07-.36.22-.14,0-.22.07-.22.14s.07.14.14.14c.14,0,.22.07.29.14ZM373.05,288.74v-.14h-.43v.14h.43ZM372.77,293.29c-.07,0-.14-.07-.14-.07v.36c.14,0,.29-.14.29-.29h-.14ZM373.78,280.22c-.29-.14-.36-.36-.36-.58.07-.14,0-.29-.22-.51,0,0,0,.07-.14.07-.07.07-.22.07-.22.07.07.07.07.14,0,.22-.07.14-.07.22-.07.29,0,0,.07.14.22.29.14.22.36.36.58.43.14-.14.22-.22.22-.29ZM373.05,289.32c.22.14.43.14.65,0l-.14-.29c-.07.07-.14.14-.29.22-.14,0-.22.07-.22.07ZM373.27,301.23l-.22.14.22.22c.07-.14.07-.29,0-.36ZM373.49,276.97c-.07,0-.14,0-.29.07.07.07.14.14.22.14h.22v-.07l.07-.07c0-.07-.07-.07-.22-.07ZM373.42,284.77l.14.43c.14-.07.22-.22.22-.29-.07-.07-.22-.14-.36-.14ZM373.85,258.92h.36v-.14h-.36v.14ZM373.85,273.22h.14c.07-.07.14-.07.22-.07,0,0,0-.07-.14-.14l-.22-.14v.36ZM373.92,283.04v.36l.5-.07c-.14-.14-.43-.29-.5-.29ZM374.35,277.98h.22v-.36h-.22v.36ZM376.67,291.77v-.58c-.07-.07-.29-.14-.36-.14-.07.07-.07.14-.14.14s-.07.07-.14.14-.14.14-.29.14l-.43-.14v-.22c.29-.07.5-.14.5-.22v-.29h-.43c-.29,0-.58.14-.94.22v.51c0,.22.07.29.07.43h.43c.36,0,.72-.14,1.08-.29.22.22.36.29.65.29ZM375.15,292.35c-.29-.22-.58-.36-.72-.43v.29l.22.14h.51ZM374.72,278.49h.51c0-.14,0-.29-.14-.58,0,.14,0,.22-.14.29-.14.14-.22.22-.22.29ZM374.72,279.93c.14.14.22.07.14-.07,0-.07-.07-.14-.07-.22,0,0-.07.14-.07.22v.07ZM376.81,290.47c.07,0,.07-.07.07-.22,0-.07-.07-.22-.22-.29-.14-.07-.22-.14-.22-.22s.07-.22.22-.36c.14-.14.22-.29.22-.36,0-.14-.36-.79-.36-.72h-.79l.14.14v.43c0,.14-.07.36-.14.5-.14-.14-.22-.29-.22-.43,0-.07-.14-.14-.43-.22-.22.29-.29.58-.22.87.22.07.36.07.65.07.22,0,.43.07.65.14-.14.22-.22.43-.22.72.29.07.51.07.79,0,0-.07.07-.07.07-.07ZM375.58,282.89h-.43c-.07.22,0,.36.22.51h.36c0-.14,0-.29-.07-.29,0-.07-.07-.14-.07-.22ZM375.22,287.3c0,.14.07.14.07.14.07,0,.07.07.07.14h.65c.07.07.22.07.29.07.14-.07.22-.22.22-.51-.29-.07-.51-.14-.65-.14-.29,0-.65-.07-.65.29ZM375.73,296.39c.07,0,.22,0,.29-.07h.22l-.14-.36c-.58.14-.72.22-.87.29.14.14.29.14.5.14ZM376.52,296.68h-.07c-.07,0-.22,0-.22-.07,0,0-.07-.07-.22-.07s-.29.07-.36.07c0,.07-.07.07-.14.07h-.14c0,.07.14.14.22.22l.14.22v.22c-.07,0-.07.07-.07.14h.58c.22-.14.29-.36.29-.58v-.22ZM375.65,286.72c.29-.07.36-.14.36-.29-.07-.14-.22-.14-.51-.14l.14.43ZM375.8,285.42s-.07.07-.07.14c0,.14.07.22.29.29.14-.14.22-.22.36-.29-.14-.14-.36-.29-.51-.29q0,.14-.07.14ZM375.87,284.12c0,.14.07.22.14.22h.22c.07-.14.14-.29.07-.43-.07-.07.07-.22.43-.36q-.07,0-.07-.07h-.07c-.07,0-.07-.07-.07-.07-.43.22-.65.72-.65.72ZM376.52,284.41v.29c.29.07.36.14.36.14l.14-.14v-.07c-.07-.14-.22-.22-.5-.22ZM377.1,295.31h-.14l-.14.22.14.07.14-.29ZM377.24,281.95h.14l.14-.14-.14-.07-.14.22ZM377.32,280.15c.07,0,.22-.07.58-.07.22,0,.36.07.43.29l-.43.43c.36.14.65.22,1.01.14-.29-.22-.36-.36-.14-.43.14-.14.22-.22.36-.29-.72-.22-1.16-.36-1.52-.43l-.14.14c-.07.14-.14.14-.14.22ZM377.89,283.69v-.14h-.58v.14h.58ZM377.32,284.48c0,.14.07.22.14.22.14-.07.22-.14.22-.22h-.36ZM377.53,285.92v-.22h-.22v.22h.22ZM378.18,287.51c.14,0,.29.07.36.14.07-.14.14-.29.14-.36-.07-.14-.07-.22-.07-.29s.07-.14.14-.14h-.14q-.07,0-.07-.07c.07.29-.07.43-.43.36-.22,0-.43.07-.65.22,0,0,.07,0,.22.07.14.07.29.07.51.07ZM377.46,289.61l.14.43c.22-.07.29-.14.29-.29-.07,0-.14,0-.22-.07,0,0-.14-.07-.22-.07ZM377.46,290.47s.07.07.14.07l.22.14c.14-.22.29-.29.43-.22.14.14.36.14.65,0-.07-.07-.07-.14-.07-.14l-.07-.07c-.58.14-.94.22-1.3.22ZM377.89,288.45l-.22-.43c0-.07,0-.22-.14-.29,0,.43,0,.72.07.79.07-.07.14-.07.22-.07h.07ZM377.75,289.46v-.36h-.22v.36h.22ZM378.18,295.09c-.07-.07-.29-.07-.58-.07.07.07.07.14.07.14l.14.22c.07,0,.14,0,.29-.07.07-.14.07-.22.07-.22ZM379.34,286.14c.07-.22.22-.29.22-.36-.36.22-.65.29-.79.29-.07,0-.22-.07-.36-.14-.14-.07-.29-.14-.36-.22,0,.07-.07.07-.14.14-.07.07-.14.07-.22.07v.36c.22,0,.43,0,.72.07.14.07.36.07.5.07.22,0,.36-.07.43-.29ZM378.54,294.73c-.07-.07-.22-.07-.43-.07h-.43l.36.22c.22.07.29.14.36.22,0-.14.07-.29.14-.36ZM377.82,279.28c.22,0,.36.07.51.29.22-.22.22-.36,0-.51-.07.07-.14.14-.29.14s-.22.07-.22.07ZM378.04,288.09h.72c.07,0,.14-.07.14-.07,0-.07.07-.14.14-.14-.22,0-.43,0-.5-.07h-.43l-.07.29ZM378.11,290.91v.14h.36v-.14h-.36ZM378.9,283.69c.07-.07.07-.14,0-.29h-.5l-.07.29h.58ZM380.78,289.32c-.14,0-.29-.14-.43-.29s-.29-.22-.36-.22q-.14,0-.14.07h-.07c-.22,0-.51-.07-.87-.29.14,0,.36-.07.65-.14.07,0,.29-.07.43-.07,0,.14.07.29.07.36h.29c.07,0,.22,0,.22-.07l.07-.07v-.22c-.14-.07-.36-.07-.43-.22-.14,0-.29-.07-.36-.22.29-.22.5-.36.65-.36-.14-.14-.29-.29-.51-.43-.22-.07-.5-.14-.87-.07l.65.51c-.07.07-.14.14-.22.14-.14.14-.29.14-.36.22.07.22-.14.43-.72.79l-.14.22c.22.07.51.14.87.14l.87.22v.22c-.07.07-.22.07-.36.07.14,0,0,.07-.29.14.14.14.36.22.65.22l.14-.22c.14-.07.51-.36.58-.43ZM378.83,292.86c0-.07-.22-.29-.43-.29l-.07.29h.51ZM380.2,281.38h-.14c0-.07-.07-.07-.22-.07-.07,0-.14,0-.14.07h-.22c-.22,0-.36.14-.36.29.22,0,.29,0,.36-.14.07.14.14.14.07.14v.14l-1.16.51c0,.29,0,.5.07.65.07.29.29.14.36.14h.29s.14,0,.36.14c.14.07.36.22.5.36l-.22.14q-.07,0-.07-.07h-.14c-.14,0-.29,0-.43.14-.14.07-.29.14-.36.14h-.36c.14.14.22.29.22.36.07.14.07.22.22.36,0,.14.14.29.29.29.22.07.43.07.72,0-.22-.14-.22-.5-.22-.5h-.14c-.29,0-.43-.07-.43-.14v-.07l.51-.14c.22,0,.36-.07.43-.07.14-.07.29-.07.36-.22.14-.07.29-.14.36-.22-.29,0-.36-.07-.43-.22v-.29h-.14c-.07,0-.07-.07-.07-.14s0-.14.07-.22l.22-.14c-.07-.07-.14-.07-.29-.22-.14-.07-.22-.14-.22-.22,0-.22.29-.22.65-.22-.14-.07-.22-.14-.29-.22s-.14-.14-.14-.22h.36c.14.07.43.14.87.07,0-.07,0-.14.07-.22s.07-.14.07-.22c0-.22-.58-.36-.72-.36,0,0,0,.14-.14.36-.07.14-.22.22-.36.22ZM378.69,289.75c.14,0,.22,0,.36-.07,0-.07-.07-.07-.22-.07h-.43c.07,0,.22.07.29.14ZM379.12,295.67h-.36v.22h.36v-.22ZM380.56,291.99c-.14,0-.29-.07-.36-.07-.14,0-.29,0-.36-.07,0-.14.07-.36.22-.5-.22.07-.36.14-.5.14-.29,0-.43.07-.65.14v.43h.87c.36,0,.65-.07.79-.07ZM379.63,292.57c-.07,0-.14-.07-.36-.07-.07-.07-.22-.07-.36-.07l.36.36q.14-.14.22-.14c.07,0,.07-.07.14-.07ZM379.41,294.23c-.22-.14-.29-.29-.29-.43-.07,0-.14.07-.14.22,0,.07-.07.14-.07.22h.51ZM379.05,279.35q0,.14.07.22l.14.14c.07-.07.14-.22.14-.36h-.36ZM379.26,280.94c0,.14.07.22.22.29h.36c.14-.14.14-.22.14-.22.14,0,.14-.07.14-.22-.36-.07-.65,0-.87.14ZM381.58,285.13c-.29,0-.43-.07-.5-.22.29-.14.36-.29.22-.43-.07-.07-.14-.22-.14-.36,0,.22-.14.36-.43.36h-.43c-.22,0-.36,0-.43.07.22,0,.43,0,.58.07.07.07.14.14.29.22.22.22.36.43.87.29ZM380.64,286.86c-.07,0-.07-.07-.07-.07l-.07-.07-.22.14h.36ZM380.49,279.79l.51.07v-.07l-.51-.14v.14ZM381.07,286.29h-.51v.14h.51v-.14ZM381.79,283.54c-.07-.14-.14-.29-.14-.36s-.07-.14-.29-.22c-.22.14-.29.22-.36.22-.07.07-.14.14-.14.22l.14.07v.07h.36c.22.07.36.07.43,0ZM381.58,282.31l-.58-.22c.07.36.29.5.65.5.14,0,.22,0,.22-.07h.14c-.07-.07-.22-.14-.43-.22ZM381.07,289.25v.22h.14v-.22h-.14ZM381.72,286.21h-.43c-.07.07-.07.14,0,.22,0,0,.07.07.07.14,0,0,0-.07.07-.07q0-.07.07-.14l.22-.14ZM381.29,280.36c0,.14.07.29.14.29l.43-.07q0-.07-.07-.14v-.14c-.07,0-.14,0-.29.07h-.22ZM381.72,279.93h1.01v-.14h-1.01v.14ZM382.08,282.1s.07-.07.07-.14l.07-.07-.51-.07c0,.14.07.22.36.29ZM382.8,284.48c-.51-.07-.65-.14-.51-.14-.29,0-.79-.14-.22.22.07.07.22.14.43.14.07,0,.14-.07.29-.22ZM382.23,280.73h.43c-.22-.22-.36-.22-.43,0ZM382.37,284.84s-.07.07-.07.14q-.07.07-.07.14h.14l.07-.07c.22,0,0-.22-.07-.22ZM383.38,277.4l-.72-.14-.14.14c0,.07-.07.07-.07.14.14-.07.36-.07.58-.07.14-.07.29-.07.36-.07ZM382.8,282.24h-.36v.14h.36v-.14Z"/>
    <path class="st1" d="M422.95,257.98c-.72,7.44-1.23,14.87-1.37,22.38-.07,1.08-.07,2.17-.07,3.25s-.07,2.17-.07,3.25h-.36c-.22,0-.43,0-.5.07-.07.07-.43.07-.94.07l.14.14-.14.14h.14c.07,0,.14,0,.29-.07.14.07.36.07.72.07h.51c.07,0,.14,0,.14.07v.14h-.36l.14.07-.14.14h.36c-.07,5.49-.07,10.97-.07,16.39,0,1.01-.51,1.52-1.44,1.52l-9.53.22c-.72,0-1.16-.29-1.44-.94l-1.08-3.03h.07v-.07h-.14l-5.7-15.16c.29-.14.58-.29.87-.51l-.36.07-.14-.07c-.07,0-.22.07-.36.07-.07,0-.14.07-.14.07l-2.74-7.22-.5,25.56c-.07.94-.58,1.44-1.52,1.44h-9.75c-.87,0-1.44-.65-1.44-1.52.14-3.54.36-7.15.58-10.69.36-7.15.65-13.36,1.3-21.01l1.3-15.09c.07-.87.5-1.3,1.44-1.37l6.93-.22c3.25-.22,5.42,1.95,6.64,4.77l.07.07,5.99,15.67,1.16-19.13c0-.94.5-1.37,1.52-1.37l8.59.22c.87,0,1.44.79,1.44,1.59ZM393.63,286.21l-.14-.43c-.43.22-.58.36-.58.58.29,0,.58-.07.72-.14ZM393.78,270.26h.43v-.22h-.43v.22ZM393.92,287.3h1.44c-.65-.36-.87-.43-.65-.36l-.22-.14c-.29-.07-.5-.07-.72-.14l.14.65ZM394.5,283.25h-.58v.5h.58v-.5ZM394.93,286.07l-.43.22v.29l.58-.22-.14-.29ZM395.08,290.91c-.29,0-.43,0-.43.07-.14.07-.14.14-.14.22l.43.29c.07-.14.14-.29.14-.36v-.22ZM395.08,295.67h-.43v.51h.43v-.51ZM394.79,266.72l.43.22c0-.22-.07-.36-.14-.43-.14,0-.22.07-.29.22ZM395.8,280.22c0-.14-.07-.29-.14-.43v-.14c-.29,0-.58.07-.72.22v.36h.87ZM395.37,281.45c.36-.22.22-.43-.43-.58v.43l.43.14ZM395.08,283.04h.72l-.36-.51c-.22.14-.36.29-.36.51ZM395.08,288.6h.72v-.36h-.72v.36ZM395.65,270.11h-.43v.29c.07.07.14.14.14.22.22-.14.29-.29.29-.51ZM395.8,275.09h-.58v.29h.58v-.29ZM395.94,296.61c-.14-.07-.36-.14-.72-.14v.51c.43-.14.65-.29.72-.36ZM395.94,289.25h-.43v.5h.43v-.5ZM395.8,281.52h.51v-.29h-.51v.29ZM397.68,270.83l.07-.14h-1.3v-.22h-.58v.29h.58v-.07l.14.14c.14.07.22.14.29.14,0,.07.07.07.22.07s.36-.07.58-.22ZM396.81,297.98h-.72v.43h.72v-.43ZM396.95,271.41c-.22-.14-.43-.14-.65-.14.14.22.36.29.65.14ZM397.32,278.7h-.72c.36.5.65.36.72,0ZM397.68,283.18h-.43v.58h.43v-.58ZM397.75,270.98l.43.14.14-.22-.58-.14v.22ZM397.89,278.34h.51v-.43h-.51v.43ZM398.76,279.5h-.72v.29h.72v-.29ZM398.62,292.06h-.51v.43h.51v-.43ZM398.25,270.11c0,.22.07.43.14.58.14-.07.22-.07.22-.07,0,0,.07-.07.14-.07-.07-.07-.22-.29-.51-.43ZM398.33,275.74v.29h.72v-.29h-.72ZM399.26,270.98c-.22-.14-.36-.22-.5-.22-.07.07-.14.14-.07.22v.22c.22,0,.43-.07.58-.22ZM398.83,277.62c.07.29.14.58.36.72.29-.29.22-.51-.36-.72ZM400.64,278.92h-1.01c.43.14.79.14,1.01,0ZM402.01,282.46c-.07,0-.07-.07-.07-.07-.14,0-.22-.07-.29-.14-.07,0-.14.14-.14.29v.14h.51v-.22ZM403.02,278.92h.36v-.43h-.36v.43ZM404.17,286.14c-.14-.14-.29-.29-.51-.36-.07.14-.22.22-.5.29.07.07.14.07.22.07s.07.07.14.07c.22.07.29.14.29.14,0,0,.07,0,.22-.07l.14-.14ZM403.67,280.87h.51v-.22h-.51v.22ZM403.74,278.34l.14.22.94-.65-.36-.14c0,.43,0,.58-.72.58ZM404.32,282.17l.5-.07c-.07-.22-.14-.51-.14-.87-.07.14-.14.14-.14.22l-.22.22c-.14.07-.22.07-.22.07,0,0,0,.07-.07.14.07.07.14.14.14.22l.14.07ZM404.32,278.92l-.14-.14c0,.07-.07.14-.07.22s.07.14.14.29h.07v-.22c.07,0,0-.07,0-.14ZM404.39,285.71l.36.14.29-.43-.43-.07-.22.36ZM404.68,290.04c.07,0,.22,0,.43-.07l-.29-.22c-.22,0-.36.22-.14.29ZM404.61,279.93v.29h.29v-.29h-.29ZM405.11,288.02c-.07-.29-.22-.43-.43-.43-.07.07-.07.14,0,.22,0,0,0,.07.07.07s.22.07.36.14ZM405.55,291.84c-.14-.22-.36-.29-.65-.29v.29c.14.07.36.07.65,0ZM404.97,284.41c0,.22.22.43.65.43v-.43h-.65ZM405.76,285.35l-.79.22.07.22.87-.22-.14-.22ZM405.04,288.52s.07,0,.14-.07h.07c.07,0,.14-.07.22-.14h.07l.07-.07c-.29-.07-.43-.14-.58-.14v.43ZM405.55,290.83l.5-.14-.14-.22-.5.07.14.29ZM405.83,289.1l-.14.22.36.14.14-.29-.36-.07ZM406.77,294.3l-.72.22c0,.14.14.14.29.14,0,.07.07.07.14.07,0,0,.07,0,.22.07-.07-.07-.07-.29.07-.51ZM406.27,292.64h.29v-.36h-.29v.36ZM406.77,293.79h-.51v.36h.51v-.36ZM406.34,284.99c0,.29.22.43.58.51.07-.07.14-.07.22-.07l.22-.07c-.43-.22-.79-.36-1.01-.36ZM406.92,286l.58-.07-.07-.29-.58.14.07.22ZM408.07,292.78c-.14-.22-.14-.14-.58-.29l-.29-.07.29.5.58-.14ZM407.64,290.47h-.14c0,.14.14.29.29.5.07.14.22.29.29.36.14-.07.29-.14.43-.29s.36-.22.58-.43c-.22.07-.36.07-.43.07h-.14c-.07.07-.14.07-.14.07l-.14.07c-.07-.07-.14-.14-.14-.22s0-.14-.14-.22h-.07q-.07.07-.22.07ZM407.86,288.67h.36l-.14-.5-.22.07v.43ZM408.07,297.04v.07c.22.07.29.14.29.14l1.59-.87c-.36.14-.65.14-.79.14-.07.07-.22.14-.51.14-.29.07-.58.14-.79.29.07.07.14.07.14.07h.07ZM409.23,291.41h-.14s-.14,0-.22.07c0,0,.07-.07.07-.14h-.58c-.07.07-.14.07-.29.07.07.22.14.29.29.29l.14.14c.07-.07.14-.07.22-.22h.65l.58-.14-.14-.22-.58.14ZM409.52,300.22l-.72.14h-.14s-.14.07-.29.07c.14.14.14.36,0,.5.29,0,.51-.07.58-.22.36-.22.43-.29.29-.22,0,0,.14-.07.29-.29ZM409.52,292.71v-.22c0-.14-.14-.29-.43-.36l-.58.14v.29c.36.22.72.22,1.01.14ZM408.51,295.02l.29.65c.29-.29.14-.43-.29-.65ZM409.08,293.79l.43,1.01.29-.07-.43-1.01-.29.07ZM410.6,296.54s.07,0,.22-.14l.14-.14.14-.07-.22-.51h-.29c-.07,0-.22-.07-.36-.14,0,.14.07.29.14.43,0,0,0,.07.07.07v.14c.07.07.07.14,0,.22,0,.07-.22.14-.5.36.36-.07.58-.14.65-.22ZM410.1,291.63l.29.43.29-.14-.22-.43-.36.14ZM412.33,295.96c-.58-.29-.87-.51-.94-.72v-.36s0-.07.07-.07l-.07-.07c-.22.07-.36.14-.43.14-.07.07-.14.07-.36.14l-.14.14-.22.14c.14,0,.29.07.5.07.07,0,.22,0,.43.07.07.22.14.36.29.51.14.22.43.14.87,0ZM410.46,280.8l.07.07.14-.22h-.14l-.07.14ZM411.54,298.63l-.5-.5-.43.43c.07.07.14.07.14.07.07,0,.14.14.14.14l.65-.14ZM411.97,298.85c.14,0,.22,0,.29-.07l-.07-.07c-.07,0-.14,0-.29-.14-.14.22-.07.29.07.29ZM413.13,299.21c-.14,0-.29-.07-.43-.07,0,.07-.14.07-.22.07h-.07l-.29.43v.07h.07l.29-.43c.22-.07.36-.07.58,0l.07-.07ZM412.26,285.56l.29.14.22-.29-.29-.07-.22.22ZM412.26,287.95c.07.22.14.36.29.43.14-.07.14-.14.07-.36h-.29l-.07-.07ZM412.26,293.79c.22.07.36.14.5.14.14-.07.14-.29-.07-.43l-.43.29ZM412.48,297.84l-.07.36.36.07.07-.43h-.36ZM412.91,296.9l.14.29.94-.72-.36-.07c0,.43,0,.51-.72.51ZM414.07,299.28l-.07-.07c-.14.07-.29.22-.36.36h-.07l.07.07c.07-.14.14-.29.36-.36h.07ZM414.36,282.53h-.14v.22h.14v-.22Z"/>
  </g>
</svg>