<?xml version="1.0" encoding="utf-8"?>
<!-- Generator: Adobe Illustrator 30.2.1, SVG Export Plug-In . SVG Version: 9.03 Build 0)  -->
<svg version="1.0" id="Шар_1" xmlns="http://www.w3.org/2000/svg" xmlns:xlink="http://www.w3.org/1999/xlink" x="0px" y="0px"
	 viewBox="0 0 344 219" style="enable-background:new 0 0 344 219;" xml:space="preserve">
<style type="text/css">
	.st0{clip-path:url(#SVGID_00000117676995210958329510000008503667036634832575_);fill:#FFFFFF;}
	.st1{clip-path:url(#SVGID_00000117676995210958329510000008503667036634832575_);}
	.st2{fill:#3B5C70;}
	.st3{fill:#AB2537;}
	.st4{fill:#B03341;}
	.st5{fill:#57675C;}
	.st6{fill:#34596E;}
	.st7{fill:#B12F3D;}
</style>
<g>
	<defs>
		<rect id="SVGID_1_" width="344" height="219"/>
	</defs>
	<clipPath id="SVGID_00000075147961831608470700000015312596357525266564_">
		<use xlink:href="#SVGID_1_"  style="overflow:visible;"/>
	</clipPath>
	<path style="clip-path:url(#SVGID_00000075147961831608470700000015312596357525266564_);fill:#FFFFFF;" d="M0,0h344v219H0V0z"/>
	<g style="clip-path:url(#SVGID_00000075147961831608470700000015312596357525266564_);">
		<path class="st2" d="M33.75,12.19H311.4c5.4,0,9.78,4.37,9.78,9.76V190.4c0,5.39-4.38,9.76-9.78,9.76H33.75
			c-5.4,0-9.78-4.37-9.78-9.76V21.96C23.97,16.57,28.35,12.19,33.75,12.19z"/>
		<path class="st3" d="M226.68,176.65c3.3-8.24,1.95-18.35-2.73-26.1c-5.82-9.63-15.83-16.07-26.3-20.23
			c3.28-1.07,6.81,0.34,9.88,1.92c10.65,5.47,20.41,13.73,24.85,24.84c4.44,11.11,2.33,25.28-7.04,32.73
			c-2.89,2.29-6.41,3.89-10.1,4.04c-4.75,0.19-9.36-2.08-12.81-5.33c-3.45-3.26-5.88-7.44-7.93-11.72
			c-5.85,10.17-11.94,20.62-21.31,27.69c-9.37,7.07-22.95,9.96-32.92,3.75c-6.59-4.11-10.61-11.6-11.7-19.28
			c-1.09-7.68,0.47-15.53,3.12-22.83c5.33-14.66,14.97-27.43,25.96-38.51c12.57-12.66,27.15-23.43,43.35-30.91
			c5.64-2.6,11.63-4.84,17.84-4.75c1.7,0.02,3.89,0.75,3.83,2.44c-0.06,1.58-2.03,2.22-3.58,2.55c-6.68,1.4-12.79,4.72-18.56,8.35
			c-19.64,12.33-36.72,28.69-49.87,47.77c-8,11.61-18.85,31.31-10.97,45.46c1.69,3.03,4.87,4.95,8.13,6.14
			c2.64,0.96,5.55,1.54,8.35,1.01c3.04-0.57,6.02-1.87,8.75-3.28c13.94-7.24,28.24-23.55,27.6-40.04c-0.07-1.88,0.06-4.33,1.86-4.85
			c1.16-0.34,2.4,0.47,2.99,1.53c0.58,1.06,0.67,2.31,0.79,3.51c0.51,5.33,1.83,10.58,3.9,15.52c1.73,4.14,4.43,8.42,8.77,9.6
			c4.68,1.27,9.61-1.63,12.62-5.42C224.81,180.53,225.88,178.65,226.68,176.65z"/>
		<path class="st3" d="M346.37,143.57c-2.96-8.57-10.76-15.48-19.57-18.36c-10.94-3.57-22.99-1.87-33.86,1.88
			c1.82-3.01,5.5-4.27,8.92-5.1c11.9-2.87,24.97-2.98,35.83,2.65c10.86,5.63,18.71,17.99,16.44,29.99c-0.7,3.69-2.35,7.28-5.1,9.85
			c-3.55,3.31-8.62,4.63-13.47,4.41c-4.85-0.22-9.52-1.84-13.97-3.77c2.28,11.76,4.56,23.9,2.04,35.61
			c-2.51,11.71-11.08,22.99-22.94,24.83c-7.84,1.22-15.96-1.9-21.94-7.11c-5.98-5.21-10.03-12.32-12.85-19.73
			c-5.68-14.89-6.78-31.18-5.68-47.07c1.25-18.16,5.32-36.2,12.85-52.78c2.62-5.77,5.76-11.49,10.62-15.56
			c1.33-1.11,3.51-2.01,4.59-0.66c1.01,1.26-0.08,3.07-1.07,4.35c-4.23,5.53-6.73,12.17-8.77,18.82c-6.94,22.61-9.2,46.65-6.6,70.15
			c1.58,14.31,6.37,36.77,21.92,42.45c3.33,1.22,7.08,0.58,10.4-0.67c2.68-1.02,5.32-2.5,7.13-4.78c1.97-2.47,3.4-5.45,4.57-8.37
			c5.93-14.88,6.08-37.02-5.44-49.34c-1.31-1.4-2.85-3.38-1.81-4.99c0.67-1.03,2.18-1.24,3.33-0.8c1.16,0.43,2.06,1.34,2.95,2.19
			c3.96,3.78,8.49,6.96,13.39,9.4c4.11,2.05,9.06,3.56,13.2,1.58c4.47-2.13,6.34-7.66,6.13-12.6
			C347.52,147.81,347.09,145.64,346.37,143.57z"/>
		<path class="st3" d="M261.61,5.82c-8.53,2.55-15.63,9.9-18.81,18.4c-3.95,10.55-2.76,22.4,0.49,33.19
			c-2.88-1.9-3.97-5.55-4.65-8.93c-2.33-11.75-1.92-24.53,4.04-34.92c5.96-10.39,18.41-17.57,30.1-14.87
			c3.6,0.83,7.05,2.59,9.46,5.39c3.1,3.6,4.2,8.61,3.79,13.35c-0.41,4.73-2.19,9.24-4.27,13.51c11.63-1.75,23.64-3.49,35.03-0.57
			s22.12,11.76,23.45,23.43c0.88,7.72-2.5,15.53-7.86,21.16c-5.35,5.64-12.5,9.31-19.88,11.77c-14.84,4.96-30.88,5.37-46.43,3.66
			c-17.77-1.95-35.32-6.66-51.29-14.68c-5.55-2.79-11.05-6.09-14.85-11.01c-1.04-1.34-1.83-3.51-0.47-4.52
			c1.28-0.94,3.01,0.2,4.23,1.22c5.26,4.36,11.68,7.07,18.12,9.33c21.92,7.69,45.41,10.87,68.59,9.27
			c14.11-0.97,36.34-4.75,42.55-19.73c1.33-3.21,0.86-6.9-0.24-10.19c-0.89-2.66-2.24-5.3-4.4-7.16c-2.34-2.02-5.22-3.55-8.03-4.8
			c-14.37-6.4-36.09-7.43-48.65,3.34c-1.43,1.23-3.44,2.65-4.97,1.56c-0.99-0.7-1.13-2.18-0.66-3.29c0.47-1.11,1.4-1.96,2.27-2.8
			c3.87-3.72,7.17-8.02,9.76-12.72c2.18-3.94,3.86-8.71,2.09-12.84c-1.92-4.46-7.26-6.51-12.12-6.5
			C265.82,4.87,263.67,5.2,261.61,5.82z"/>
		<path class="st3" d="M112.86-13.18c-3.69,9.52-2.01,21.11,3.47,29.97c6.81,11,18.4,18.27,30.49,22.92
			c-3.75,1.27-7.84-0.31-11.38-2.08c-12.31-6.16-23.64-15.53-28.88-28.24c-5.24-12.71-3-29.03,7.68-37.7
			c3.29-2.67,7.32-4.56,11.55-4.77c5.45-0.27,10.78,2.27,14.79,5.97s6.85,8.48,9.27,13.37c6.59-11.76,13.47-23.85,24.15-32.1
			s26.25-11.73,37.79-4.72c7.63,4.64,12.34,13.2,13.69,22.01c1.35,8.81-0.34,17.86-3.3,26.28c-5.94,16.92-16.86,31.72-29.36,44.59
			c-14.29,14.71-30.91,27.27-49.44,36.07c-6.44,3.06-13.31,5.7-20.45,5.69c-1.95-0.01-4.48-0.81-4.43-2.76
			c0.05-1.82,2.3-2.58,4.08-2.97c7.66-1.69,14.64-5.59,21.23-9.83c22.42-14.42,41.85-33.44,56.72-55.54
			c9.05-13.45,21.27-36.23,12.04-52.38c-1.98-3.46-5.66-5.63-9.43-6.96c-3.05-1.07-6.4-1.7-9.61-1.06
			c-3.49,0.7-6.89,2.22-10.01,3.89c-15.93,8.5-32.16,27.43-31.22,46.37c0.11,2.16-0.01,4.98-2.08,5.6c-1.33,0.4-2.77-0.51-3.45-1.72
			s-0.8-2.64-0.95-4.02c-0.66-6.12-2.24-12.14-4.68-17.79c-2.04-4.74-5.2-9.63-10.2-10.93c-5.4-1.41-11.02,1.99-14.44,6.39
			C114.96-17.67,113.75-15.49,112.86-13.18z"/>
		<path class="st3" d="M87.97,211.51c8.45-2.82,15.3-10.4,18.21-18.99c3.61-10.67,2.04-22.48-1.55-33.15
			c2.94,1.81,4.15,5.42,4.93,8.77c2.71,11.67,2.71,24.46-2.92,35.03S88.81,221.32,77.04,219c-3.62-0.72-7.13-2.37-9.63-5.08
			c-3.22-3.5-4.47-8.48-4.21-13.22c0.26-4.74,1.89-9.3,3.83-13.64c-11.57,2.13-23.52,4.25-35,1.69
			c-11.48-2.56-22.48-11.05-24.19-22.66c-1.13-7.69,2-15.6,7.17-21.4c5.17-5.81,12.19-9.7,19.49-12.4
			c14.67-5.43,30.69-6.36,46.29-5.15c17.83,1.38,35.51,5.52,51.73,13.03c5.64,2.61,11.24,5.74,15.19,10.53
			c1.08,1.31,1.95,3.45,0.61,4.5c-1.25,0.98-3.01-0.11-4.27-1.08c-5.4-4.18-11.9-6.69-18.41-8.74c-22.15-6.99-45.74-9.41-68.86-7.08
			c-14.07,1.42-36.17,5.91-41.89,21.08c-1.23,3.25-0.64,6.92,0.57,10.18c0.97,2.63,2.41,5.23,4.63,7.02
			c2.41,1.95,5.33,3.38,8.18,4.54c14.57,5.93,36.31,6.28,48.51-4.89c1.39-1.27,3.35-2.76,4.92-1.72c1.01,0.67,1.19,2.14,0.76,3.27
			c-0.43,1.13-1.33,2-2.18,2.87c-3.74,3.84-6.91,8.25-9.35,13.02c-2.05,4-3.58,8.83-1.67,12.9c2.06,4.4,7.46,6.27,12.32,6.11
			C83.79,212.59,85.93,212.19,87.97,211.51z"/>
		<path class="st3" d="M3.43,62c0.59,8.87,6.19,17.41,13.79,22.39c9.43,6.19,21.27,7.67,32.52,6.91c-2.5,2.38-6.3,2.63-9.75,2.54
			C28,93.5,15.6,90.25,6.78,82.14s-13.07-21.83-7.83-32.6c1.61-3.31,4.1-6.29,7.37-8.01c4.21-2.22,9.35-2.17,13.88-0.71
			c4.53,1.45,8.54,4.18,12.25,7.16c0.87-11.71,1.85-23.78,7.24-34.22s16.41-18.9,28.1-17.6C75.51-2.99,82.39,2.04,86.7,8.51
			s6.31,14.23,7.08,21.96c1.54,15.54-1.62,31.24-6.75,45.99c-5.86,16.86-14.36,32.88-25.75,46.64c-3.96,4.78-8.41,9.39-14.05,12
			c-1.54,0.71-3.84,1-4.52-0.55c-0.63-1.46,0.87-2.88,2.13-3.85c5.42-4.15,9.5-9.79,13.14-15.56C70.37,95.53,78.7,73.37,82.3,50.46
			c2.19-13.94,3.45-36.42-9.8-45.79c-2.84-2.01-6.55-2.37-10.01-2.03c-2.8,0.27-5.68,1-7.98,2.69c-2.5,1.83-4.63,4.29-6.48,6.75
			c-9.45,12.56-15.29,33.47-7.56,48.08c0.88,1.66,1.83,3.93,0.42,5.19c-0.9,0.81-2.38,0.61-3.36-0.09c-0.98-0.71-1.6-1.8-2.23-2.83
			c-2.77-4.59-6.24-8.76-10.25-12.33c-3.36-2.99-7.65-5.69-12.08-4.89C8.19,46.07,5,50.82,3.93,55.55C3.44,57.69,3.29,59.85,3.43,62
			z"/>
	</g>
	<path style="clip-path:url(#SVGID_00000075147961831608470700000015312596357525266564_);fill:#FFFFFF;" d="M263.17,165.49H88.69
		c-10.03,0-18.16-8.13-18.16-18.16V65.19c0-10.03,8.13-18.16,18.16-18.16h174.48c10.03,0,18.16,8.13,18.16,18.16v82.13
		C281.33,157.36,273.2,165.49,263.17,165.49z"/>
	<g style="clip-path:url(#SVGID_00000075147961831608470700000015312596357525266564_);">
		<path class="st4" d="M117,55.08c-5.85-5.39-14.11,4.46-16.04,9.37c-0.53,1.35-0.76,2.77-0.62,4.23c0.04,0.44,0.01,0.94-0.24,1.3
			c-0.11,0.16-0.31,0.29-0.5,0.25c-0.08-0.01-0.3-0.12-0.37-0.17c-0.44-0.31-0.49-0.82-0.58-1.36c-0.44-2.83-1.91-8.37-5.49-8.67
			c-1.1-0.09-2.34,0.18-3.49,1.38c-1.33,1.38-1.92,3.49-2.02,5.36c-0.12,2.22,0.46,4.27,1.72,6.06c1.11,1.56,2.72,3.01,4.2,4.21
			c0.69,0.56,1.41,1.07,2.17,1.53c0.42,0.26,0.86,0.49,1.3,0.72c0.39,0.2,0.92,0.55,1.35,0.62c-9.53-1.48-16.06-11.98-10.87-19.38
			c1.41-2.01,3.73-2.68,6.12-2.37c2.58,0.33,4.27,2.67,5.83,5.88c0.72-1.72,1.76-3.59,2.72-5.2c3.03-5.12,11.37-10.14,16.84-5.64
			c3.11,2.57,3.56,7.39,2.56,11.29c-2.41,9.42-10.2,16.9-15.64,20.94c-2.58,1.92-10.12,6.3-16.17,7.16
			c5.99-2.74,11.78-5.84,16.55-10.44c3.27-3.16,6.44-6.69,8.74-10.66c2.28-3.94,4.75-9.07,3.49-13.76
			C118.28,56.72,117.77,55.79,117,55.08z"/>
		<path class="st5" d="M77.68,110.5c-1.59,7.68,3.2,15.79,11.07,15.89h9.39v2.15h-8.52c-5.49,0.16-8.85-1.88-11.55-5.18
			c-3.12-3.81-3.74-8.32-2.77-13.14l7.11-34.51c-0.01,0.06,5.93,0.04,5.93,0.04c0.22,0.11,2.62,2.46,2.62,2.46s-3.61-0.01-4.67,0
			c-1.86-0.11-2.22,1.48-2.49,2.8L77.68,110.5z"/>
		<path class="st5" d="M125.42,92.93l-2.1-14.72c0,0-6.92,0-6.92,0c0.41-1.17,1.28-2.46,2-2.46c0,0,7,0,6.93,0l2.33,17.1
			C127.74,92.81,125.46,92.96,125.42,92.93z"/>
		<path class="st5" d="M109.8,75.75c-0.73,1.23-1.9,2.21-2.72,2.46h-7.34c-1.74-0.08-4.23-1.59-4.74-2.46
			C95.03,75.75,109.8,75.75,109.8,75.75z"/>
		<g>
			<path class="st6" d="M99.73,95.62c-0.36,0.14-0.61,0.4-0.74,0.77c-0.13,0.38-0.2,0.98-0.2,1.8v16.75c0,0.71,0.05,1.22,0.15,1.54
				c0.1,0.32,0.3,0.53,0.58,0.64c0.28,0.11,0.73,0.17,1.35,0.17h1.61c1,0,1.91-0.31,2.75-0.92c0.83-0.61,1.53-1.47,2.09-2.59
				c0.56-1.11,0.95-2.4,1.17-3.86h0.76c-0.06,0.75-0.1,1.72-0.1,2.9c0,2.12,0.07,3.86,0.23,5.22c-1.49-0.06-4.01-0.1-7.56-0.1
				c-4.79,0-8.37,0.03-10.74,0.1v-0.66c0.73-0.03,1.26-0.12,1.59-0.26c0.33-0.14,0.56-0.4,0.68-0.77c0.12-0.38,0.19-0.98,0.19-1.8
				V98.2c0-0.83-0.06-1.43-0.19-1.8c-0.12-0.38-0.35-0.63-0.68-0.77c-0.33-0.14-0.86-0.23-1.59-0.26v-0.66
				c1.11,0.06,2.84,0.1,5.2,0.1c2.23,0,3.96-0.03,5.19-0.1v0.66C100.67,95.4,100.09,95.48,99.73,95.62z"/>
			<path class="st6" d="M116.3,109.41c0,1.46,0.2,2.67,0.61,3.63c0.41,0.96,0.94,1.67,1.59,2.11c0.65,0.45,1.35,0.67,2.09,0.67
				c1.81,0,3.27-0.88,4.37-2.64l0.58,0.19c-0.28,0.9-0.71,1.74-1.3,2.52c-0.59,0.78-1.33,1.41-2.22,1.9
				c-0.9,0.49-1.92,0.73-3.07,0.73c-1.51,0-2.84-0.32-3.99-0.97c-1.14-0.64-2.04-1.62-2.67-2.94c-0.64-1.32-0.96-2.95-0.96-4.91
				c0-2,0.34-3.68,1.03-5.05c0.69-1.37,1.64-2.4,2.85-3.08c1.21-0.69,2.62-1.03,4.2-1.03c4.13,0,6.2,2.44,6.2,7.31h-9.26
				C116.31,108.19,116.3,108.7,116.3,109.41z M120.93,102.95c-0.38-1.14-0.96-1.71-1.73-1.71c-0.78,0-1.44,0.49-1.96,1.46
				c-0.52,0.97-0.84,2.48-0.96,4.54h5.17C121.48,105.52,121.31,104.09,120.93,102.95z"/>
			<path class="st6" d="M130.45,116.16c0.71,1.07,1.73,1.61,3.04,1.61c0.64,0,1.19-0.2,1.65-0.59c0.46-0.39,0.68-0.98,0.68-1.76
				c0-0.61-0.14-1.16-0.41-1.64c-0.27-0.48-0.62-0.91-1.04-1.29c-0.42-0.38-1.05-0.89-1.88-1.55c-1.02-0.83-1.79-1.48-2.3-1.95
				c-0.51-0.47-0.95-1.03-1.31-1.68s-0.55-1.39-0.55-2.22c0-0.94,0.26-1.76,0.77-2.45c0.52-0.69,1.21-1.21,2.08-1.56
				c0.87-0.35,1.81-0.53,2.84-0.53c0.84,0,1.61,0.1,2.3,0.31c0.7,0.2,1.25,0.44,1.64,0.71c0.21,0.15,0.41,0.23,0.58,0.23
				c0.41,0,0.67-0.4,0.77-1.21h0.72c-0.09,1.11-0.13,3.04-0.13,5.8h-0.72c-0.19-1.44-0.63-2.65-1.3-3.63
				c-0.67-0.98-1.65-1.47-2.92-1.47c-0.66,0-1.19,0.19-1.61,0.56c-0.42,0.38-0.63,0.89-0.63,1.55c0,0.74,0.25,1.38,0.74,1.92
				c0.49,0.54,1.09,1.05,1.79,1.55c0.7,0.49,1.21,0.86,1.53,1.11c0.9,0.68,1.62,1.27,2.15,1.77c0.53,0.51,0.96,1.08,1.3,1.72
				c0.33,0.64,0.5,1.37,0.5,2.2c0,0.97-0.28,1.82-0.85,2.56c-0.56,0.74-1.32,1.31-2.28,1.72c-0.96,0.4-2,0.6-3.14,0.6
				c-1.17,0-2.19-0.23-3.06-0.69c-0.66-0.33-1.17-0.56-1.55-0.69c-0.06-0.02-0.12-0.03-0.16-0.03c-0.35,0-0.61,0.39-0.77,1.18h-0.72
				c0.09-1.26,0.13-3.45,0.13-6.59h0.72C129.27,113.6,129.73,115.09,130.45,116.16z"/>
			<path class="st6" d="M168.22,94.8c1.01,0,1.85-0.03,2.51-0.1v0.66c-0.55,0.21-1.09,0.64-1.63,1.26
				c-0.54,0.63-1.01,1.52-1.42,2.67l-6.96,18.83c-0.25-0.02-0.63-0.03-1.16-0.03c-0.5,0-0.88,0.01-1.11,0.03l-8.43-20.65
				c-0.28-0.73-0.6-1.26-0.97-1.59c-0.37-0.33-0.74-0.5-1.1-0.52v-0.66c1.32,0.06,3,0.1,5.03,0.1c2.24,0,3.91-0.03,5.01-0.1v0.66
				c-0.83,0.03-1.42,0.13-1.78,0.3c-0.36,0.17-0.54,0.47-0.54,0.93c0,0.34,0.13,0.86,0.4,1.55l5.82,14.77l4.06-10.94
				c0.61-1.73,0.92-3.07,0.92-4.03c0-0.88-0.23-1.52-0.7-1.93c-0.47-0.4-1.16-0.62-2.07-0.65v-0.66
				C165.57,94.77,166.95,94.8,168.22,94.8z"/>
			<path class="st6" d="M177.3,116.44c0.14,0.34,0.36,0.59,0.66,0.73c0.3,0.14,0.71,0.21,1.24,0.21v0.69
				c-2.19-0.09-3.65-0.13-4.38-0.13c-0.7,0-2.23,0.04-4.59,0.13v-0.69c0.53,0,0.94-0.07,1.25-0.21c0.31-0.14,0.53-0.38,0.66-0.73
				c0.13-0.34,0.2-0.82,0.2-1.43V104.6c0-1.02-0.16-1.76-0.47-2.22c-0.31-0.46-0.86-0.68-1.64-0.68V101c0.7,0.06,1.38,0.1,2.05,0.1
				c1.94,0,3.55-0.15,4.82-0.45V115C177.09,115.61,177.16,116.09,177.3,116.44z M176.7,93.17c0.54,0.45,0.81,1.07,0.81,1.85
				c0,0.79-0.27,1.42-0.81,1.87c-0.54,0.45-1.27,0.68-2.18,0.68c-0.93,0-1.67-0.23-2.21-0.68c-0.54-0.45-0.81-1.07-0.81-1.87
				c0-0.78,0.27-1.4,0.81-1.85c0.54-0.45,1.27-0.68,2.21-0.68C175.43,92.5,176.16,92.72,176.7,93.17z"/>
			<path class="st6" d="M191.22,101.04v0.66h-3.9V115c0,0.65,0.12,1.12,0.35,1.39c0.24,0.27,0.6,0.41,1.1,0.41
				c0.93,0,1.68-0.66,2.24-1.98l0.56,0.31c-0.83,2.27-2.33,3.4-4.51,3.4c-1.45,0-2.55-0.38-3.3-1.13c-0.46-0.45-0.78-1.02-0.94-1.72
				c-0.17-0.69-0.25-1.65-0.25-2.88V101.7h-2.77v-0.66h2.77v-4.38c1.81,0,3.4-0.35,4.75-1.06v5.44H191.22z"/>
			<path class="st6" d="M200.91,101.43c0.79-0.59,1.68-0.88,2.68-0.88c0.67,0,1.22,0.14,1.67,0.43c0.45,0.29,0.78,0.66,1,1.12
				c0.21,0.46,0.32,0.95,0.32,1.47c0,0.82-0.24,1.48-0.71,2c-0.47,0.52-1.1,0.77-1.87,0.77c-0.75,0-1.35-0.19-1.78-0.57
				c-0.43-0.38-0.65-0.89-0.65-1.54c0-1.05,0.48-1.91,1.45-2.58c-0.14-0.03-0.27-0.05-0.4-0.05c-0.15,0-0.32,0.03-0.52,0.08
				c-0.56,0.09-1.07,0.35-1.53,0.8c-0.46,0.45-0.82,0.98-1.09,1.6c-0.26,0.62-0.39,1.23-0.39,1.82v8.75c0,1.02,0.25,1.73,0.74,2.12
				c0.49,0.39,1.28,0.59,2.37,0.59v0.69c-2.75-0.09-4.5-0.13-5.25-0.13c-0.7,0-2.27,0.04-4.72,0.13v-0.69
				c0.53,0,0.94-0.07,1.25-0.21c0.31-0.14,0.53-0.38,0.66-0.73c0.13-0.34,0.2-0.82,0.2-1.43V104.6c0-1.02-0.16-1.76-0.47-2.22
				c-0.31-0.46-0.86-0.68-1.64-0.68V101c0.7,0.06,1.38,0.1,2.05,0.1c1.94,0,3.55-0.15,4.82-0.45v3.06
				C199.52,102.78,200.12,102.02,200.91,101.43z"/>
			<path class="st6" d="M214.71,116.44c0.14,0.34,0.36,0.59,0.66,0.73c0.3,0.14,0.71,0.21,1.24,0.21v0.69
				c-2.19-0.09-3.65-0.13-4.38-0.13c-0.7,0-2.23,0.04-4.59,0.13v-0.69c0.53,0,0.94-0.07,1.25-0.21c0.31-0.14,0.53-0.38,0.66-0.73
				c0.13-0.34,0.2-0.82,0.2-1.43V104.6c0-1.02-0.16-1.76-0.47-2.22c-0.31-0.46-0.86-0.68-1.64-0.68V101c0.7,0.06,1.38,0.1,2.05,0.1
				c1.94,0,3.55-0.15,4.82-0.45V115C214.5,115.61,214.57,116.09,214.71,116.44z M214.1,93.17c0.54,0.45,0.81,1.07,0.81,1.85
				c0,0.79-0.27,1.42-0.81,1.87c-0.54,0.45-1.27,0.68-2.18,0.68c-0.93,0-1.67-0.23-2.21-0.68c-0.54-0.45-0.81-1.07-0.81-1.87
				c0-0.78,0.27-1.4,0.81-1.85c0.54-0.45,1.27-0.68,2.21-0.68C212.83,92.5,213.56,92.72,214.1,93.17z"/>
			<path class="st6" d="M230.3,100.55c0.9,0,1.64,0.11,2.22,0.32c0.57,0.21,1.04,0.53,1.41,0.95c0.37,0.42,0.63,0.96,0.79,1.63
				c0.16,0.67,0.24,1.56,0.24,2.67V115c0,0.61,0.07,1.09,0.21,1.43c0.14,0.34,0.36,0.59,0.66,0.73c0.3,0.14,0.71,0.21,1.24,0.21
				v0.69c-2.19-0.09-3.64-0.13-4.35-0.13c-0.68,0-2.11,0.04-4.3,0.13v-0.69c0.45,0,0.81-0.07,1.06-0.21
				c0.26-0.14,0.44-0.38,0.56-0.73c0.11-0.34,0.17-0.82,0.17-1.43v-10.26c0-0.9-0.15-1.58-0.44-2.05c-0.3-0.46-0.83-0.69-1.6-0.69
				c-0.6,0-1.15,0.17-1.65,0.5c-0.5,0.33-0.89,0.79-1.18,1.38c-0.29,0.59-0.43,1.23-0.43,1.94V115c0,0.61,0.06,1.09,0.18,1.43
				c0.12,0.34,0.31,0.59,0.56,0.73c0.26,0.14,0.61,0.21,1.05,0.21v0.69c-2.02-0.09-3.38-0.13-4.09-0.13c-0.68,0-2.2,0.04-4.56,0.13
				v-0.69c0.53,0,0.94-0.07,1.25-0.21c0.31-0.14,0.53-0.38,0.66-0.73c0.13-0.34,0.2-0.82,0.2-1.43V104.6c0-1.02-0.16-1.76-0.47-2.22
				c-0.31-0.46-0.86-0.68-1.64-0.68V101c0.7,0.06,1.38,0.1,2.05,0.1c1.94,0,3.55-0.15,4.82-0.45v2.96
				C225.89,101.57,227.69,100.55,230.3,100.55z"/>
			<path class="st6" d="M243.69,109.41c0,1.46,0.2,2.67,0.61,3.63c0.41,0.96,0.94,1.67,1.59,2.11c0.65,0.45,1.34,0.67,2.09,0.67
				c1.81,0,3.27-0.88,4.37-2.64l0.58,0.19c-0.28,0.9-0.71,1.74-1.3,2.52c-0.59,0.78-1.33,1.41-2.22,1.9
				c-0.9,0.49-1.92,0.73-3.07,0.73c-1.51,0-2.84-0.32-3.99-0.97c-1.14-0.64-2.04-1.62-2.67-2.94c-0.64-1.32-0.96-2.95-0.96-4.91
				c0-2,0.34-3.68,1.03-5.05c0.69-1.37,1.64-2.4,2.85-3.08c1.21-0.69,2.62-1.03,4.2-1.03c4.13,0,6.2,2.44,6.2,7.31h-9.26
				C243.7,108.19,243.69,108.7,243.69,109.41z M248.32,102.95c-0.38-1.14-0.96-1.71-1.73-1.71c-0.78,0-1.44,0.49-1.96,1.46
				c-0.52,0.97-0.84,2.48-0.96,4.54h5.17C248.87,105.52,248.7,104.09,248.32,102.95z"/>
			<path class="st6" d="M257.84,116.16c0.71,1.07,1.73,1.61,3.04,1.61c0.64,0,1.19-0.2,1.65-0.59c0.46-0.39,0.69-0.98,0.69-1.76
				c0-0.61-0.14-1.16-0.41-1.64c-0.27-0.48-0.62-0.91-1.04-1.29c-0.42-0.38-1.05-0.89-1.89-1.55c-1.02-0.83-1.79-1.48-2.3-1.95
				c-0.51-0.47-0.95-1.03-1.31-1.68c-0.37-0.65-0.55-1.39-0.55-2.22c0-0.94,0.26-1.76,0.77-2.45s1.21-1.21,2.08-1.56
				c0.87-0.35,1.81-0.53,2.84-0.53c0.84,0,1.61,0.1,2.3,0.31c0.7,0.2,1.25,0.44,1.64,0.71c0.21,0.15,0.41,0.23,0.58,0.23
				c0.41,0,0.67-0.4,0.77-1.21h0.73c-0.09,1.11-0.13,3.04-0.13,5.8h-0.73c-0.19-1.44-0.63-2.65-1.3-3.63
				c-0.67-0.98-1.65-1.47-2.92-1.47c-0.65,0-1.19,0.19-1.61,0.56c-0.42,0.38-0.63,0.89-0.63,1.55c0,0.74,0.25,1.38,0.74,1.92
				c0.49,0.54,1.09,1.05,1.79,1.55c0.7,0.49,1.21,0.86,1.53,1.11c0.9,0.68,1.62,1.27,2.15,1.77c0.53,0.51,0.96,1.08,1.3,1.72
				c0.33,0.64,0.5,1.37,0.5,2.2c0,0.97-0.28,1.82-0.85,2.56c-0.56,0.74-1.32,1.31-2.28,1.72c-0.96,0.4-2,0.6-3.14,0.6
				c-1.17,0-2.19-0.23-3.06-0.69c-0.65-0.33-1.17-0.56-1.55-0.69c-0.06-0.02-0.12-0.03-0.16-0.03c-0.35,0-0.61,0.39-0.77,1.18h-0.72
				c0.09-1.26,0.13-3.45,0.13-6.59h0.73C256.66,113.6,257.13,115.09,257.84,116.16z"/>
		</g>
		<g>
			<path class="st6" d="M115.53,138.24c0.16,0.24,0.45,0.36,0.86,0.36v0.36c-0.37-0.03-0.72-0.05-1.07-0.05
				c-1.02,0-1.86,0.08-2.52,0.24v-1.48c-0.39,1.04-1.14,1.56-2.25,1.56c-0.7,0-1.32-0.17-1.85-0.51c-0.53-0.34-0.95-0.87-1.24-1.58
				c-0.3-0.71-0.44-1.6-0.43-2.67c-0.01-1.01,0.16-1.87,0.49-2.57c0.33-0.7,0.79-1.22,1.37-1.57c0.58-0.35,1.25-0.52,2-0.52
				c0.85,0,1.49,0.22,1.92,0.65v-2.94c0-0.53-0.08-0.92-0.25-1.16s-0.45-0.36-0.86-0.36v-0.36c0.37,0.03,0.72,0.05,1.07,0.05
				c1.01,0,1.85-0.08,2.52-0.24v11.64C115.29,137.62,115.37,138.01,115.53,138.24z M111.53,130.31c-0.61,0-1.08,0.35-1.41,1.06
				c-0.33,0.7-0.5,1.75-0.49,3.15c-0.02,2.65,0.53,3.98,1.63,3.98c0.25,0,0.48-0.06,0.7-0.19c0.22-0.12,0.4-0.3,0.55-0.54
				c0.15-0.23,0.24-0.5,0.28-0.81v-6.05C112.51,130.5,112.08,130.31,111.53,130.31z"/>
			<path class="st6" d="M119.26,130.37c0.25-0.29,0.4-0.58,0.45-0.88c0.03-0.16,0.04-0.29,0.04-0.41c0-0.13-0.01-0.24-0.04-0.32
				c-0.26,0.28-0.6,0.41-1,0.41c-0.41,0-0.73-0.12-0.99-0.35c-0.25-0.24-0.38-0.56-0.38-0.98c0-0.39,0.13-0.71,0.4-0.96
				c0.27-0.25,0.61-0.37,1.02-0.37c0.56,0,0.97,0.2,1.23,0.61c0.12,0.17,0.21,0.39,0.28,0.65c0.07,0.26,0.1,0.52,0.1,0.79
				c0,0.59-0.15,1.13-0.46,1.62c-0.3,0.49-0.76,0.87-1.36,1.15l-0.16-0.31C118.73,130.87,119.02,130.65,119.26,130.37z"/>
		</g>
		<g>
			<path class="st7" d="M140.93,153.03h-6.13c-0.49,0-0.77-0.24-0.81-0.73l-0.41-4.95l-6.13,1.22l-0.89,3.73
				c-0.12,0.41-0.41,0.61-0.81,0.61l-6.01-0.12c-0.53,0-0.85-0.49-0.77-1.06c0.85-3.17,1.83-6.41,2.8-9.58
				c0.73-2.35,1.58-4.67,2.48-6.94c1.22-3.08,2.52-6.17,3.82-9.21c0.12-0.24,0.32-0.41,0.61-0.49c0.89-0.16,1.79-0.37,2.72-0.49
				c0.69-0.12,1.5-0.12,2.35-0.04c1.58,0.12,2.52,1.42,3.13,2.8c0.32,0.89,0.61,1.91,0.85,2.8c0.08,0.32,0.61,2.52,0.97,4.46
				l3.04,17.01C141.83,152.58,141.46,153.03,140.93,153.03z M123.56,146.54v0.08l0.12,0.08
				C123.77,146.62,123.72,146.58,123.56,146.54z M124.21,149.78c-0.04,0-0.2-0.16-0.28-0.16c-0.12,0-0.2,0.08-0.2,0.16
				c0.04,0.04,0.12,0.04,0.24,0H124.21z M124.46,148.57l0.28-0.08v-0.16c-0.04-0.04-0.08-0.08-0.12-0.08
				c-0.08-0.04-0.12-0.08-0.16-0.12c-0.12,0.24-0.32,0.37-0.65,0.37c0,0.04,0.16,0.32,0.37,0.32c0.04,0,0.08-0.04,0.12-0.08
				C124.29,148.65,124.37,148.65,124.46,148.57z M124.17,147.96l0.28,0.12l0.08-0.04v-0.2c0-0.08-0.08-0.12-0.24-0.12
				c-0.04,0.04-0.04,0.04-0.08,0.04c0,0-0.04,0-0.04,0.04V147.96z M124.86,149.82c0-0.08-0.04-0.16-0.16-0.2
				c-0.16,0.08-0.24,0.12-0.24,0.16l0.24,0.16C124.78,149.87,124.82,149.82,124.86,149.82z M125.39,147.15
				c-0.04,0.04-0.08,0.12-0.08,0.2c0,0.04,0.04,0.04,0.08,0.04c0.04,0,0.04,0,0.04-0.04C125.51,147.27,125.47,147.23,125.39,147.15z
				 M126,149.38l-0.08-0.08c-0.04,0-0.08,0-0.08,0.04h-0.08c-0.08,0.04-0.12,0.04-0.16,0.04c0.08,0.08,0.12,0.08,0.16,0.12
				c0,0,0.08,0,0.16,0.04C126,149.5,126,149.46,126,149.38z M126.97,146.5c-0.08-0.16-0.08-0.24-0.08-0.24
				c-0.04-0.08-0.08-0.16-0.08-0.24c-0.08-0.04-0.41-0.2-0.49-0.2c-0.32,0-0.41,0.24-0.41,0.32c0,0.12,0.2,0.41,0.53,0.41
				c0.04,0,0.08,0,0.12-0.04H126.97z M126.12,132.98c0,0.08,0.16,0.45,0.24,0.45c0.04-0.2,0.04-0.45,0-0.65
				C126.4,132.7,126.12,132.9,126.12,132.98z M126.32,133.99v0.45h0.16v-0.49L126.32,133.99z M127.09,140.08h-0.16
				c-0.04,0.12-0.08,0.28-0.08,0.37c0,0.12,0.04,0.2,0.12,0.24c0.08-0.12,0.12-0.24,0.12-0.32V140.08z M127.86,145.48h-0.45v0.2
				h0.45V145.48z M129.49,137.81c0.2-0.12,0.41-0.45,0.45-0.57c0.04-0.12,0.08-0.24,0.08-0.32c0.04-0.12,0.16-0.37,0.41-0.85
				l-0.2-0.08c-0.08,0.04-0.12,0.08-0.2,0.16c-0.08,0.08-0.16,0.16-0.2,0.16c-0.08,0.28-0.12,0.53-0.2,0.73
				c-0.08,0.16-0.12,0.28-0.16,0.28c0,0.04-0.04,0.12-0.12,0.16c-0.04,0.04-0.08,0.12-0.12,0.28c0.04-0.08-0.12,0.37-0.28,0.89
				c-0.12,0.37-0.16,0.57-0.16,0.57c-0.08,0.24-0.12,0.37-0.37,0.65c-0.28,0.32-0.28,0.45-0.37,0.73c-0.04,0.08-0.08,0.2-0.08,0.37
				c-0.04,0.2-0.12,0.37-0.24,0.57c-0.08,0.16-0.16,0.32-0.2,0.49c0,0.16,0.04,0.28,0.08,0.28c0.08,0.04,0.12,0.04,0.2,0
				c0-0.04,0.08-0.08,0.12-0.12c0.12-0.24,0.2-0.49,0.24-0.69c0.04-0.24,0.16-0.49,0.28-0.65c0-0.08,0.08-0.2,0.24-0.37l0.16-0.45
				c0,0.08,0.41-1.18,0.65-1.75V137.81z M128.88,126.73h0.16v-0.24h-0.16V126.73z M129,128.35c-0.04,0-0.08-0.04-0.08-0.04v0.53
				c0-0.12,0.08-0.28,0.2-0.49H129z M129.16,133.39c0,0,0-0.04,0.08-0.04c0.08,0.04,0.12,0.04,0.16-0.04l-0.2-0.08
				c-0.04,0-0.04,0.04-0.04,0.08V133.39z M132.61,141.34l-0.24-1.95c-0.08-0.65-0.16-1.3-0.28-1.95c-0.16-0.85-0.32-1.7-0.53-2.56
				l-1.99,6.53L132.61,141.34z M130.58,134.44c0.12,0.37,0.24,0.41,0.57,0.24l0.12-0.32c0-0.04-0.04-0.08-0.04-0.08
				c0-0.04-0.04-0.08-0.08-0.12C130.95,134.12,130.75,134.2,130.58,134.44z M130.75,135.13l-0.12,0.32l0.08,0.04l0.12-0.32
				L130.75,135.13z M131.23,130.22l0.08,0.04l0.04-0.12h-0.04L131.23,130.22z M131.72,130.46l0.04,0.2h0.2c0.04,0.04,0.08,0,0.16,0
				c0-0.12-0.04-0.2-0.08-0.24c-0.12,0-0.16,0.04-0.16,0.04H131.72z M132.25,146.09l-0.04-0.08l-0.12,0.04l0.04,0.08L132.25,146.09z
				 M132.41,143.29h-0.2v0.08h0.2V143.29z M133.3,143.74c-0.08,0-0.16,0.04-0.28,0.12h0.16l0.08,0.08
				C133.3,143.9,133.3,143.82,133.3,143.74z M133.22,138.99h0.24c0-0.04-0.04-0.08-0.08-0.12c-0.08,0-0.16-0.04-0.16-0.04V138.99z
				 M133.59,139.96h-0.32v0.08h0.32V139.96z M133.51,128.35l0.12,0.12c0.04-0.08,0.08-0.16,0.08-0.32c-0.12,0-0.2,0-0.2-0.04V128.35
				z M133.63,143.17h0.12v-0.08h-0.12V143.17z M133.87,142.32h-0.12v0.16h0.12V142.32z M133.87,145.81h-0.12v0.16h0.12V145.81z
				 M133.83,127.78h0.12v-0.32h-0.12V127.78z M133.87,128.47l0.08,0.12v-0.08l-0.08-0.16V128.47z M134.4,128.35l-0.45-0.04v0.16
				c0.04,0.04,0.04,0.04,0.04,0.12h0.16c0-0.04,0.04-0.08,0.12-0.16C134.32,128.39,134.36,128.35,134.4,128.35z M134.16,137.44h-0.2
				C133.99,137.57,134.16,137.53,134.16,137.44z M134.08,141.63l-0.08,0.08C134.08,141.71,134.12,141.67,134.08,141.63z
				 M134.16,141.14h-0.08l-0.04,0.12l0.08,0.04L134.16,141.14z M134.16,140.69l0.12,0.2c0.08-0.04,0.16-0.04,0.24-0.04
				c0.04,0,0.16,0.04,0.28,0.04c0.12,0,0.28-0.12,0.28-0.2h-0.61C134.36,140.65,134.24,140.69,134.16,140.69z M134.36,146.09h0.41
				v-0.12h-0.57C134.32,146.01,134.36,146.05,134.36,146.09z M134.44,138.99c-0.08,0.04-0.12,0.12-0.12,0.24h0.24
				c-0.12,0.08-0.16,0.16-0.04,0.28h0.37v-0.12h0.04C134.89,139.15,134.72,139.03,134.44,138.99z M134.68,141.58
				c-0.04,0-0.12-0.04-0.24-0.04l-0.08,0.08c0,0.04,0,0.04-0.04,0.08l0.28,0.08c0-0.04,0-0.08,0.04-0.08
				C134.68,141.67,134.68,141.67,134.68,141.58z M134.6,147.75h-0.28v0.16h0.28V147.75z M134.4,144.22
				c0.08,0.04,0.28,0.12,0.41,0.12c0.16-0.12,0.28-0.24,0.28-0.32c0-0.04-0.04-0.08-0.12-0.16c-0.08,0-0.12-0.04-0.12-0.08
				l-0.24,0.24C134.56,144.06,134.52,144.14,134.4,144.22z M134.44,129.08l0.08,0.08h0.53c0.04,0,0.08-0.04,0.16-0.08
				c-0.12-0.08-0.2-0.12-0.2-0.24l0.08-0.12c-0.12,0.04-0.24,0.08-0.37,0.08C134.6,128.8,134.52,128.88,134.44,129.08z
				 M134.44,130.06c0.04,0.04,0.12,0.08,0.2,0.08c0.08,0,0.12,0.04,0.2,0.08c0.04-0.04,0.08-0.08,0.08-0.12c0-0.04,0-0.04,0.04-0.08
				c-0.12-0.08-0.24-0.12-0.37-0.12C134.52,129.9,134.44,129.94,134.44,130.06z M134.44,135.37l0.12,0.08l0.08-0.04l-0.08-0.08
				L134.44,135.37z M134.97,140.29l-0.04-0.08h-0.28v0.16l0.2,0.16v-0.04c0.04,0,0.04,0,0.08-0.04h0.08
				C135.01,140.37,134.97,140.33,134.97,140.29z M134.64,142.8v0.2h0.16v-0.2H134.64z M135.09,148.65l-0.24-0.12
				c-0.12-0.04-0.16-0.04-0.2-0.08l0.04,0.28L135.09,148.65z M135.09,136.96v-0.08c0,0,0-0.04,0.04-0.04l-0.28-0.04v0.16H135.09z
				 M135.09,140.12h0.24v-0.2c-0.04,0-0.08-0.04-0.12-0.04c-0.04-0.04-0.08-0.04-0.12-0.04c-0.12,0.04-0.2,0.12-0.2,0.24
				C134.97,140.08,135.05,140.08,135.09,140.12z M134.93,145.16c0,0.16,0.08,0.24,0.24,0.32v-0.32H134.93z M135.09,131.32
				c-0.04,0-0.08,0.04-0.08,0.12c0,0.04,0.04,0.08,0.08,0.12h0.24c0.08-0.04,0.16-0.12,0.16-0.16c0-0.12-0.08-0.2-0.2-0.2
				C135.25,131.28,135.17,131.28,135.09,131.32z M135.9,142.72c-0.04-0.04-0.08-0.12-0.08-0.24c-0.04-0.08-0.08-0.16-0.08-0.24
				c-0.24-0.16-0.45-0.24-0.65-0.2c0,0.04,0.08,0.08,0.12,0.08c0.12,0.04,0.2,0.16,0.28,0.37v0.24H135.9z M135.09,148.24h0.24
				c0-0.12-0.08-0.12-0.24-0.16V148.24z M135.13,149.95h0.45c0-0.08-0.08-0.16-0.16-0.24c-0.04,0.04-0.12,0.08-0.2,0.12
				L135.13,149.95z M135.41,140.45h-0.08l0.08,0.49c0.12-0.16,0.16-0.41,0.16-0.41c-0.04,0-0.08-0.04-0.12-0.04
				C135.45,140.49,135.41,140.49,135.41,140.45z M135.45,139.15c0.04,0.04,0.04,0.08,0.12,0.08l0.08-0.12
				c0-0.04-0.08-0.04-0.24-0.04C135.41,139.11,135.41,139.11,135.45,139.15z M135.45,134.2v0.08h0.28v-0.08H135.45z M135.45,145.08
				v0.08h0.2v-0.08H135.45z M136.02,151.81c-0.08-0.16-0.12-0.28-0.12-0.41h-0.41c0.08,0.16,0.32,0.45,0.45,0.53
				c0.04-0.04,0.04-0.04,0.04-0.08C135.98,151.85,135.98,151.81,136.02,151.81z M135.66,134.73c-0.04,0.08-0.04,0.12-0.04,0.12
				l0.04,0.08h0.24C135.9,134.81,135.82,134.73,135.66,134.73z M135.9,137.32v-0.08l-0.24-0.08v0.08L135.9,137.32z M136.71,139.96
				h-0.41c-0.49,0.32-0.45,0.24-0.45,0.37c0,0.12,0.12,0.28,0.37,0.69h0.57c0.04,0,0.08-0.04,0.16-0.04
				c-0.08-0.12-0.16-0.2-0.28-0.2c-0.12,0-0.24-0.08-0.41-0.24c0.16-0.04,0.28-0.08,0.32-0.16c0.04-0.08,0.12-0.16,0.24-0.24
				C136.79,140,136.75,139.96,136.71,139.96z M135.98,139.15c0.12,0,0.24,0,0.24-0.08c-0.04,0-0.08-0.08-0.08-0.08h-0.08
				c-0.04,0-0.08,0.04-0.08,0.08V139.15z M135.98,139.6c0.2,0.12,0.41,0.08,0.65-0.04c-0.08-0.08-0.2-0.16-0.32-0.16h-0.32V139.6z
				 M136.27,142.15c0-0.04-0.04-0.08-0.12-0.16c0,0-0.04,0.04-0.12,0.04c-0.04,0-0.04,0-0.04,0.04c0.04,0,0.2,0.08,0.24,0.08H136.27
				z M136.27,147.63h-0.28c0,0.04,0,0.12,0.04,0.12c0.04,0.08,0.08,0.08,0.12,0.12c0-0.04,0.04-0.04,0.08-0.12
				C136.27,147.75,136.27,147.67,136.27,147.63z M136.06,138.87c0.16,0,0.2-0.04,0.2-0.16L136.06,138.87z M136.51,145.44
				c0,0.08,0.12,0.37,0.37,0.37c0.12,0,0.2,0,0.24-0.04c0,0.04,0.08,0,0.24-0.04c-0.04-0.08-0.08-0.08-0.12-0.08l-0.16-0.12
				c-0.04-0.04-0.04-0.16-0.04-0.37c-0.04,0.12-0.08,0.16-0.2,0.16L136.51,145.44z M139.19,151.49c-0.08-0.41-0.12-0.73-0.16-0.97
				s-0.08-0.57-0.16-0.97c-0.04-0.04-0.08-0.08-0.16-0.2c-0.04-0.12-0.08-0.16-0.08-0.2c0-0.08,0.04-0.16,0.2-0.28
				c-0.24-0.12-0.37-0.24-0.32-0.37c0.12-0.24,0.12-0.53-0.08-0.85c-0.08-0.12-0.12-0.2-0.12-0.28c0-0.08,0.04-0.16,0.12-0.16
				c0.08-0.04,0.08-0.24-0.08-0.53l-0.28,0.24c-0.12,0.08-0.2,0.16-0.28,0.2l-0.12-0.08v-0.41c0-0.16,0.12-0.2,0.37-0.2l0.16,0.12
				v-0.32c-0.12-0.08-0.57-0.2-0.61-0.2c-0.24,0-0.77,0.2-0.77,0.45c0,0.04,0.04,0.08,0.08,0.12c-0.08-0.04,0,0,0.16,0.12
				c-0.08,0.08-0.08,0.16,0,0.28c0.08,0.04,0.12,0.08,0.16,0.12c0.08,0.04,0.08,0.08,0.08,0.08c-0.12,0.08-0.2,0.08-0.28,0.08
				c-0.24,0-0.37,0.08-0.37,0.2c-0.04,0.16-0.04,0.24-0.08,0.28c0.12-0.04,0.28,0.04,0.24,0.12c0,0.04-0.04,0.08-0.08,0.08
				c-0.04,0-0.04,0-0.04,0.04c0,0.04,0,0.08-0.04,0.12c-0.04,0.04-0.08,0.12-0.08,0.16v0.37c0.16,0.08,0.89,0.32,0.45,0.53
				c0.12,0.04,0.28,0.04,0.49,0.04c0.08,0,0.12,0,0.2-0.04h0.24v0.57h-0.04v0.04h-0.04l0.12,0.12c0.04,0.04,0.04,0.08,0.12,0.12
				c0,0.04,0.04,0.08,0.08,0.08c0.04,0.08,0.08,0.08,0.12,0.12c0,0.08,0.04,0.2,0.04,0.37c0.04,0.12,0.12,0.24,0.28,0.32
				c0,0.04,0,0.08-0.04,0.12v0.08c0,0.12,0.28,0.45,0.41,0.45C139.07,151.57,139.11,151.57,139.19,151.49z M137.32,142.8h0.24v-0.04
				l-0.24-0.04V142.8z M138.17,145.93h0.16v-0.08h-0.16V145.93z"/>
			<path class="st7" d="M151.49,125.71l-0.97,19.16l9.3-0.12c0.49,0,0.85,0.37,0.85,0.85l-0.12,5.84c0,0.53-0.28,0.81-0.81,0.81
				l-15.55,0.77c-0.28,0-0.45-0.08-0.61-0.24c-0.16-0.16-0.24-0.32-0.24-0.61l1.26-26.67c0.04-0.53,0.32-0.77,0.85-0.77l5.24,0.12
				C151.12,124.86,151.49,125.27,151.49,125.71z M145.56,150.03l0.04,0.08l0.08-0.04l-0.04-0.04H145.56z M145.85,150.03l0.49,0.08
				l0.16-0.16l-0.08-0.04c-0.04,0-0.08-0.04-0.16-0.04C146.09,149.87,145.89,149.99,145.85,150.03z M145.85,150.56v0.08l0.2-0.08
				l-0.04-0.04L145.85,150.56z M147.06,143.37c0-0.16-0.45-0.28-0.49-0.28c-0.08,0-0.2,0.04-0.32,0.16
				c-0.08,0.12-0.12,0.2-0.12,0.28c0,0.04,0,0.08,0.04,0.16c0.04,0.08,0.16,0.08,0.32,0.08
				C146.74,143.78,147.06,143.53,147.06,143.37z M146.82,147.23v-0.2l-0.32-0.04v0.2h0.2C146.74,147.23,146.74,147.23,146.82,147.23
				z M147.71,148.48v-0.16c-0.04,0-0.08,0-0.08-0.04c-0.04,0-0.08-0.04-0.08-0.04c-0.12,0-0.16,0.08-0.16,0.16s0,0.08,0.04,0.08
				l0.12,0.08C147.55,148.53,147.63,148.48,147.71,148.48z M148.24,137.69v-0.16h-0.12l-0.16,0.08c0.08,0.04,0.08,0.08,0.08,0.08
				c0,0.04,0.08,0.08,0.16,0.04C148.24,137.73,148.24,137.69,148.24,137.69z M148.4,149.42l0.16-0.12c-0.04,0-0.08,0-0.08-0.08
				c0-0.08-0.08-0.12-0.16-0.08c-0.04,0.04-0.08,0.04-0.12,0.04c0,0.04,0.08,0.04,0.12,0.12c0.04,0,0.04,0.04,0.04,0.08
				C148.36,149.38,148.4,149.38,148.4,149.42z M148.61,148.97v-0.28h-0.08c-0.04-0.04-0.08-0.04-0.12-0.04
				c-0.04,0.12-0.04,0.24,0,0.41C148.52,148.97,148.57,148.97,148.61,148.97z M149.13,150.43v-0.16c-0.04,0-0.04,0-0.08-0.04h-0.2
				c0,0,0,0.04-0.04,0.04c-0.04,0-0.04,0.04-0.04,0.08c0,0.08,0,0.12,0.04,0.12c0.04,0,0.08,0.04,0.12,0.08
				c0-0.04,0.04-0.08,0.08-0.08C149.05,150.47,149.09,150.47,149.13,150.43z M149.09,150.84l0.04-0.04c0,0-0.08-0.04-0.16-0.04v0.12
				C149.01,150.88,149.05,150.88,149.09,150.84z M149.5,147.39l-0.32-0.04v0.08l0.32,0.08V147.39z M149.78,135.58l-0.37-0.04v0.2
				h0.24c0.04,0,0.08-0.04,0.12-0.08C149.82,135.58,149.82,135.58,149.78,135.58z M149.54,126.89l0.08,0.04l0.08-0.16h-0.08
				L149.54,126.89z M150.15,150.64h-0.16c0,0-0.08-0.04-0.16-0.04c0,0.08-0.04,0.08,0,0.08v0.08c0.08-0.04,0.16-0.04,0.2-0.04
				C150.11,150.72,150.15,150.68,150.15,150.64z M150.8,148.16c-0.08-0.04-0.12-0.08-0.16-0.08v0.12c0,0.04,0.04,0.08,0.08,0.12
				C150.84,148.32,150.88,148.2,150.8,148.16z M151.04,134.12v-0.16h-0.08c0-0.04-0.04-0.04-0.08-0.04c-0.12,0-0.16,0.04-0.16,0.16
				c0,0.04,0,0.04,0.04,0.04c0,0.04,0.04,0.08,0.12,0.08c0.04-0.04,0.08-0.04,0.08-0.04S151,134.12,151.04,134.12z M151.45,148
				c-0.08,0.04-0.12,0.08-0.16,0.16c0.04,0.04,0.08,0.04,0.12,0.04h0.12v-0.08c0.04,0,0.04,0,0.08-0.04v-0.04
				c0.04,0,0.04-0.04,0.08-0.04H151.45z M152.5,148.69l-0.24,0.08c-0.16,0.04-0.2,0.08-0.2,0.16s0.04,0.28,0.32,0.28
				c0.08,0,0.49-0.08,0.49-0.28C152.87,148.93,152.71,148.69,152.5,148.69z M152.3,148.08l-0.04,0.12l0.24,0.08l0.08-0.12
				L152.3,148.08z M152.54,149.95l0.08-0.08c-0.04-0.04-0.04-0.04-0.08-0.04v-0.04h-0.16c-0.08,0.04-0.12,0.08-0.12,0.12
				L152.54,149.95z M153.44,150.72v-0.12c0,0-0.04-0.04-0.16-0.08c-0.04-0.04-0.08-0.08-0.12-0.08c-0.16,0-0.32,0.12-0.37,0.2v0.12
				h0.16c0.08,0,0.16-0.04,0.2,0C153.23,150.76,153.31,150.76,153.44,150.72z M153.35,147.43h-0.28c-0.08,0.08-0.12,0.16-0.12,0.16
				c0.04,0.08,0.12,0.12,0.32,0.12c0.12,0,0.2-0.12,0.2-0.16L153.35,147.43z M159.12,150.31c0.12-0.04,0.04-0.16,0-0.16
				s-0.08,0.04-0.08,0.12C159.04,150.35,159.08,150.35,159.12,150.31z"/>
			<path class="st7" d="M181.44,125.59l-0.12,4.83c-0.04,0.49-0.28,0.77-0.77,0.81l-11.16,1.18l-0.28,3.37l8.36-0.45v3.98h0.16
				v-3.98c0.45,0,0.85,0.37,0.85,0.81v4.22c0,0.45-0.24,0.73-0.69,0.81l-8.89,1.18l-0.2,3.37l10.84-0.32c0.49,0,0.85,0.37,0.85,0.81
				v5.11c0,0.49-0.24,0.77-0.77,0.81l-17.09,0.89c-0.49,0-0.85-0.32-0.85-0.85c0.04-3.98,0.16-8.16,0.37-12.5
				c0.2-4.51,0.57-8.97,1.01-13.44c0.08-0.49,0.32-0.73,0.81-0.73l16.68-0.77C181.08,124.74,181.44,125.11,181.44,125.59z
				 M162.81,150.68h-0.49C162.41,150.88,162.73,150.76,162.81,150.68z M163.42,149.78h-0.53v0.24h0.41
				C163.3,149.91,163.34,149.82,163.42,149.78z M164.03,150.84h-0.08v-0.16h-0.37v0.16h0.37V151h0.08V150.84z M164.39,129.12h-0.04
				l-0.08,0.04l0.08,0.04L164.39,129.12z M164.6,150.39h0.45v-0.16h-0.45V150.39z M165,151.85h-0.32v0.16H165V151.85z
				 M165.57,151.04h-0.69v0.37c0.24,0,0.45,0.04,0.57,0.08c0,0,0.04-0.08,0.04-0.2C165.57,151.16,165.57,151.08,165.57,151.04z
				 M165.94,149.87h-0.45v0.16h0.45V149.87z M166.14,144.83c0-0.04,0.04-0.04,0.08-0.12l-0.12-0.08c-0.04,0-0.12,0.04-0.2,0.08
				l0.04,0.16C166.06,144.87,166.1,144.87,166.14,144.83z M165.98,144.18c0.12-0.04,0.2-0.12,0.2-0.24h-0.24
				C165.9,144.02,165.9,144.1,165.98,144.18z M166.14,143.09l0.24,0.08c0-0.08,0-0.08,0.04-0.12l0.04-0.04
				c-0.12-0.04-0.2-0.04-0.2-0.04C166.18,143.01,166.14,143.05,166.14,143.09z M166.55,150.27c-0.08,0-0.24,0.08-0.32,0.12
				c0.12,0.28,0.16,0.61,0.16,0.85C166.67,151.08,166.75,150.47,166.55,150.27z M166.38,139.47l0.12,0.08
				c0.04,0,0.08-0.04,0.16-0.04c0-0.08,0.04-0.08,0.12-0.12c-0.08,0-0.12-0.04-0.12-0.04c-0.04,0-0.08-0.04-0.16-0.04
				C166.42,139.35,166.38,139.43,166.38,139.47z M166.38,141.38h0.2c0.04-0.04,0.04-0.08,0-0.16
				C166.42,141.26,166.38,141.34,166.38,141.38z M166.67,145.36v-0.12c0.04,0,0-0.04,0-0.12c-0.12,0-0.2,0.16-0.2,0.16
				C166.51,145.32,166.59,145.36,166.67,145.36z M166.46,148.12v0.24c0-0.04,0.04-0.04,0.08-0.08l0.16-0.16H166.46z M166.59,127.54
				c0,0.04,0,0.08,0.04,0.16v0.08h0.16c0-0.04,0.04-0.08,0.08-0.12c0.04-0.04,0.08-0.04,0.08-0.08L166.59,127.54z M166.91,140.81
				c-0.04,0-0.2,0.12-0.2,0.16c0.12,0.04,0.2,0.04,0.28,0L166.91,140.81z M167.15,142.92c-0.08-0.16-0.16-0.28-0.16-0.32l-0.28,0.04
				l0.2,0.16C166.95,142.88,167.03,142.92,167.15,142.92z M167.03,149.13h-0.32v0.2h0.32V149.13z M166.79,144.22
				c0.04,0.04,0.04,0.04,0.08,0.04c0.04,0,0.08,0,0.12-0.04l-0.04-0.2h-0.08c0,0.04-0.04,0.04-0.04,0.04h-0.08v0.16H166.79z
				 M167.11,144.79h-0.2v0.04l0.16,0.04L167.11,144.79z M166.95,126.53h0.85v-0.12h-0.85V126.53z M167.07,140.25
				c0,0.08,0.04,0.16,0.04,0.16c0.12,0,0.2-0.04,0.24-0.08c0-0.08-0.04-0.2-0.16-0.28C167.03,140.12,166.99,140.2,167.07,140.25z
				 M167.32,139.96l-0.04-0.04c-0.04,0-0.04,0-0.08-0.04c-0.04,0.04-0.04,0.04-0.08,0.04v0.04
				C167.2,140.04,167.24,140.04,167.32,139.96z M167.11,141.71l0.37,0.04l0.08-0.16c-0.04-0.04-0.08-0.08-0.08-0.12h-0.2
				C167.15,141.58,167.11,141.67,167.11,141.71z M167.24,142.64l0.45,0.04c0.04,0,0.08-0.08,0.08-0.12l-0.45-0.04
				C167.32,142.56,167.28,142.6,167.24,142.64z M167.28,141.02v0.2c0.16,0.12,0.28,0.16,0.37,0.16h0.12l0.12-0.08v-0.53
				c-0.08-0.04-0.12-0.08-0.16-0.12c-0.04,0-0.08-0.04-0.16-0.04C167.36,140.61,167.28,140.89,167.28,141.02z M167.48,148.24v-0.08
				c0-0.04,0-0.04,0.04-0.04h-0.24C167.28,148.2,167.36,148.24,167.48,148.24z M168.25,150.92c-0.16,0-0.32,0-0.45,0.04
				c-0.08,0.04-0.16,0.04-0.24,0.08c-0.08,0-0.12,0.04-0.2,0.04c0.08,0.04,0.28,0.24,0.28,0.32c0.2-0.12,0.37-0.28,0.41-0.32
				C168.13,151,168.21,150.96,168.25,150.92z M167.6,143.17c-0.04-0.08-0.08-0.16-0.04-0.2c0.04-0.08,0.04-0.12,0-0.16l-0.12,0.12
				c-0.04,0-0.04,0.04-0.04,0.08v0.16H167.6z M167.4,143.25v0.16h0.12v-0.16H167.4z M167.97,139.03c-0.08,0-0.12-0.04-0.16-0.08
				l-0.04-0.04h-0.2c-0.08,0.08-0.12,0.2-0.12,0.24c0.12-0.04,0.2-0.04,0.24-0.04C167.8,139.11,167.89,139.11,167.97,139.03z
				 M167.48,142.19l0.08,0.16c0.08,0,0.16,0,0.24-0.08C167.72,142.23,167.64,142.19,167.48,142.19z M167.68,139.23l-0.12,0.08
				c0.04,0.08,0.08,0.12,0.12,0.16c0.04-0.12,0.12-0.16,0.2-0.12c0.12,0,0.24,0,0.37-0.04
				C168.05,139.31,167.68,139.23,167.68,139.23z M168.45,139.64c-0.08,0-0.08,0-0.16-0.04h-0.16c-0.04,0-0.12,0-0.24,0.08
				c-0.16,0.04-0.24,0.08-0.32,0.12c0.16,0.08,0.32,0.12,0.37,0.16c-0.04,0.12-0.08,0.2-0.04,0.28l0.37-0.08
				C168.17,140,168.29,139.84,168.45,139.64z M167.6,143.33c0,0.04,0,0.08,0.04,0.08c0,0.04,0,0.04,0.04,0.08l0.28-0.08
				c-0.04,0-0.04-0.04-0.04-0.08v-0.04c-0.12,0-0.16,0.04-0.2,0.04H167.6z M167.97,141.79l-0.04-0.24c-0.12,0-0.2,0.04-0.2,0.16
				v0.16L167.97,141.79z M168.09,142.28l0.12-0.08l-0.32-0.08v0.16H168.09z M169.02,140.45h-0.2c-0.08,0-0.12,0.04-0.12,0.08
				c0,0.04-0.04,0.08-0.08,0.08c0-0.12-0.04-0.2-0.12-0.24h-0.24c0,0.04,0.04,0.08,0.08,0.08l0.12,0.12l-0.28,0.12
				c-0.08,0.04-0.16,0.12-0.2,0.16c0.08,0.04,0.16,0.04,0.2,0.08h0.24c0.08,0,0.08,0.04,0.61-0.16V140.45z M168.74,141.87
				c0-0.04-0.04-0.08-0.08-0.08l-0.08-0.08c-0.08,0.04-0.2,0.04-0.37,0.04c-0.08,0-0.16,0.04-0.16,0.04s-0.04,0.04-0.08,0.04
				l0.2,0.16c0.12-0.04,0.2-0.08,0.28-0.08L168.74,141.87z M168.25,143.7h-0.24v0.16h0.24V143.7z M168.09,137.49
				c0,0.08,0.04,0.12,0.12,0.16c0.08,0.08,0.2,0.08,0.37,0.08h0.12v-0.12h-0.24C168.41,137.57,168.17,137.49,168.09,137.49z
				 M168.25,138.38c0,0,0.04,0,0.12-0.04l-0.08-0.04h-0.04c-0.04,0-0.08,0-0.08,0.04C168.17,138.42,168.21,138.46,168.25,138.38z
				 M168.25,133.39l0.2,0.04c0.04-0.04,0.04-0.08,0-0.2c-0.04,0-0.08,0.04-0.12,0.08C168.29,133.34,168.25,133.34,168.25,133.39z
				 M168.53,134.12l0.04-0.04l-0.2-0.04v0.04L168.53,134.12z M168.74,136.23c-0.04,0-0.08-0.04-0.16-0.04l-0.04,0.04
				c-0.08,0.04-0.12,0.08-0.12,0.16c0,0.12,0.12,0.2,0.32,0.2c0.04,0,0.12,0,0.16-0.04v-0.28
				C168.86,136.27,168.78,136.27,168.74,136.23z M168.41,137.61h0.04H168.41z M168.41,139.92c0.04,0.2,0.12,0.2,0.28,0.2
				c0.08,0,0.16-0.04,0.28-0.08l-0.12-0.12H168.41z M168.62,142.92h-0.2v0.16C168.53,143.09,168.62,143.01,168.62,142.92z
				 M168.7,141.5c0-0.08-0.08-0.16-0.16-0.2l-0.08,0.16C168.53,141.5,168.62,141.5,168.7,141.5z M168.49,131.44h0.08l0.04-0.04
				c-0.04,0-0.04-0.04-0.04-0.08C168.53,131.32,168.49,131.36,168.49,131.44z M168.53,126.57h0.12v-0.08h-0.12V126.57z
				 M168.9,141.06h-0.24l-0.08,0.12h0.24C168.86,141.18,168.9,141.14,168.9,141.06z M168.62,150.03v0.2h0.32v-0.2H168.62z
				 M168.78,135.74h0.2v-0.2h-0.2V135.74z M168.98,125.63h0.08v-0.12h-0.08V125.63z M169.87,126.4h-0.57v0.04h-0.08
				c-0.12,0.04-0.2,0.08-0.2,0.12h0.28l0.04-0.04h0.53V126.4z M169.18,137.53l0.16,0.16c0.04,0,0.12,0.04,0.2,0.04l0.04-0.04h0.08
				v-0.2c-0.12,0-0.2-0.04-0.24-0.08l-0.08,0.04c0,0-0.04,0-0.04,0.04C169.31,137.49,169.27,137.49,169.18,137.53z M169.39,148.24
				l0.08,0.16h0.08l-0.12-0.16H169.39z M169.79,137.28c0.16-0.04,0.16-0.12,0-0.24V137.28z M170.04,146.82h0.32v-0.08h-0.32V146.82z
				 M170.04,147.35l0.08,0.08c0.12-0.04,0.16-0.08,0.08-0.16c-0.04,0-0.08,0-0.08,0.04h-0.08V147.35z M170.61,128.52l-0.08-0.24
				c-0.2,0.08-0.32,0.16-0.32,0.24c0.08,0.04,0.12,0.04,0.16,0H170.61z M170.52,146.94h-0.24v0.08h0.24V146.94z M170.36,126.93
				c0-0.04,0.08-0.08,0.16-0.16c0.08-0.08,0.04-0.08-0.08-0.04C170.4,126.73,170.36,126.77,170.36,126.93z M170.61,148.65
				l-0.08-0.08h-0.08l0.08,0.16c0,0,0-0.04,0.04-0.04S170.61,148.65,170.61,148.65z M171.34,127.95v-0.04l0.2-0.2
				c-0.04,0.04-0.12,0.08-0.16,0.08h-0.08c-0.04,0-0.04,0.04-0.12,0.04h-0.08c-0.12,0.04-0.24,0.16-0.32,0.32l0.08,0.08h0.49
				c0.08,0,0.08-0.04,0.08-0.04h0.04l0.08-0.08C171.42,128.07,171.34,128.03,171.34,127.95z M171.34,128.92
				c-0.16-0.08-0.28-0.12-0.37-0.12c-0.12,0-0.2,0.04-0.2,0.2l0.2,0.12l0.12,0.04h0.04c0.04,0,0.08-0.08,0.08-0.12L171.34,128.92z
				 M170.81,150.51c0,0.12,0.04,0.2,0.04,0.2h0.57c0-0.04,0.04-0.08,0.08-0.16c0.04-0.04,0.04-0.12,0.04-0.16l-0.2-0.2h-0.49
				C170.81,150.27,170.81,150.39,170.81,150.51z M171.05,138.09h0.32c0.08-0.04,0.08-0.08,0.08-0.12v-0.16h-0.32
				c0,0.08,0,0.08-0.04,0.16C171.09,138.05,171.05,138.09,171.05,138.09z M171.13,136.96l0.2,0.16c0.12-0.04,0.16-0.2,0.04-0.28
				L171.13,136.96z M171.13,137.49c0,0.04,0.04,0.08,0.08,0.16h0.28l-0.12-0.08c-0.08-0.04-0.08-0.08-0.16-0.12
				C171.17,137.49,171.13,137.49,171.13,137.49z M171.25,147.35l0.08,0.28c0.04,0,0.04-0.04,0.04-0.04c0.04,0,0.04-0.04,0.04-0.08
				c0.04,0,0.04-0.04,0.04-0.08C171.42,147.39,171.34,147.35,171.25,147.35z M171.46,146.98c0.08,0.04,0.12,0.12,0.12,0.16h0.2
				c0.04-0.04,0.08-0.08,0.08-0.12c0-0.04,0.04-0.08,0.04-0.08l-0.08-0.2c0,0.04-0.08,0.12-0.16,0.12
				C171.54,146.94,171.5,146.98,171.46,146.98z M171.7,125.96c-0.04,0-0.08-0.04-0.08-0.08
				C171.54,125.92,171.58,125.96,171.7,125.96z M172.07,129.33c0-0.08-0.04-0.16-0.2-0.16c-0.04,0-0.04,0.04-0.08,0.04h-0.04
				l-0.04,0.04c-0.04,0.04-0.08,0.08-0.08,0.16c0,0.04,0.04,0.08,0.04,0.08h0.28C172.03,129.49,172.07,129.45,172.07,129.33z
				 M172.47,126.4c0-0.08-0.08-0.16-0.24-0.16c-0.16,0-0.28,0.04-0.37,0.16c-0.04,0.08-0.08,0.12-0.12,0.16
				c0.08-0.04,0.12-0.12,0.12-0.16c0.04,0,0.12-0.04,0.2-0.04c0.16,0.04,0.24,0.12,0.24,0.2v0.16c0-0.08,0.04-0.12,0.08-0.16
				C172.47,126.49,172.47,126.44,172.47,126.4z M171.86,148.44h-0.08l-0.04,0.12h0.12V148.44z M171.86,131.19h-0.08v0.12h0.08
				V131.19z M171.99,136.51h0.04v-0.04L171.99,136.51z M172.03,147.71h0.2c0-0.04,0-0.08,0.04-0.12c0,0,0-0.04-0.04-0.08
				C172.11,147.55,172.03,147.63,172.03,147.71z M172.39,128.84c0-0.04-0.04-0.12-0.2-0.24l-0.12,0.24H172.39z M172.19,136.51v0.04
				l0.08-0.04H172.19z M172.43,136.84h-0.16l-0.08,0.16l0.16,0.08L172.43,136.84z M172.39,147.27l0.16-0.04c0-0.04,0-0.04-0.04-0.04
				c-0.04,0-0.04-0.04-0.08-0.08L172.39,147.27z M173.12,129.25c0-0.12-0.04-0.24-0.16-0.28c-0.08,0.04-0.12,0.04-0.16,0.04
				c-0.04,0-0.08,0-0.16,0.04l0.08,0.2h0.2C172.96,129.29,173.04,129.29,173.12,129.25z M172.92,128.23h0.04l0.04,0.04l0.04-0.12
				h-0.12V128.23z M172.92,151.25h0.28v-0.08h-0.28V151.25z M173.12,126.85h-0.16v0.08h0.16V126.85z M173.28,148.36
				c0,0.12,0.08,0.2,0.2,0.2l0.08-0.12c0.04-0.04,0.04-0.08,0.04-0.08H173.28z M174.06,128.88c0-0.04-0.04-0.08-0.08-0.12
				l-0.08-0.08c-0.2,0.08-0.32,0.16-0.32,0.24L174.06,128.88z M173.97,147.02h0.08l0.04-0.08l-0.04-0.04L173.97,147.02z
				 M175.27,126.57h-0.32v0.16h0.32V126.57z M175.92,141.06h0.49v-0.12h-0.49V141.06z M177.55,140.41c0.08-0.12,0.12-0.16,0.16-0.2
				c0.04-0.08,0.08-0.12,0.08-0.16l-0.08-0.28c-0.04-0.04-0.08-0.16-0.16-0.37V140.41z M177.79,137.04c0.08,0,0.12,0,0.2,0.04
				c0.08,0,0.16,0.04,0.2,0.04l0.16-0.2v-0.32c-0.04-0.04-0.24-0.12-0.32-0.12l-0.24,0.16V137.04z M177.99,129.21h-0.08v0.2h0.08
				V129.21z M177.99,151.89c0.08,0,0.16-0.04,0.24-0.12h-0.16C178.07,151.85,178.03,151.89,177.99,151.89z M178.07,149.95l0.49,0.08
				v-0.12l-0.41-0.12L178.07,149.95z M178.48,126.28h-0.08v0.12h0.08V126.28z"/>
			<path class="st7" d="M203.44,126c-0.41,4.18-0.69,8.36-0.77,12.58c-0.04,0.61-0.04,1.22-0.04,1.83c0,0.61-0.04,1.22-0.04,1.83
				h-0.2c-0.12,0-0.24,0-0.28,0.04c-0.04,0.04-0.24,0.04-0.53,0.04l0.08,0.08l-0.08,0.08h0.08c0.04,0,0.08,0,0.16-0.04
				c0.08,0.04,0.2,0.04,0.41,0.04h0.28c0.04,0,0.08,0,0.08,0.04v0.08h-0.2l0.08,0.04l-0.08,0.08h0.2c-0.04,3.08-0.04,6.17-0.04,9.21
				c0,0.57-0.28,0.85-0.81,0.85l-5.36,0.12c-0.41,0-0.65-0.16-0.81-0.53l-0.61-1.7H195v-0.04h-0.08l-3.21-8.52
				c0.16-0.08,0.32-0.16,0.49-0.28l-0.2,0.04l-0.08-0.04c-0.04,0-0.12,0.04-0.2,0.04c-0.04,0-0.08,0.04-0.08,0.04l-1.54-4.06
				l-0.28,14.37c-0.04,0.53-0.32,0.81-0.85,0.81h-5.48c-0.49,0-0.81-0.37-0.81-0.85c0.08-1.99,0.2-4.02,0.32-6.01
				c0.2-4.02,0.37-7.51,0.73-11.81l0.73-8.48c0.04-0.49,0.28-0.73,0.81-0.77l3.9-0.12c1.83-0.12,3.04,1.1,3.73,2.68l0.04,0.04
				l3.37,8.81l0.65-10.76c0-0.53,0.28-0.77,0.85-0.77l4.83,0.12C203.12,125.11,203.44,125.55,203.44,126z M186.96,141.87l-0.08-0.24
				c-0.24,0.12-0.32,0.2-0.32,0.32C186.72,141.95,186.88,141.91,186.96,141.87z M187.04,132.9h0.24v-0.12h-0.24V132.9z
				 M187.12,142.48h0.81c-0.37-0.2-0.49-0.24-0.37-0.2l-0.12-0.08c-0.16-0.04-0.28-0.04-0.41-0.08L187.12,142.48z M187.45,140.2
				h-0.32v0.28h0.32V140.2z M187.69,141.79l-0.24,0.12v0.16l0.32-0.12L187.69,141.79z M187.77,144.51c-0.16,0-0.24,0-0.24,0.04
				c-0.08,0.04-0.08,0.08-0.08,0.12l0.24,0.16c0.04-0.08,0.08-0.16,0.08-0.2V144.51z M187.77,147.19h-0.24v0.28h0.24V147.19z
				 M187.61,130.91l0.24,0.12c0-0.12-0.04-0.2-0.08-0.24C187.69,130.79,187.65,130.83,187.61,130.91z M188.18,138.5
				c0-0.08-0.04-0.16-0.08-0.24v-0.08c-0.16,0-0.32,0.04-0.41,0.12v0.2H188.18z M187.94,139.19c0.2-0.12,0.12-0.24-0.24-0.32v0.24
				L187.94,139.19z M187.77,140.08h0.41l-0.2-0.28C187.86,139.88,187.77,139.96,187.77,140.08z M187.77,143.21h0.41v-0.2h-0.41
				V143.21z M188.1,132.82h-0.24v0.16c0.04,0.04,0.08,0.08,0.08,0.12C188.06,133.02,188.1,132.94,188.1,132.82z M188.18,135.62
				h-0.32v0.16h0.32V135.62z M188.26,147.71c-0.08-0.04-0.2-0.08-0.41-0.08v0.28C188.1,147.84,188.22,147.75,188.26,147.71z
				 M188.26,143.57h-0.24v0.28h0.24V143.57z M188.18,139.23h0.28v-0.16h-0.28V139.23z M189.24,133.22l0.04-0.08h-0.73v-0.12h-0.32
				v0.16h0.32v-0.04l0.08,0.08c0.08,0.04,0.12,0.08,0.16,0.08c0,0.04,0.04,0.04,0.12,0.04C188.99,133.34,189.11,133.3,189.24,133.22
				z M188.75,148.48h-0.41v0.24h0.41V148.48z M188.83,133.55c-0.12-0.08-0.24-0.08-0.37-0.08
				C188.55,133.59,188.67,133.63,188.83,133.55z M189.03,137.65h-0.41C188.83,137.93,188.99,137.85,189.03,137.65z M189.24,140.16
				h-0.24v0.32h0.24V140.16z M189.28,133.3l0.24,0.08l0.08-0.12l-0.32-0.08V133.3z M189.36,137.44h0.28v-0.24h-0.28V137.44z
				 M189.84,138.09h-0.41v0.16h0.41V138.09z M189.76,145.16h-0.28v0.24h0.28V145.16z M189.56,132.82c0,0.12,0.04,0.24,0.08,0.32
				c0.08-0.04,0.12-0.04,0.12-0.04s0.04-0.04,0.08-0.04C189.8,133.02,189.72,132.9,189.56,132.82z M189.6,135.98v0.16h0.41v-0.16
				H189.6z M190.13,133.3c-0.12-0.08-0.2-0.12-0.28-0.12c-0.04,0.04-0.08,0.08-0.04,0.12v0.12
				C189.93,133.43,190.05,133.39,190.13,133.3z M189.88,137.04c0.04,0.16,0.08,0.32,0.2,0.41
				C190.25,137.28,190.21,137.16,189.88,137.04z M190.9,137.77h-0.57C190.57,137.85,190.78,137.85,190.9,137.77z M191.67,139.76
				c-0.04,0-0.04-0.04-0.04-0.04c-0.08,0-0.12-0.04-0.16-0.08c-0.04,0-0.08,0.08-0.08,0.16v0.08h0.28V139.76z M192.24,137.77h0.2
				v-0.24h-0.2V137.77z M192.89,141.83c-0.08-0.08-0.16-0.16-0.28-0.2c-0.04,0.08-0.12,0.12-0.28,0.16
				c0.04,0.04,0.08,0.04,0.12,0.04c0.04,0,0.04,0.04,0.08,0.04c0.12,0.04,0.16,0.08,0.16,0.08s0.04,0,0.12-0.04L192.89,141.83z
				 M192.6,138.87h0.28v-0.12h-0.28V138.87z M192.65,137.44l0.08,0.12l0.53-0.37l-0.2-0.08
				C193.05,137.36,193.05,137.44,192.65,137.44z M192.97,139.6l0.28-0.04c-0.04-0.12-0.08-0.28-0.08-0.49
				c-0.04,0.08-0.08,0.08-0.08,0.12l-0.12,0.12c-0.08,0.04-0.12,0.04-0.12,0.04s0,0.04-0.04,0.08c0.04,0.04,0.08,0.08,0.08,0.12
				L192.97,139.6z M192.97,137.77l-0.08-0.08c0,0.04-0.04,0.08-0.04,0.12c0,0.04,0.04,0.08,0.08,0.16h0.04v-0.12
				C193.01,137.85,192.97,137.81,192.97,137.77z M193.01,141.58l0.2,0.08l0.16-0.24l-0.24-0.04L193.01,141.58z M193.17,144.02
				c0.04,0,0.12,0,0.24-0.04l-0.16-0.12C193.13,143.86,193.05,143.98,193.17,144.02z M193.13,138.34v0.16h0.16v-0.16H193.13z
				 M193.42,142.88c-0.04-0.16-0.12-0.24-0.24-0.24c-0.04,0.04-0.04,0.08,0,0.12c0,0,0,0.04,0.04,0.04
				C193.25,142.8,193.34,142.84,193.42,142.88z M193.66,145.03c-0.08-0.12-0.2-0.16-0.37-0.16v0.16
				C193.38,145.08,193.5,145.08,193.66,145.03z M193.34,140.85c0,0.12,0.12,0.24,0.37,0.24v-0.24H193.34z M193.78,141.38l-0.45,0.12
				l0.04,0.12l0.49-0.12L193.78,141.38z M193.38,143.17c0,0,0.04,0,0.08-0.04h0.04c0.04,0,0.08-0.04,0.12-0.08h0.04l0.04-0.04
				c-0.16-0.04-0.24-0.08-0.32-0.08V143.17z M193.66,144.47l0.28-0.08l-0.08-0.12l-0.28,0.04L193.66,144.47z M193.82,143.49
				l-0.08,0.12l0.2,0.08l0.08-0.16L193.82,143.49z M194.35,146.41l-0.41,0.12c0,0.08,0.08,0.08,0.16,0.08
				c0,0.04,0.04,0.04,0.08,0.04c0,0,0.04,0,0.12,0.04C194.27,146.66,194.27,146.54,194.35,146.41z M194.07,145.48h0.16v-0.2h-0.16
				V145.48z M194.35,146.13h-0.28v0.2h0.28V146.13z M194.11,141.18c0,0.16,0.12,0.24,0.32,0.28c0.04-0.04,0.08-0.04,0.12-0.04
				l0.12-0.04C194.43,141.26,194.23,141.18,194.11,141.18z M194.43,141.75l0.32-0.04l-0.04-0.16l-0.32,0.08L194.43,141.75z
				 M195.08,145.56c-0.08-0.12-0.08-0.08-0.32-0.16l-0.16-0.04l0.16,0.28L195.08,145.56z M194.84,144.26h-0.08
				c0,0.08,0.08,0.16,0.16,0.28c0.04,0.08,0.12,0.16,0.16,0.2c0.08-0.04,0.16-0.08,0.24-0.16c0.08-0.08,0.2-0.12,0.32-0.24
				c-0.12,0.04-0.2,0.04-0.24,0.04h-0.08c-0.04,0.04-0.08,0.04-0.08,0.04l-0.08,0.04c-0.04-0.04-0.08-0.08-0.08-0.12
				c0-0.04,0-0.08-0.08-0.12h-0.04C194.92,144.26,194.92,144.26,194.84,144.26z M194.96,143.25h0.2l-0.08-0.28l-0.12,0.04V143.25z
				 M195.08,147.96V148c0.12,0.04,0.16,0.08,0.16,0.08l0.89-0.49c-0.2,0.08-0.37,0.08-0.45,0.08c-0.04,0.04-0.12,0.08-0.28,0.08
				c-0.16,0.04-0.32,0.08-0.45,0.16c0.04,0.04,0.08,0.04,0.08,0.04H195.08z M195.73,144.79h-0.08c0,0-0.08,0-0.12,0.04
				c0,0,0.04-0.04,0.04-0.08h-0.32c-0.04,0.04-0.08,0.04-0.16,0.04c0.04,0.12,0.08,0.16,0.16,0.16l0.08,0.08
				c0.04-0.04,0.08-0.04,0.12-0.12h0.37l0.32-0.08l-0.08-0.12L195.73,144.79z M195.89,149.74l-0.41,0.08h-0.08
				c0,0-0.08,0.04-0.16,0.04c0.08,0.08,0.08,0.2,0,0.28c0.16,0,0.28-0.04,0.32-0.12c0.2-0.12,0.24-0.16,0.16-0.12
				C195.73,149.91,195.81,149.87,195.89,149.74z M195.89,145.52v-0.12c0-0.08-0.08-0.16-0.24-0.2l-0.32,0.08v0.16
				C195.53,145.56,195.73,145.56,195.89,145.52z M195.32,146.82l0.16,0.37C195.65,147.02,195.57,146.94,195.32,146.82z
				 M195.65,146.13l0.24,0.57l0.16-0.04l-0.24-0.57L195.65,146.13z M196.5,147.67c0,0,0.04,0,0.12-0.08l0.08-0.08l0.08-0.04
				l-0.12-0.28h-0.16c-0.04,0-0.12-0.04-0.2-0.08c0,0.08,0.04,0.16,0.08,0.24c0,0,0,0.04,0.04,0.04v0.08c0.04,0.04,0.04,0.08,0,0.12
				c0,0.04-0.12,0.08-0.28,0.2C196.34,147.75,196.46,147.71,196.5,147.67z M196.22,144.91l0.16,0.24l0.16-0.08l-0.12-0.24
				L196.22,144.91z M197.48,147.35c-0.32-0.16-0.49-0.28-0.53-0.41v-0.2c0,0,0-0.04,0.04-0.04l-0.04-0.04
				c-0.12,0.04-0.2,0.08-0.24,0.08c-0.04,0.04-0.08,0.04-0.2,0.08l-0.08,0.08l-0.12,0.08c0.08,0,0.16,0.04,0.28,0.04
				c0.04,0,0.12,0,0.24,0.04c0.04,0.12,0.08,0.2,0.16,0.28C197.07,147.47,197.23,147.43,197.48,147.35z M196.42,138.82l0.04,0.04
				l0.08-0.12h-0.08L196.42,138.82z M197.03,148.85l-0.28-0.28l-0.24,0.24c0.04,0.04,0.08,0.04,0.08,0.04
				c0.04,0,0.08,0.08,0.08,0.08L197.03,148.85z M197.27,148.97c0.08,0,0.12,0,0.16-0.04l-0.04-0.04c-0.04,0-0.08,0-0.16-0.08
				C197.15,148.93,197.19,148.97,197.27,148.97z M197.92,149.18c-0.08,0-0.16-0.04-0.24-0.04c0,0.04-0.08,0.04-0.12,0.04h-0.04
				l-0.16,0.24v0.04h0.04l0.16-0.24c0.12-0.04,0.2-0.04,0.32,0L197.92,149.18z M197.43,141.5l0.16,0.08l0.12-0.16l-0.16-0.04
				L197.43,141.5z M197.43,142.84c0.04,0.12,0.08,0.2,0.16,0.24c0.08-0.04,0.08-0.08,0.04-0.2h-0.16L197.43,142.84z M197.43,146.13
				c0.12,0.04,0.2,0.08,0.28,0.08c0.08-0.04,0.08-0.16-0.04-0.24L197.43,146.13z M197.56,148.4l-0.04,0.2l0.2,0.04l0.04-0.24H197.56
				z M197.8,147.88l0.08,0.16l0.53-0.41l-0.2-0.04C198.21,147.84,198.21,147.88,197.8,147.88z M198.45,149.22l-0.04-0.04
				c-0.08,0.04-0.16,0.12-0.2,0.2h-0.04l0.04,0.04c0.04-0.08,0.08-0.16,0.2-0.2H198.45z M198.61,139.8h-0.08v0.12h0.08V139.8z"/>
			<path class="st7" d="M225.16,132.86c0,1.06-0.24,2.23-0.53,3.25c-0.08,0.41-0.37,0.61-0.77,0.61h-5.64
				c-0.49,0-0.81-0.37-0.81-0.81c0-0.08,0-0.2,0.04-0.28c0.12-0.41,0.41-1.5,0.61-2.31c0.12-0.65,0.24-1.26,0.24-1.79
				c0-0.28-0.04-0.49-0.12-0.69c-0.2-0.32-0.45-0.49-0.77-0.49c-2.92,0-4.87,6.78-4.87,11.04c0,1.87,0.24,5.2,2.27,5.56
				c0.97,0.12,1.95-0.28,2.84-1.18c0.2-0.16,0.37-0.41,0.57-0.65c0.16-0.24,0.32-0.49,0.49-0.69c0.53-0.77,1.06-1.62,1.62-2.6
				c0.16-0.24,0.45-0.37,0.69-0.37c0.2,0,0.45,0.08,0.61,0.24l2.44,2.56c0.16,0.16,0.2,0.37,0.2,0.53c0,0.16,0,0.28-0.08,0.41
				c-0.85,1.58-1.91,3.41-3.21,4.67c-1.83,1.83-3.86,2.88-6.05,3.13L214.4,154c0.08,0,0.12,0,0.2,0c1.87,0,3.57,0.97,3.57,3.04
				c0,2.56-2.72,3.9-5.48,3.9c-1.95,0-3.9-0.65-4.95-2.03c0.2-0.65,0.61-1.54,1.38-2.35c1.01,0.89,2.44,1.79,4.06,1.54
				c0.97-0.16,1.06-1.62,0-1.62c-0.53,0-0.89,0.16-1.1,0.37c-0.61-0.16-1.34-0.37-1.95-0.89c0.45-1.14,1.02-2.31,1.46-3.21
				l-0.45-0.12c-3.86-1.06-6.37-5.56-6.37-11.24c0-6.29,2.35-10.59,5.2-13.68c1.91-2.15,4.38-3.04,7.14-3.04
				c0.45,0,0.89,0.04,1.34,0.08c2.39,0.24,4.46,1.34,5.72,3.49C224.95,129.57,225.28,131.11,225.16,132.86z M205.39,140.33h-0.28
				v0.12c-0.04,0.08-0.04,0.12-0.04,0.12c0,0.08,0,0.12,0.04,0.16l0.08,0.12c0.12-0.08,0.2-0.16,0.2-0.2V140.33z M206.4,145.48
				l-0.12-0.08H206l-0.2,0.08v0.16c0.04,0,0.08,0.04,0.08,0.04s0.08,0,0.12,0.04c0.04-0.04,0.04-0.04,0.12-0.04
				C206.2,145.6,206.36,145.52,206.4,145.48z M207.54,136.02h-0.08l-0.04-0.04c-0.16,0.04-0.28,0.12-0.28,0.2l0.16,0.08
				C207.46,136.19,207.54,136.11,207.54,136.02z M207.54,135.01h-0.2v0.08h0.2V135.01z M208.48,137.61c-0.04,0-0.08-0.04-0.16-0.08
				c-0.08-0.04-0.16-0.04-0.24-0.04h-0.24l0.04,0.08c0,0.08,0.04,0.12,0.04,0.12c0.16,0,0.37,0.04,0.57,0.12V137.61z M207.91,134.97
				c0,0.08,0.16,0.2,0.2,0.2C208.11,135.09,208.07,135.05,207.91,134.97z M207.91,136.8h0.2l0.04-0.04c0.04,0,0.04-0.04,0.04-0.08
				c-0.04-0.04-0.04-0.04-0.04-0.08h-0.24V136.8z M208.07,133.59c0.08,0.08,0.16,0.08,0.2,0.08h0.2L208.07,133.59z M208.48,134.36
				h-0.28c-0.04,0.2,0.04,0.32,0.24,0.41c0.12-0.08,0.16-0.12,0.16-0.2c0-0.08,0-0.12-0.04-0.12
				C208.48,134.4,208.48,134.4,208.48,134.36z M208.43,137.89c-0.08,0-0.12,0.08-0.12,0.16c0,0.04,0.04,0.08,0.04,0.08
				c0.04,0,0.04,0,0.08,0.08V137.89z M208.64,136.11h0.12v-0.24c-0.12,0-0.16-0.04-0.16-0.08c-0.04,0.08-0.08,0.16-0.08,0.2
				c-0.04,0.08-0.08,0.12-0.08,0.16C208.48,136.15,208.56,136.15,208.64,136.11z M209.81,135.05c-0.2-0.16-0.57-0.45-0.69-0.45h-0.2
				c0.08,0.04,0.12,0.12,0.12,0.2c0,0.08,0,0.12-0.04,0.12h-0.08l-0.04-0.04h-0.08c-0.04,0-0.08,0.04-0.08,0.04
				c-0.08,0.04-0.08,0.08-0.08,0.08s0.04,0.04,0.08,0.04c0,0.08,0.04,0.08,0.04,0.08c0.04,0,0.16,0,0.32-0.08
				c0.12-0.08,0.2-0.12,0.28-0.12c0.04,0,0.08,0.04,0.16,0.08c0,0.04,0.08,0.04,0.12,0.04H209.81z M208.72,133.26
				c0.08,0.08,0.16,0.12,0.24,0.12l0.08-0.12c-0.08-0.08-0.2-0.16-0.32-0.16V133.26z M208.96,136.27h-0.2l-0.04,0.16h0.2
				L208.96,136.27z M208.76,133.59v0.16c0.2,0,0.45,0.04,0.53,0.08c0.08-0.04,0.12-0.12,0.12-0.24H208.76z M209.29,145.93h-0.08
				v0.32h0.08V145.93z M209.65,159.04l-0.12-0.24l-0.24,0.12l0.16,0.24L209.65,159.04z M209.77,135.37l-0.32-0.04v0.08l0.32,0.04
				V135.37z M210.34,133.26c-0.04-0.08-0.08-0.16-0.08-0.24c0-0.16-0.08-0.37-0.32-0.49c-0.08-0.04-0.16-0.12-0.12-0.24
				c-0.16,0.12-0.24,0.2-0.24,0.28c0,0.04,0.08,0.08,0.2,0.12c0.08,0.04,0.2,0.04,0.28,0.04c-0.04,0.12-0.12,0.2-0.2,0.28
				c-0.08,0.12-0.12,0.2-0.12,0.24c0,0.08,0.04,0.16,0.08,0.16h0.04c0-0.04,0.04-0.04,0.08-0.04c0.08,0,0.12,0,0.16,0.04
				c0-0.04,0,0,0.08,0.08c0-0.08,0-0.08,0.08-0.12C210.26,133.39,210.26,133.34,210.34,133.26z M209.98,135.13
				c-0.04,0.08-0.12,0.24-0.12,0.32c0,0.08,0.04,0.16,0.08,0.24h0.12C210.1,135.58,210.1,135.37,209.98,135.13z M210.02,138.42
				c0-0.12,0-0.2-0.04-0.28c-0.08,0.08-0.12,0.2-0.12,0.32c0,0.08,0,0.16,0.08,0.24c0.04,0.12,0.04,0.2,0.04,0.24
				C210.02,138.78,210.02,138.62,210.02,138.42z M210.18,133.83h-0.2v0.08h0.2V133.83z M210.42,159.08c-0.08,0-0.2,0-0.41,0.12
				l0.16,0.24C210.34,159.24,210.42,159.12,210.42,159.08z M210.87,132.7c0-0.04-0.04-0.08-0.08-0.12l-0.12-0.08
				c-0.04,0-0.04,0.04-0.08,0.04c0,0.08-0.04,0.08-0.08,0.08L210.87,132.7z M211.36,159.69l-0.12-0.2l-0.37,0.2l0.12,0.2
				L211.36,159.69z M211.11,132.65l-0.04-0.04C211.07,132.65,211.11,132.65,211.11,132.65z M211.24,132.25h-0.12v0.12h0.12V132.25z
				 M211.4,155.18c-0.08-0.04-0.12-0.08-0.12-0.12c-0.04-0.04-0.12,0.04-0.16,0.12v0.08l0.24,0.08l0.04-0.12
				C211.36,155.22,211.4,155.18,211.4,155.18z M212.66,131.32l-0.04-0.04c0,0-0.04,0-0.08-0.04c-0.04,0-0.08,0.04-0.08,0.08H212.66z
				 M213.59,133.95h-0.08v0.12h0.08V133.95z M214.52,125.8c0,0-0.04,0-0.04-0.08v-0.08h-0.61c0.12,0,0.24,0.04,0.28,0.08
				c0.04,0,0.08,0.04,0.08,0.08v0.04c0,0,0.04,0.04,0.12,0.04c0.08,0,0.12,0,0.12-0.04L214.52,125.8z M214.52,158.92l0.16,0.24
				l0.16-0.16v-0.08l0.04-0.04c-0.16-0.04-0.24-0.08-0.24-0.04C214.52,158.84,214.52,158.88,214.52,158.92z M214.89,156.77
				l0.45,0.12l0.32,0.12c-0.12-0.24-0.28-0.28-0.37-0.45c-0.16-0.08-0.28-0.12-0.37-0.2L214.89,156.77z M215.38,127.54l-0.12-0.08
				l-0.04,0.08l0.08,0.04L215.38,127.54z M215.25,125.8h0.2l0.16-0.16h-0.37V125.8z M215.7,126.53c-0.04-0.04-0.08-0.08-0.08-0.12
				h-0.16c-0.08,0.08-0.12,0.12-0.16,0.12c0.04,0,0.08,0.04,0.2,0.04c0.08,0.04,0.16,0.04,0.2,0.04V126.53z M215.74,157.58
				l-0.41-0.12l-0.04,0.2l0.37,0.12L215.74,157.58z M215.62,158.15l-0.2-0.08l-0.12,0.28l0.24,0.08L215.62,158.15z M215.33,156.48
				l0.32-0.04v-0.16l-0.28,0.04L215.33,156.48z M215.78,126.28l0.16-0.12c-0.12-0.04-0.16-0.12-0.16-0.2h-0.24
				c-0.04,0-0.08,0.04-0.08,0.08c0,0.08,0.08,0.12,0.16,0.16C215.7,126.24,215.74,126.28,215.78,126.28z M216.39,129.41h-0.24
				c-0.08,0.12-0.12,0.2-0.12,0.24c-0.04,0.08-0.08,0.16-0.12,0.2h0.24c0.04-0.08,0.12-0.16,0.12-0.2L216.39,129.41z M217.4,151.73
				l0.12,0.04l0.24-0.49l-0.12-0.08L217.4,151.73z M218.54,128.84h-0.32v0.53l0.32-0.04V128.84z M218.46,126.44
				c0-0.08,0.04-0.12,0.04-0.12c0.04-0.04,0.04-0.12,0-0.16c-0.04,0-0.12,0.04-0.24,0.16C218.42,126.36,218.46,126.4,218.46,126.44z
				 M219.23,125.96c0.12-0.04,0.24-0.04,0.41-0.04c0.12-0.08,0.08-0.08,0.16-0.2c0.04,0,0.16-0.04,0.24-0.08
				c0.08-0.04,0.16-0.08,0.24-0.16c-0.04-0.04-0.12-0.08-0.24-0.08s-0.16,0-0.2-0.04c-0.04,0.04-0.08,0.08-0.04,0.12
				c0.04,0.08,0.04,0.12,0,0.16c-0.12,0.04-0.2,0.08-0.24,0.16c-0.08,0.08-0.16,0.08-0.2,0.08c-0.08,0-0.16,0-0.2,0.04
				c-0.12,0-0.16-0.04-0.2-0.04c-0.04-0.04-0.04-0.08,0-0.12c0-0.04-0.04-0.08-0.08-0.12c-0.2,0.04-0.32,0.12-0.41,0.2
				c0.12,0.04,0.16,0.12,0.12,0.2l0.53,0.24v-0.08c0-0.04,0-0.04,0.04-0.04C219.07,126.04,219.11,126,219.23,125.96z M218.66,125.39
				c0.12,0.08,0.24,0.16,0.32,0.16c0.08,0,0.16-0.04,0.28-0.08c0.16-0.04,0.28-0.04,0.37-0.04l-0.16-0.12
				c-0.12-0.04-0.24-0.04-0.32-0.04c-0.08-0.04-0.2-0.04-0.32-0.08C218.7,125.27,218.66,125.35,218.66,125.39z M218.78,128.31
				c-0.08,0-0.08,0-0.08,0.04v0.12C218.74,128.43,218.78,128.39,218.78,128.31z M220.21,131.4l0.04,0.04
				c-0.12,0.2-0.16,0.16-0.32,0.2c-0.04,0.04-0.08,0.04-0.16,0.04c-0.04,0-0.08,0-0.16,0.04v0.16c0.12,0.08,0.2,0.08,0.24,0.08
				c0.08,0.04,0.16,0.04,0.2,0.04l0.28-0.08l0.24-0.16C220.61,131.64,220.21,131.4,220.21,131.4z M220.08,130.26l-0.04,0.45
				l0.16,0.12c0.04-0.08,0.08-0.16,0.12-0.2c0.08-0.08,0.08-0.16,0.08-0.2C220.41,130.34,220.33,130.26,220.08,130.26z
				 M220.81,125.88h-0.2v0.08h0.2V125.88z M221.1,142.6c0-0.04,0.04-0.08,0.08-0.12c0.04-0.04,0.04-0.08,0.04-0.12l-0.2-0.12
				c-0.04,0.04-0.04,0.04-0.04,0v0.08C220.94,142.4,220.98,142.48,221.1,142.6z M221.34,131.8c0.04,0,0.12-0.04,0.2-0.08
				c0.16-0.04,0.24-0.08,0.2-0.08l0.16-0.04v-0.2c-0.08-0.08-0.12-0.08-0.12-0.12c-0.04,0-0.08-0.04-0.16-0.08
				c-0.08-0.04-0.16-0.08-0.24-0.08c-0.16,0-0.37,0.32-0.37,0.37C221.02,131.64,221.06,131.8,221.34,131.8z M221.1,130.79l0.45,0.08
				v-0.08l0.04-0.04c0-0.04,0-0.04,0.04-0.04v-0.08h-0.45L221.1,130.79z M222.03,132.05h-0.12c-0.12,0.04-0.2,0.08-0.24,0.08
				c-0.08,0-0.16-0.04-0.24-0.12l-0.04-0.04h-0.12c-0.12,0.16-0.16,0.28-0.16,0.41c0.04,0.04,0.12,0.08,0.24,0.12
				c0.12,0.04,0.24,0.08,0.28,0.12l0.16-0.12c0-0.12-0.04-0.16-0.12-0.2c0.04,0,0.04-0.04,0.08-0.04v-0.04h0.12
				c0.04-0.08,0.08-0.08,0.08-0.08L222.03,132.05z M222.24,134.2l-0.08-0.04h-0.04l0.04,0.08L222.24,134.2z"/>
			<path class="st7" d="M246.1,138.54v0.12h0.04c-0.08,1.46-0.37,3.25-0.57,4.3l-0.12-0.12c-0.08-0.08-0.12-0.12-0.12-0.16h-0.37
				c-0.04,0.04-0.04,0.12-0.04,0.12v0.04c0.08,0,0.16,0,0.2,0.04h0.24c0,0.08,0.08,0.12,0.2,0.16l-0.28,1.18h-0.24v0.04h0.24
				c-0.04,0.24-0.08,0.37-0.2,0.65c-0.04,0.12-0.16,0-0.16,0.08l0.12,0.08c-0.41,1.14-0.85,2.19-1.38,3.09h-0.04l-0.24,0.2
				l0.08,0.12l-0.57,0.77c-1.87,2.52-4.34,3.77-7.39,3.77c-2.8,0-4.95-1.1-6.53-3.29v-0.08h-0.08c-0.08-0.12-0.16-0.2-0.2-0.32
				c-0.77-1.18-1.34-2.56-1.66-4.14l0.04-0.08c0-0.04,0-0.08,0.04-0.12c0-0.04-0.04-0.08-0.12-0.12v0.08
				c-0.16-0.85-0.24-1.75-0.28-2.64c0.16-0.28,0.2-0.53,0.28-1.22l0.08-0.16v-0.24c-0.04-0.12-0.04-0.2-0.04-0.28v-0.28
				c-0.04-0.04-0.04-0.12-0.04-0.16v-0.81c0-0.08,0-0.2,0.04-0.28c0-0.12-0.04-0.28-0.08-0.37c0-0.04-0.04-0.08-0.08-0.12
				c0.04-0.37,0.08-0.81,0.16-1.22c0.65-4.18,2.07-8.85,5.68-11.41c1.38-0.93,2.88-1.42,4.55-1.42c3.57,0,6.21,1.87,7.47,4.42
				c1.22,2.6,1.75,5.56,1.42,9.78H246.1z M227.19,142.64h-0.16c-0.04,0-0.08,0.04-0.08,0.08c0,0.04,0.04,0.08,0.08,0.12
				c0.04,0.04,0.08,0.04,0.16,0.08c0-0.04,0-0.08,0.04-0.12C227.27,142.72,227.23,142.68,227.19,142.64z M227.35,141.38h-0.08v1.01
				h0.08V141.38z M227.59,136.88c0-0.08,0-0.12-0.04-0.2c-0.12,0.12-0.2,0.2-0.2,0.28c0,0.04,0.04,0.04,0.08,0.08
				c0.08,0,0.12,0.04,0.12,0.04C227.55,137.04,227.55,136.96,227.59,136.88z M227.47,137.36h-0.08v0.16h0.08V137.36z M228.4,142.56
				h-0.2v0.04l0.2,0.04V142.56z M228.53,144.26c0.04,0,0.08,0,0.12,0.08c0,0.08,0.04,0.12,0,0.16c0,0.08,0,0.16,0.04,0.16
				c0.04-0.04,0.12-0.04,0.16-0.04v-0.12c-0.12-0.08-0.2-0.16-0.16-0.24c0.04-0.08,0-0.16-0.12-0.2c-0.04,0-0.04,0-0.04,0.04
				c-0.04,0.04-0.04,0.08-0.04,0.08C228.49,144.22,228.49,144.26,228.53,144.26z M228.53,143.7c0,0,0.04,0.08,0.16,0.16v-0.32
				l-0.12,0.08C228.53,143.61,228.53,143.65,228.53,143.7z M228.53,145.08c0,0.08,0.08,0.41,0.24,0.57l-0.12,0.08
				c-0.04,0-0.04,0.04-0.04,0.04l0.08,0.04c0.04-0.04,0.12-0.04,0.16-0.04v-0.49c0.04-0.12,0-0.28,0-0.45h-0.16
				c-0.04,0.04-0.04,0.04-0.04,0.08c-0.04,0-0.04,0.04-0.08,0.04C228.53,144.99,228.53,145.03,228.53,145.08z M229.05,148.57
				c0-0.04,0-0.08-0.04-0.16c-0.04,0-0.04-0.08-0.04-0.12h-0.12c-0.04,0.04-0.08,0-0.12-0.04c0.04-0.04,0.12-0.08,0.2-0.08
				c0.04-0.2,0.08-0.49,0.08-0.85c-0.2-0.08-0.28-0.12-0.28-0.16v-0.2c0-0.08,0-0.12-0.04-0.16l-0.04,0.73
				c0.08,0,0.16,0.04,0.2,0.08c-0.32,0.2-0.28,0.16-0.28,0.41c0,0.04,0,0.08,0.04,0.2c0.04,0.08,0.08,0.2,0.08,0.32
				c0.04,0,0.12,0.04,0.2,0.08c-0.08,0.04-0.12,0.08-0.16,0.08c-0.04,0.04-0.04,0.04-0.04,0.08l0.04,0.04c0,0,0,0.04,0.04,0.04
				C228.73,148.85,229.05,148.65,229.05,148.57z M229.14,142.84h-0.08c0-0.04-0.08-0.04-0.16-0.04c-0.24,0-0.32,0.32-0.32,0.41
				c0,0.08,0.04,0.16,0.08,0.24h0.37l0.12-0.12V142.84z M228.69,146.33v0.16c0.04-0.04,0.04-0.08,0.08-0.08
				c0.04-0.04,0.08-0.04,0.08-0.08H228.69z M229.01,148.93l-0.08-0.04h-0.16c0,0.04-0.04,0.04-0.08,0.04v0.24h0.12
				c0-0.04,0.04-0.04,0.08-0.04c0.04,0,0.08-0.04,0.12-0.04V148.93z M231.57,140.61l-0.08-0.12c-0.04,0.08,0,0.12,0.08,0.2
				C231.61,140.65,231.61,140.61,231.57,140.61z M232.06,142.11c-0.04,0-0.08,0.12,0,0.12V142.11z M233.52,148.16
				c0-0.16-0.24-0.28-0.28-0.28c0.04-0.04,0.04-0.12,0.04-0.28h-0.2c-0.45,0.16-0.89,0.32-0.85,0.73c0.12,0,0.24,0.08,0.32,0.16
				c0.04,0,0.08,0.04,0.12,0.08c0.08,0.08,0.2,0.12,0.24,0.12C233.23,148.69,233.52,148.4,233.52,148.16z M239.24,139.92
				c0.04,0,0.12,0,0.12-0.04c0-0.04,0.04-0.12,0.08-0.16c0.08,0.04-0.12-0.08-0.24-0.08c0.16-1.87,0.24-3.53,0.2-5.32
				c-0.04-0.89-0.12-1.71-0.28-2.48h0.04l0.04,0.04h0.24c0-0.04,0-0.12-0.08-0.2c-0.12,0.04-0.2,0.08-0.24,0.16
				c-0.08-0.41-0.2-0.73-0.32-0.97c-0.32-0.77-0.85-1.1-1.58-0.93c-1.3,0.37-2.03,2.52-2.31,3.61c-0.81,2.84-1.01,6.05-1.01,8.97
				c0,1.1,0.12,3.21,1.18,3.86c0.16,0.08,0.32,0.16,0.57,0.16c1.42,0.24,2.11-0.89,2.52-2.11c0.49-1.42,0.81-2.92,0.97-4.51
				c0.04,0.04,0.04,0.04,0.08,0.04S239.24,139.92,239.24,139.92z M234.29,150.11c-0.04,0-0.04-0.04-0.04-0.08l-0.16,0.08
				c0.04,0.04,0.08,0.08,0.2,0.08V150.11z M234.13,126.24c0.16,0,0.24,0,0.28,0.04c0.04,0,0.04,0.04,0.04,0.04
				c0,0.04,0,0.08,0.04,0.08c0,0,0.04,0.04,0.12,0.04c0.04,0,0.12-0.04,0.16-0.08c0,0,0-0.04-0.04-0.04c0-0.04-0.04-0.08-0.04-0.08
				H234.13z M234.94,131.68h-0.28l0.08,0.2c0.08,0,0.16-0.04,0.24-0.08C234.98,131.76,234.94,131.68,234.94,131.68z M235.47,126.4
				h0.2l0.2-0.16h-0.41V126.4z M236.03,126.53h-0.24v0.04h-0.04v0.04c0.04,0.12,0.16,0.2,0.28,0.2c0.08,0,0.12-0.04,0.16-0.08
				C236.08,126.73,236.03,126.65,236.03,126.53z M237.98,149.38l-0.08-0.08h-0.28c-0.2,0-0.45,0.12-0.73,0.32l0.73,0.08
				c0.04-0.04,0.12-0.08,0.16-0.08c0.04,0,0.12,0,0.2-0.08V149.38z M237.58,150.84l-0.12-0.08h-0.12c-0.12,0-0.24,0.08-0.28,0.16
				c0.12,0.08,0.24,0.16,0.37,0.16c0.04,0,0.08-0.04,0.16-0.08V150.84z M237.62,149.99c-0.04,0-0.08,0-0.08-0.04h-0.12
				c-0.16,0.04-0.2,0.12-0.2,0.16c0,0.08,0,0.12,0.04,0.12c0,0.04,0,0.04,0.04,0c0.04,0,0.08,0,0.16-0.04h0.16V149.99z
				 M238.19,126.4h0.28v-0.08h-0.28V126.4z M238.71,126.44c0.12,0.04,0.2,0.08,0.2,0.2c0.04,0.12,0.12,0.16,0.37,0.16
				c0.08,0,0.12-0.04,0.08-0.08c-0.08-0.04-0.04-0.12,0.08-0.2c0.24,0,0.37-0.04,0.41-0.04c0.08,0,0.12-0.04,0.12-0.08
				c0,0,0.04-0.04,0.04-0.12c0.08-0.04,0.16-0.08,0.24-0.08s0.16-0.04,0.24-0.16c0-0.04-0.08-0.04-0.16-0.04
				c-0.12,0-0.2-0.04-0.24-0.08c-0.04,0.04-0.04,0.08-0.04,0.16c0,0.04,0,0.08-0.04,0.12c-0.04,0-0.08,0.04-0.16,0.12
				c-0.08,0.08-0.16,0.12-0.24,0.12h-0.12c-0.04,0.04-0.04,0.04-0.08,0.04c-0.2,0.04-0.28-0.08-0.24-0.16v-0.12
				C238.96,126.24,238.75,126.36,238.71,126.44z M238.96,125.96c0.08,0.12,0.16,0.16,0.24,0.16s0.24-0.04,0.37-0.04l0.28-0.08
				l-0.08-0.08v-0.04c-0.08,0-0.12,0-0.16-0.04h-0.16c-0.12,0-0.24-0.04-0.37-0.08C239,125.84,238.96,125.88,238.96,125.96z
				 M239.36,142.76c0.08-0.08,0.45-0.16,0.73-0.16c0.08,0,0.12,0,0.16,0.04h0.16c0.12,0,0.41-0.08,0.57-0.16v-0.12l-0.04-0.04h-0.45
				c-0.04,0-0.16,0-0.32-0.04l-0.16-0.04c-0.08,0-0.16,0-0.24,0.08c-0.08,0.04-0.16,0.08-0.24,0.16c-0.08-0.08-0.12-0.08-0.16-0.08
				v-0.16C239.28,142.4,239.28,142.56,239.36,142.76z M239.4,141.83h-0.04c-0.04,0-0.04,0.04-0.04,0.08c0.04,0,0.04,0.04,0.04,0.08
				c0-0.04,0.08-0.08,0.16-0.12C239.44,141.87,239.4,141.83,239.4,141.83z M239.53,143.9c0,0-0.04-0.04-0.08-0.04
				c-0.04,0-0.08-0.04-0.08-0.08c-0.04,0.08-0.04,0.08-0.04,0.12C239.36,143.9,239.44,143.94,239.53,143.9z M239.53,141.26
				c0.04,0.08,0.08,0.16,0.16,0.24c0.08,0.08,0.2,0.12,0.32,0.12c0.16,0,0.24-0.04,0.32-0.12v-0.16c-0.2,0-0.41-0.04-0.53-0.08
				c-0.2,0-0.37-0.04-0.45-0.08v0.2C239.36,141.38,239.44,141.34,239.53,141.26z M239.53,137.93c-0.08,0.16-0.08,0.24,0,0.28
				c0.04-0.04,0.08-0.04,0.08-0.04c0.04,0,0.08-0.04,0.08-0.04C239.69,138.05,239.57,137.93,239.53,137.93z M239.53,136.63v0.08
				c0.08,0,0.16,0.04,0.24,0.04c0.08,0.04,0.16,0.04,0.24,0.04c0,0,0.04,0,0.08-0.04v-0.08c-0.08-0.08-0.2-0.12-0.32-0.12
				C239.65,136.55,239.53,136.59,239.53,136.63z M239.53,137.36v0.12c0,0.04,0.04,0.04,0.08,0.04c0,0,0.04,0,0.08,0.08
				c0-0.04,0.08-0.08,0.2-0.12l0.2-0.12l-0.08-0.24C239.85,137.2,239.65,137.28,239.53,137.36z M241.11,148.12
				c-0.12-0.12-0.32-0.24-0.53-0.32c-0.16-0.04-0.32-0.08-0.41-0.12c-0.08-0.04-0.08-0.08-0.08-0.16l-0.08-0.08l-0.08-0.04h-0.08
				c-0.16,0-0.24,0.04-0.24,0.16c0,0.12-0.04,0.2-0.08,0.28c0.04,0.04,0.08,0.08,0.12,0.08c0.04,0.08,0.08,0.08,0.12,0.08
				c0.04,0.08,0.08,0.08,0.08,0.16v0.08c0.2,0.12,0.57,0.24,0.61,0.24C240.54,148.48,241.07,148.2,241.11,148.12z M239.77,139.43
				c0.04,0,0.08,0.04,0.16,0.04c0.08,0,0.45-0.12,0.81-0.24l-0.49-0.24c-0.08-0.04-0.16-0.08-0.2-0.12l-0.2-0.12
				c-0.12,0.08-0.16,0.08-0.16,0.08c0,0.08-0.04,0.16-0.08,0.24v0.32C239.61,139.39,239.69,139.39,239.77,139.43z M239.77,140.49
				l-0.12,0.12c0.2-0.04,0.45-0.08,0.61-0.16h-0.08c0-0.04-0.08-0.04-0.16-0.04C239.93,140.41,239.85,140.45,239.77,140.49z
				 M240.34,134.2l0.16-0.08v-0.37c-0.12-0.08-0.24-0.12-0.41-0.12c-0.04,0-0.04,0.04-0.04,0.08c0,0.08,0,0.08-0.04,0.12l-0.16,0.12
				c-0.08,0.04-0.16,0.08-0.16,0.12c0,0.04,0.08,0.12,0.16,0.16h0.32C240.18,134.24,240.26,134.2,240.34,134.2z M240.01,150.35
				h-0.16c-0.08,0-0.16,0.04-0.16,0.16c0,0.04,0.04,0.08,0.08,0.08l0.08,0.08c0.04-0.04,0.12-0.04,0.24-0.04
				C240.18,150.51,240.13,150.39,240.01,150.35z M240.66,139.72c0-0.08,0-0.12-0.04-0.12c0,0-0.04-0.04-0.08-0.04
				c-0.2,0-0.45-0.04-0.61,0.2c0.08,0.12,0.16,0.16,0.32,0.16C240.34,139.92,240.66,139.84,240.66,139.72z M240.34,149.7l0.16-0.12
				c0-0.04-0.08-0.2-0.08-0.24c-0.04,0.04-0.08,0.04-0.2,0.12c-0.08,0-0.12,0.04-0.12,0.08c0,0.04,0.04,0.08,0.08,0.08
				C240.26,149.62,240.3,149.66,240.34,149.7z M240.42,143.29v-0.08h-0.24v0.08H240.42z M240.26,145.85c-0.04,0-0.08-0.04-0.08-0.04
				v0.2c0.08,0,0.16-0.08,0.16-0.16H240.26z M240.82,138.5c-0.16-0.08-0.2-0.2-0.2-0.32c0.04-0.08,0-0.16-0.12-0.28
				c0,0,0,0.04-0.08,0.04c-0.04,0.04-0.12,0.04-0.12,0.04c0.04,0.04,0.04,0.08,0,0.12c-0.04,0.08-0.04,0.12-0.04,0.16
				c0,0,0.04,0.08,0.12,0.16c0.08,0.12,0.2,0.2,0.32,0.24C240.78,138.58,240.82,138.54,240.82,138.5z M240.42,143.61
				c0.12,0.08,0.24,0.08,0.37,0l-0.08-0.16c-0.04,0.04-0.08,0.08-0.16,0.12C240.46,143.57,240.42,143.61,240.42,143.61z
				 M240.54,150.31l-0.12,0.08l0.12,0.12C240.58,150.43,240.58,150.35,240.54,150.31z M240.66,136.67c-0.04,0-0.08,0-0.16,0.04
				c0.04,0.04,0.08,0.08,0.12,0.08h0.12v-0.04l0.04-0.04C240.78,136.67,240.74,136.67,240.66,136.67z M240.62,141.06l0.08,0.24
				c0.08-0.04,0.12-0.12,0.12-0.16C240.78,141.1,240.7,141.06,240.62,141.06z M240.87,126.53h0.2v-0.08h-0.2V126.53z M240.87,134.56
				h0.08c0.04-0.04,0.08-0.04,0.12-0.04c0,0,0-0.04-0.08-0.08l-0.12-0.08V134.56z M240.91,140.08v0.2l0.28-0.04
				C241.11,140.16,240.95,140.08,240.91,140.08z M241.15,137.24h0.12v-0.2h-0.12V137.24z M242.45,144.99v-0.32
				c-0.04-0.04-0.16-0.08-0.2-0.08c-0.04,0.04-0.04,0.08-0.08,0.08s-0.04,0.04-0.08,0.08c-0.04,0.04-0.08,0.08-0.16,0.08l-0.24-0.08
				v-0.12c0.16-0.04,0.28-0.08,0.28-0.12v-0.16h-0.24c-0.16,0-0.32,0.08-0.53,0.12v0.28c0,0.12,0.04,0.16,0.04,0.24h0.24
				c0.2,0,0.41-0.08,0.61-0.16C242.2,144.95,242.29,144.99,242.45,144.99z M241.6,145.32c-0.16-0.12-0.32-0.2-0.41-0.24v0.16
				l0.12,0.08H241.6z M241.35,137.53h0.28c0-0.08,0-0.16-0.08-0.32c0,0.08,0,0.12-0.08,0.16
				C241.39,137.44,241.35,137.49,241.35,137.53z M241.35,138.34c0.08,0.08,0.12,0.04,0.08-0.04c0-0.04-0.04-0.08-0.04-0.12
				c0,0-0.04,0.08-0.04,0.12V138.34z M242.53,144.26c0.04,0,0.04-0.04,0.04-0.12c0-0.04-0.04-0.12-0.12-0.16
				c-0.08-0.04-0.12-0.08-0.12-0.12c0-0.04,0.04-0.12,0.12-0.2c0.08-0.08,0.12-0.16,0.12-0.2c0-0.08-0.2-0.45-0.2-0.41h-0.45
				l0.08,0.08v0.24c0,0.08-0.04,0.2-0.08,0.28c-0.08-0.08-0.12-0.16-0.12-0.24c0-0.04-0.08-0.08-0.24-0.12
				c-0.12,0.16-0.16,0.32-0.12,0.49c0.12,0.04,0.2,0.04,0.37,0.04c0.12,0,0.24,0.04,0.37,0.08c-0.08,0.12-0.12,0.24-0.12,0.41
				c0.16,0.04,0.28,0.04,0.45,0C242.49,144.26,242.53,144.26,242.53,144.26z M241.84,140h-0.24c-0.04,0.12,0,0.2,0.12,0.28h0.2
				c0-0.08,0-0.16-0.04-0.16C241.88,140.08,241.84,140.04,241.84,140z M241.64,142.48c0,0.08,0.04,0.08,0.04,0.08
				c0.04,0,0.04,0.04,0.04,0.08h0.37c0.04,0.04,0.12,0.04,0.16,0.04c0.08-0.04,0.12-0.12,0.12-0.28c-0.16-0.04-0.28-0.08-0.37-0.08
				C241.84,142.32,241.64,142.28,241.64,142.48z M241.92,147.59c0.04,0,0.12,0,0.16-0.04h0.12l-0.08-0.2
				c-0.32,0.08-0.41,0.12-0.49,0.16C241.72,147.59,241.8,147.59,241.92,147.59z M242.37,147.75h-0.04c-0.04,0-0.12,0-0.12-0.04
				c0,0-0.04-0.04-0.12-0.04c-0.08,0-0.16,0.04-0.2,0.04c0,0.04-0.04,0.04-0.08,0.04h-0.08c0,0.04,0.08,0.08,0.12,0.12l0.08,0.12
				v0.12c-0.04,0-0.04,0.04-0.04,0.08h0.32c0.12-0.08,0.16-0.2,0.16-0.32V147.75z M241.88,142.15c0.16-0.04,0.2-0.08,0.2-0.16
				c-0.04-0.08-0.12-0.08-0.28-0.08L241.88,142.15z M241.96,141.42c0,0-0.04,0.04-0.04,0.08c0,0.08,0.04,0.12,0.16,0.16
				c0.08-0.08,0.12-0.12,0.2-0.16c-0.08-0.08-0.2-0.16-0.28-0.16C242,141.42,242,141.42,241.96,141.42z M242,140.69
				c0,0.08,0.04,0.12,0.08,0.12h0.12c0.04-0.08,0.08-0.16,0.04-0.24c-0.04-0.04,0.04-0.12,0.24-0.2c-0.04,0-0.04,0-0.04-0.04h-0.04
				c-0.04,0-0.04-0.04-0.04-0.04C242.12,140.41,242,140.69,242,140.69z M242.37,140.85v0.16c0.16,0.04,0.2,0.08,0.2,0.08l0.08-0.08
				v-0.04C242.61,140.89,242.53,140.85,242.37,140.85z M242.69,146.98h-0.08l-0.08,0.12l0.08,0.04L242.69,146.98z M242.77,139.47
				h0.08l0.08-0.08l-0.08-0.04L242.77,139.47z M242.81,138.46c0.04,0,0.12-0.04,0.32-0.04c0.12,0,0.2,0.04,0.24,0.16l-0.24,0.24
				c0.2,0.08,0.37,0.12,0.57,0.08c-0.16-0.12-0.2-0.2-0.08-0.24c0.08-0.08,0.12-0.12,0.2-0.16c-0.41-0.12-0.65-0.2-0.85-0.24
				l-0.08,0.08C242.85,138.42,242.81,138.42,242.81,138.46z M243.14,140.45v-0.08h-0.32v0.08H243.14z M242.81,140.89
				c0,0.08,0.04,0.12,0.08,0.12c0.08-0.04,0.12-0.08,0.12-0.12H242.81z M242.94,141.71v-0.12h-0.12v0.12H242.94z M243.3,142.6
				c0.08,0,0.16,0.04,0.2,0.08c0.04-0.08,0.08-0.16,0.08-0.2c-0.04-0.08-0.04-0.12-0.04-0.16c0-0.04,0.04-0.08,0.08-0.08h-0.08
				c-0.04,0-0.04,0-0.04-0.04c0.04,0.16-0.04,0.24-0.24,0.2c-0.12,0-0.24,0.04-0.37,0.12c0,0,0.04,0,0.12,0.04
				C243.1,142.6,243.18,142.6,243.3,142.6z M242.89,143.78l0.08,0.24c0.12-0.04,0.16-0.08,0.16-0.16c-0.04,0-0.08,0-0.12-0.04
				C243.02,143.82,242.94,143.78,242.89,143.78z M242.89,144.26c0,0,0.04,0.04,0.08,0.04l0.12,0.08c0.08-0.12,0.16-0.16,0.24-0.12
				c0.08,0.08,0.2,0.08,0.37,0c-0.04-0.04-0.04-0.08-0.04-0.08l-0.04-0.04C243.3,144.22,243.1,144.26,242.89,144.26z M243.14,143.13
				l-0.12-0.24c0-0.04,0-0.12-0.08-0.16c0,0.24,0,0.41,0.04,0.45c0.04-0.04,0.08-0.04,0.12-0.04H243.14z M243.06,143.7v-0.2h-0.12
				v0.2H243.06z M243.3,146.86c-0.04-0.04-0.16-0.04-0.32-0.04c0.04,0.04,0.04,0.08,0.04,0.08l0.08,0.12c0.04,0,0.08,0,0.16-0.04
				C243.3,146.9,243.3,146.86,243.3,146.86z M243.95,141.83c0.04-0.12,0.12-0.16,0.12-0.2c-0.2,0.12-0.37,0.16-0.45,0.16
				c-0.04,0-0.12-0.04-0.2-0.08c-0.08-0.04-0.16-0.08-0.2-0.12c0,0.04-0.04,0.04-0.08,0.08c-0.04,0.04-0.08,0.04-0.12,0.04v0.2
				c0.12,0,0.24,0,0.41,0.04c0.08,0.04,0.2,0.04,0.28,0.04C243.83,141.99,243.91,141.95,243.95,141.83z M243.5,146.66
				c-0.04-0.04-0.12-0.04-0.24-0.04h-0.24l0.2,0.12c0.12,0.04,0.16,0.08,0.2,0.12C243.42,146.78,243.46,146.7,243.5,146.66z
				 M243.1,137.97c0.12,0,0.2,0.04,0.28,0.16c0.12-0.12,0.12-0.2,0-0.28c-0.04,0.04-0.08,0.08-0.16,0.08
				C243.14,137.93,243.1,137.97,243.1,137.97z M243.22,142.92h0.41c0.04,0,0.08-0.04,0.08-0.04c0-0.04,0.04-0.08,0.08-0.08
				c-0.12,0-0.24,0-0.28-0.04h-0.24L243.22,142.92z M243.26,144.51v0.08h0.2v-0.08H243.26z M243.71,140.45
				c0.04-0.04,0.04-0.08,0-0.16h-0.28l-0.04,0.16H243.71z M244.76,143.61c-0.08,0-0.16-0.08-0.24-0.16
				c-0.08-0.08-0.16-0.12-0.2-0.12c-0.08,0-0.08,0-0.08,0.04h-0.04c-0.12,0-0.28-0.04-0.49-0.16c0.08,0,0.2-0.04,0.37-0.08
				c0.04,0,0.16-0.04,0.24-0.04c0,0.08,0.04,0.16,0.04,0.2h0.16c0.04,0,0.12,0,0.12-0.04l0.04-0.04v-0.12
				c-0.08-0.04-0.2-0.04-0.24-0.12c-0.08,0-0.16-0.04-0.2-0.12c0.16-0.12,0.28-0.2,0.37-0.2c-0.08-0.08-0.16-0.16-0.28-0.24
				c-0.12-0.04-0.28-0.08-0.49-0.04l0.37,0.28c-0.04,0.04-0.08,0.08-0.12,0.08c-0.08,0.08-0.16,0.08-0.2,0.12
				c0.04,0.12-0.08,0.24-0.41,0.45l-0.08,0.12c0.12,0.04,0.28,0.08,0.49,0.08l0.49,0.12v0.12c-0.04,0.04-0.12,0.04-0.2,0.04
				c0.08,0,0,0.04-0.16,0.08c0.08,0.08,0.2,0.12,0.37,0.12l0.08-0.12C244.52,143.82,244.72,143.65,244.76,143.61z M243.67,145.6
				c0-0.04-0.12-0.16-0.24-0.16l-0.04,0.16H243.67z M244.44,139.15h-0.08c0-0.04-0.04-0.04-0.12-0.04c-0.04,0-0.08,0-0.08,0.04
				h-0.12c-0.12,0-0.2,0.08-0.2,0.16c0.12,0,0.16,0,0.2-0.08c0.04,0.08,0.08,0.08,0.04,0.08v0.08l-0.65,0.28
				c0,0.16,0,0.28,0.04,0.37c0.04,0.16,0.16,0.08,0.2,0.08h0.16c0,0,0.08,0,0.2,0.08c0.08,0.04,0.2,0.12,0.28,0.2l-0.12,0.08
				c-0.04,0-0.04,0-0.04-0.04h-0.08c-0.08,0-0.16,0-0.24,0.08c-0.08,0.04-0.16,0.08-0.2,0.08h-0.2c0.08,0.08,0.12,0.16,0.12,0.2
				c0.04,0.08,0.04,0.12,0.12,0.2c0,0.08,0.08,0.16,0.16,0.16c0.12,0.04,0.24,0.04,0.41,0c-0.12-0.08-0.12-0.28-0.12-0.28h-0.08
				c-0.16,0-0.24-0.04-0.24-0.08v-0.04l0.28-0.08c0.12,0,0.2-0.04,0.24-0.04c0.08-0.04,0.16-0.04,0.2-0.12
				c0.08-0.04,0.16-0.08,0.2-0.12c-0.16,0-0.2-0.04-0.24-0.12v-0.16h-0.08c-0.04,0-0.04-0.04-0.04-0.08s0-0.08,0.04-0.12l0.12-0.08
				c-0.04-0.04-0.08-0.04-0.16-0.12c-0.08-0.04-0.12-0.08-0.12-0.12c0-0.12,0.16-0.12,0.37-0.12c-0.08-0.04-0.12-0.08-0.16-0.12
				c-0.04-0.04-0.08-0.08-0.08-0.12h0.2c0.08,0.04,0.24,0.08,0.49,0.04c0-0.04,0-0.08,0.04-0.12c0.04-0.04,0.04-0.08,0.04-0.12
				c0-0.12-0.32-0.2-0.41-0.2c0,0,0,0.08-0.08,0.2C244.6,139.11,244.52,139.15,244.44,139.15z M243.58,143.86
				c0.08,0,0.12,0,0.2-0.04c0-0.04-0.04-0.04-0.12-0.04h-0.24C243.46,143.78,243.54,143.82,243.58,143.86z M243.83,147.19h-0.2v0.12
				h0.2V147.19z M244.64,145.12c-0.08,0-0.16-0.04-0.2-0.04c-0.08,0-0.16,0-0.2-0.04c0-0.08,0.04-0.2,0.12-0.28
				c-0.12,0.04-0.2,0.08-0.28,0.08c-0.16,0-0.24,0.04-0.37,0.08v0.24h0.49C244.4,145.16,244.56,145.12,244.64,145.12z
				 M244.11,145.44c-0.04,0-0.08-0.04-0.2-0.04c-0.04-0.04-0.12-0.04-0.2-0.04l0.2,0.2c0.08-0.08,0.08-0.08,0.12-0.08
				C244.07,145.48,244.07,145.44,244.11,145.44z M243.99,146.37c-0.12-0.08-0.16-0.16-0.16-0.24c-0.04,0-0.08,0.04-0.08,0.12
				c0,0.04-0.04,0.08-0.04,0.12H243.99z M243.79,138.01c0,0.08,0,0.08,0.04,0.12l0.08,0.08c0.04-0.04,0.08-0.12,0.08-0.2H243.79z
				 M243.91,138.91c0,0.08,0.04,0.12,0.12,0.16h0.2c0.08-0.08,0.08-0.12,0.08-0.12c0.08,0,0.08-0.04,0.08-0.12
				C244.19,138.78,244.03,138.82,243.91,138.91z M245.21,141.26c-0.16,0-0.24-0.04-0.28-0.12c0.16-0.08,0.2-0.16,0.12-0.24
				c-0.04-0.04-0.08-0.12-0.08-0.2c0,0.12-0.08,0.2-0.24,0.2h-0.24c-0.12,0-0.2,0-0.24,0.04c0.12,0,0.24,0,0.32,0.04
				c0.04,0.04,0.08,0.08,0.16,0.12C244.84,141.22,244.92,141.34,245.21,141.26z M244.68,142.23c-0.04,0-0.04-0.04-0.04-0.04
				l-0.04-0.04l-0.12,0.08H244.68z M244.6,138.26l0.28,0.04v-0.04l-0.28-0.08V138.26z M244.92,141.91h-0.28v0.08h0.28V141.91z
				 M245.33,140.37c-0.04-0.08-0.08-0.16-0.08-0.2s-0.04-0.08-0.16-0.12c-0.12,0.08-0.16,0.12-0.2,0.12
				c-0.04,0.04-0.08,0.08-0.08,0.12l0.08,0.04v0.04h0.2C245.21,140.41,245.29,140.41,245.33,140.37z M245.21,139.68l-0.32-0.12
				c0.04,0.2,0.16,0.28,0.37,0.28c0.08,0,0.12,0,0.12-0.04h0.08C245.41,139.76,245.33,139.72,245.21,139.68z M244.92,143.57v0.12
				h0.08v-0.12H244.92z M245.29,141.87h-0.24c-0.04,0.04-0.04,0.08,0,0.12c0,0,0.04,0.04,0.04,0.08c0,0,0-0.04,0.04-0.04
				c0-0.04,0-0.04,0.04-0.08L245.29,141.87z M245.05,138.58c0,0.08,0.04,0.16,0.08,0.16l0.24-0.04c0-0.04,0-0.04-0.04-0.08v-0.08
				c-0.04,0-0.08,0-0.16,0.04H245.05z M245.29,138.34h0.57v-0.08h-0.57V138.34z M245.49,139.56c0,0,0.04-0.04,0.04-0.08l0.04-0.04
				l-0.28-0.04C245.29,139.47,245.33,139.51,245.49,139.56z M245.9,140.89c-0.28-0.04-0.37-0.08-0.28-0.08
				c-0.16,0-0.45-0.08-0.12,0.12c0.04,0.04,0.12,0.08,0.24,0.08C245.78,141.02,245.82,140.98,245.9,140.89z M245.57,138.78h0.24
				C245.7,138.66,245.61,138.66,245.57,138.78z M245.65,141.1c0,0-0.04,0.04-0.04,0.08c-0.04,0.04-0.04,0.04-0.04,0.08h0.08
				l0.04-0.04C245.82,141.22,245.7,141.1,245.65,141.1z M246.22,136.92l-0.41-0.08l-0.08,0.08c0,0.04-0.04,0.04-0.04,0.08
				c0.08-0.04,0.2-0.04,0.32-0.04C246.1,136.92,246.18,136.92,246.22,136.92z M245.9,139.64h-0.2v0.08h0.2V139.64z"/>
			<path class="st7" d="M268.47,126c-0.41,4.18-0.69,8.36-0.77,12.58c-0.04,0.61-0.04,1.22-0.04,1.83c0,0.61-0.04,1.22-0.04,1.83
				h-0.2c-0.12,0-0.24,0-0.28,0.04c-0.04,0.04-0.24,0.04-0.53,0.04l0.08,0.08l-0.08,0.08h0.08c0.04,0,0.08,0,0.16-0.04
				c0.08,0.04,0.2,0.04,0.41,0.04h0.28c0.04,0,0.08,0,0.08,0.04v0.08h-0.2l0.08,0.04l-0.08,0.08h0.2c-0.04,3.08-0.04,6.17-0.04,9.21
				c0,0.57-0.28,0.85-0.81,0.85l-5.36,0.12c-0.41,0-0.65-0.16-0.81-0.53l-0.61-1.7h0.04v-0.04h-0.08l-3.21-8.52
				c0.16-0.08,0.32-0.16,0.49-0.28l-0.2,0.04l-0.08-0.04c-0.04,0-0.12,0.04-0.2,0.04c-0.04,0-0.08,0.04-0.08,0.04l-1.54-4.06
				l-0.28,14.37c-0.04,0.53-0.32,0.81-0.85,0.81h-5.48c-0.49,0-0.81-0.37-0.81-0.85c0.08-1.99,0.2-4.02,0.32-6.01
				c0.2-4.02,0.37-7.51,0.73-11.81l0.73-8.48c0.04-0.49,0.28-0.73,0.81-0.77l3.9-0.12c1.83-0.12,3.04,1.1,3.73,2.68l0.04,0.04
				l3.37,8.81l0.65-10.76c0-0.53,0.28-0.77,0.85-0.77l4.83,0.12C268.14,125.11,268.47,125.55,268.47,126z M251.99,141.87l-0.08-0.24
				c-0.24,0.12-0.32,0.2-0.32,0.32C251.74,141.95,251.91,141.91,251.99,141.87z M252.07,132.9h0.24v-0.12h-0.24V132.9z
				 M252.15,142.48h0.81c-0.37-0.2-0.49-0.24-0.37-0.2l-0.12-0.08c-0.16-0.04-0.28-0.04-0.41-0.08L252.15,142.48z M252.47,140.2
				h-0.32v0.28h0.32V140.2z M252.72,141.79l-0.24,0.12v0.16l0.32-0.12L252.72,141.79z M252.8,144.51c-0.16,0-0.24,0-0.24,0.04
				c-0.08,0.04-0.08,0.08-0.08,0.12l0.24,0.16c0.04-0.08,0.08-0.16,0.08-0.2V144.51z M252.8,147.19h-0.24v0.28h0.24V147.19z
				 M252.64,130.91l0.24,0.12c0-0.12-0.04-0.2-0.08-0.24C252.72,130.79,252.68,130.83,252.64,130.91z M253.2,138.5
				c0-0.08-0.04-0.16-0.08-0.24v-0.08c-0.16,0-0.32,0.04-0.41,0.12v0.2H253.2z M252.96,139.19c0.2-0.12,0.12-0.24-0.24-0.32v0.24
				L252.96,139.19z M252.8,140.08h0.41l-0.2-0.28C252.88,139.88,252.8,139.96,252.8,140.08z M252.8,143.21h0.41v-0.2h-0.41V143.21z
				 M253.12,132.82h-0.24v0.16c0.04,0.04,0.08,0.08,0.08,0.12C253.08,133.02,253.12,132.94,253.12,132.82z M253.2,135.62h-0.32v0.16
				h0.32V135.62z M253.29,147.71c-0.08-0.04-0.2-0.08-0.41-0.08v0.28C253.12,147.84,253.24,147.75,253.29,147.71z M253.29,143.57
				h-0.24v0.28h0.24V143.57z M253.2,139.23h0.28v-0.16h-0.28V139.23z M254.26,133.22l0.04-0.08h-0.73v-0.12h-0.32v0.16h0.32v-0.04
				l0.08,0.08c0.08,0.04,0.12,0.08,0.16,0.08c0,0.04,0.04,0.04,0.12,0.04C254.02,133.34,254.14,133.3,254.26,133.22z M253.77,148.48
				h-0.41v0.24h0.41V148.48z M253.85,133.55c-0.12-0.08-0.24-0.08-0.37-0.08C253.57,133.59,253.69,133.63,253.85,133.55z
				 M254.06,137.65h-0.41C253.85,137.93,254.02,137.85,254.06,137.65z M254.26,140.16h-0.24v0.32h0.24V140.16z M254.3,133.3
				l0.24,0.08l0.08-0.12l-0.32-0.08V133.3z M254.38,137.44h0.28v-0.24h-0.28V137.44z M254.87,138.09h-0.41v0.16h0.41V138.09z
				 M254.79,145.16h-0.28v0.24h0.28V145.16z M254.58,132.82c0,0.12,0.04,0.24,0.08,0.32c0.08-0.04,0.12-0.04,0.12-0.04
				s0.04-0.04,0.08-0.04C254.83,133.02,254.75,132.9,254.58,132.82z M254.62,135.98v0.16h0.41v-0.16H254.62z M255.15,133.3
				c-0.12-0.08-0.2-0.12-0.28-0.12c-0.04,0.04-0.08,0.08-0.04,0.12v0.12C254.95,133.43,255.07,133.39,255.15,133.3z M254.91,137.04
				c0.04,0.16,0.08,0.32,0.2,0.41C255.27,137.28,255.23,137.16,254.91,137.04z M255.92,137.77h-0.57
				C255.6,137.85,255.8,137.85,255.92,137.77z M256.69,139.76c-0.04,0-0.04-0.04-0.04-0.04c-0.08,0-0.12-0.04-0.16-0.08
				c-0.04,0-0.08,0.08-0.08,0.16v0.08h0.28V139.76z M257.26,137.77h0.2v-0.24h-0.2V137.77z M257.91,141.83
				c-0.08-0.08-0.16-0.16-0.28-0.2c-0.04,0.08-0.12,0.12-0.28,0.16c0.04,0.04,0.08,0.04,0.12,0.04s0.04,0.04,0.08,0.04
				c0.12,0.04,0.16,0.08,0.16,0.08s0.04,0,0.12-0.04L257.91,141.83z M257.63,138.87h0.28v-0.12h-0.28V138.87z M257.67,137.44
				l0.08,0.12l0.53-0.37l-0.2-0.08C258.07,137.36,258.07,137.44,257.67,137.44z M257.99,139.6l0.28-0.04
				c-0.04-0.12-0.08-0.28-0.08-0.49c-0.04,0.08-0.08,0.08-0.08,0.12l-0.12,0.12c-0.08,0.04-0.12,0.04-0.12,0.04s0,0.04-0.04,0.08
				c0.04,0.04,0.08,0.08,0.08,0.12L257.99,139.6z M257.99,137.77l-0.08-0.08c0,0.04-0.04,0.08-0.04,0.12c0,0.04,0.04,0.08,0.08,0.16
				h0.04v-0.12C258.03,137.85,257.99,137.81,257.99,137.77z M258.03,141.58l0.2,0.08l0.16-0.24l-0.24-0.04L258.03,141.58z
				 M258.2,144.02c0.04,0,0.12,0,0.24-0.04l-0.16-0.12C258.16,143.86,258.07,143.98,258.2,144.02z M258.16,138.34v0.16h0.16v-0.16
				H258.16z M258.44,142.88c-0.04-0.16-0.12-0.24-0.24-0.24c-0.04,0.04-0.04,0.08,0,0.12c0,0,0,0.04,0.04,0.04
				S258.36,142.84,258.44,142.88z M258.68,145.03c-0.08-0.12-0.2-0.16-0.37-0.16v0.16C258.4,145.08,258.52,145.08,258.68,145.03z
				 M258.36,140.85c0,0.12,0.12,0.24,0.37,0.24v-0.24H258.36z M258.81,141.38l-0.45,0.12l0.04,0.12l0.49-0.12L258.81,141.38z
				 M258.4,143.17c0,0,0.04,0,0.08-0.04h0.04c0.04,0,0.08-0.04,0.12-0.08h0.04l0.04-0.04c-0.16-0.04-0.24-0.08-0.32-0.08V143.17z
				 M258.68,144.47l0.28-0.08l-0.08-0.12l-0.28,0.04L258.68,144.47z M258.85,143.49l-0.08,0.12l0.2,0.08l0.08-0.16L258.85,143.49z
				 M259.37,146.41l-0.41,0.12c0,0.08,0.08,0.08,0.16,0.08c0,0.04,0.04,0.04,0.08,0.04c0,0,0.04,0,0.12,0.04
				C259.29,146.66,259.29,146.54,259.37,146.41z M259.09,145.48h0.16v-0.2h-0.16V145.48z M259.37,146.13h-0.28v0.2h0.28V146.13z
				 M259.13,141.18c0,0.16,0.12,0.24,0.32,0.28c0.04-0.04,0.08-0.04,0.12-0.04l0.12-0.04C259.45,141.26,259.25,141.18,259.13,141.18
				z M259.45,141.75l0.32-0.04l-0.04-0.16l-0.32,0.08L259.45,141.75z M260.1,145.56c-0.08-0.12-0.08-0.08-0.32-0.16l-0.16-0.04
				l0.16,0.28L260.1,145.56z M259.86,144.26h-0.08c0,0.08,0.08,0.16,0.16,0.28c0.04,0.08,0.12,0.16,0.16,0.2
				c0.08-0.04,0.16-0.08,0.24-0.16c0.08-0.08,0.2-0.12,0.32-0.24c-0.12,0.04-0.2,0.04-0.24,0.04h-0.08
				c-0.04,0.04-0.08,0.04-0.08,0.04l-0.08,0.04c-0.04-0.04-0.08-0.08-0.08-0.12c0-0.04,0-0.08-0.08-0.12h-0.04
				C259.94,144.26,259.94,144.26,259.86,144.26z M259.98,143.25h0.2l-0.08-0.28l-0.12,0.04V143.25z M260.1,147.96V148
				c0.12,0.04,0.16,0.08,0.16,0.08l0.89-0.49c-0.2,0.08-0.37,0.08-0.45,0.08c-0.04,0.04-0.12,0.08-0.28,0.08
				c-0.16,0.04-0.32,0.08-0.45,0.16c0.04,0.04,0.08,0.04,0.08,0.04H260.1z M260.75,144.79h-0.08c0,0-0.08,0-0.12,0.04
				c0,0,0.04-0.04,0.04-0.08h-0.32c-0.04,0.04-0.08,0.04-0.16,0.04c0.04,0.12,0.08,0.16,0.16,0.16l0.08,0.08
				c0.04-0.04,0.08-0.04,0.12-0.12h0.37l0.32-0.08l-0.08-0.12L260.75,144.79z M260.92,149.74l-0.41,0.08h-0.08
				c0,0-0.08,0.04-0.16,0.04c0.08,0.08,0.08,0.2,0,0.28c0.16,0,0.28-0.04,0.32-0.12c0.2-0.12,0.24-0.16,0.16-0.12
				C260.75,149.91,260.83,149.87,260.92,149.74z M260.92,145.52v-0.12c0-0.08-0.08-0.16-0.24-0.2l-0.32,0.08v0.16
				C260.55,145.56,260.75,145.56,260.92,145.52z M260.35,146.82l0.16,0.37C260.67,147.02,260.59,146.94,260.35,146.82z
				 M260.67,146.13l0.24,0.57l0.16-0.04l-0.24-0.57L260.67,146.13z M261.52,147.67c0,0,0.04,0,0.12-0.08l0.08-0.08l0.08-0.04
				l-0.12-0.28h-0.16c-0.04,0-0.12-0.04-0.2-0.08c0,0.08,0.04,0.16,0.08,0.24c0,0,0,0.04,0.04,0.04v0.08c0.04,0.04,0.04,0.08,0,0.12
				c0,0.04-0.12,0.08-0.28,0.2C261.36,147.75,261.48,147.71,261.52,147.67z M261.24,144.91l0.16,0.24l0.16-0.08l-0.12-0.24
				L261.24,144.91z M262.5,147.35c-0.33-0.16-0.49-0.28-0.53-0.41v-0.2c0,0,0-0.04,0.04-0.04l-0.04-0.04
				c-0.12,0.04-0.2,0.08-0.24,0.08c-0.04,0.04-0.08,0.04-0.2,0.08l-0.08,0.08l-0.12,0.08c0.08,0,0.16,0.04,0.28,0.04
				c0.04,0,0.12,0,0.24,0.04c0.04,0.12,0.08,0.2,0.16,0.28C262.09,147.47,262.26,147.43,262.5,147.35z M261.44,138.82l0.04,0.04
				l0.08-0.12h-0.08L261.44,138.82z M262.05,148.85l-0.28-0.28l-0.24,0.24c0.04,0.04,0.08,0.04,0.08,0.04
				c0.04,0,0.08,0.08,0.08,0.08L262.05,148.85z M262.3,148.97c0.08,0,0.12,0,0.16-0.04l-0.04-0.04c-0.04,0-0.08,0-0.16-0.08
				C262.17,148.93,262.21,148.97,262.3,148.97z M262.95,149.18c-0.08,0-0.16-0.04-0.24-0.04c0,0.04-0.08,0.04-0.12,0.04h-0.04
				l-0.16,0.24v0.04h0.04l0.16-0.24c0.12-0.04,0.2-0.04,0.32,0L262.95,149.18z M262.46,141.5l0.16,0.08l0.12-0.16l-0.16-0.04
				L262.46,141.5z M262.46,142.84c0.04,0.12,0.08,0.2,0.16,0.24c0.08-0.04,0.08-0.08,0.04-0.2h-0.16L262.46,142.84z M262.46,146.13
				c0.12,0.04,0.2,0.08,0.28,0.08c0.08-0.04,0.08-0.16-0.04-0.24L262.46,146.13z M262.58,148.4l-0.04,0.2l0.2,0.04l0.04-0.24H262.58
				z M262.82,147.88l0.08,0.16l0.53-0.41l-0.2-0.04C263.23,147.84,263.23,147.88,262.82,147.88z M263.47,149.22l-0.04-0.04
				c-0.08,0.04-0.16,0.12-0.2,0.2h-0.04l0.04,0.04c0.04-0.08,0.08-0.16,0.2-0.2H263.47z M263.64,139.8h-0.08v0.12h0.08V139.8z"/>
		</g>
	</g>
</g>
</svg>
